<svg width="33" height="33" viewBox="0 0 33 33" fill="none" xmlns="http://www.w3.org/2000/svg">
<rect width="33" height="33" rx="16.5" fill="#4997D6"/>
<path d="M15.8525 23.9314C16.2106 24.2895 16.7922 24.2895 17.1503 23.9314L21.7338 19.3479C22.0919 18.9898 22.0919 18.4082 21.7338 18.0501C21.3757 17.6921 20.7942 17.6921 20.4361 18.0501L17.4167 21.0696V10.45C17.4167 9.94298 17.007 9.53333 16.5 9.53333C15.9929 9.53333 15.5833 9.94298 15.5833 10.45V21.0696L12.5638 18.0501C12.2058 17.6921 11.6242 17.6921 11.2661 18.0501C10.908 18.4082 10.908 18.9898 11.2661 19.3479L15.8497 23.9314H15.8525Z" fill="white"/>
</svg>
