<svg width="61" height="91" viewBox="0 0 61 91" fill="none" xmlns="http://www.w3.org/2000/svg">
<path d="M60.016 90.91H1.452V76.148L27.951 52.916C32.4683 48.9633 35.7757 45.414 37.873 42.268C39.9703 39.0413 41.019 35.5727 41.019 31.862V30.289C41.019 26.5783 39.809 23.755 37.389 21.819C34.969 19.8023 32.0247 18.794 28.556 18.794C24.2 18.794 20.8927 20.0443 18.634 22.545C16.3753 24.965 14.762 27.9093 13.794 31.378L0 26.054C0.468804 24.5624 1.03893 23.1157 1.71039 21.7142C2.30983 20.4629 2.99004 19.2475 3.751 18.068C5.36433 15.4867 7.381 13.228 9.801 11.292C12.3017 9.356 15.2057 7.82333 18.513 6.694C21.8203 5.56467 25.6117 5 29.887 5C34.3237 5 38.2763 5.64533 41.745 6.936C45.2137 8.146 48.1177 9.88033 50.457 12.139C52.877 14.3977 54.692 17.0597 55.902 20.125C57.1927 23.1903 57.838 26.538 57.838 30.168C57.838 33.7173 57.2733 36.944 56.144 39.848C55.0147 42.752 53.482 45.535 51.546 48.197C49.61 50.7783 47.3513 53.279 44.77 55.699C42.1887 58.0383 39.446 60.418 36.542 62.838L18.755 77.479H60.016V90.91Z" fill="#777777"/>
<path d="M60.016 85.91H1.452V71.148L27.951 47.916C32.4683 43.9633 35.7757 40.414 37.873 37.268C39.9703 34.0413 41.019 30.5727 41.019 26.862V25.289C41.019 21.5783 39.809 18.755 37.389 16.819C34.969 14.8023 32.0247 13.794 28.556 13.794C24.2 13.794 20.8927 15.0443 18.634 17.545C16.3753 19.965 14.762 22.9093 13.794 26.378L1.71039 21.7142L0 21.054C0.887334 18.2307 2.13767 15.5687 3.751 13.068C5.36433 10.4867 7.381 8.228 9.801 6.292C12.3017 4.356 15.2057 2.82333 18.513 1.694C21.8203 0.564667 25.6117 0 29.887 0C34.3237 0 38.2763 0.645335 41.745 1.936C45.2137 3.146 48.1177 4.88034 50.457 7.139C52.877 9.39767 54.692 12.0597 55.902 15.125C57.1927 18.1903 57.838 21.538 57.838 25.168C57.838 28.7173 57.2733 31.944 56.144 34.848C55.0147 37.752 53.482 40.535 51.546 43.197C49.61 45.7783 47.3513 48.279 44.77 50.699C42.1887 53.0383 39.446 55.418 36.542 57.838L18.755 72.479H60.016V85.91Z" fill="#C0C0C0"/>
<path d="M0 21.054V26.054C0.468804 24.5624 1.03893 23.1157 1.71039 21.7142L0 21.054Z" fill="#777777"/>
</svg>
