<svg width="62" height="93" viewBox="0 0 62 93" fill="none" xmlns="http://www.w3.org/2000/svg">
<path d="M28.798 40.574C33.638 40.574 37.1873 39.606 39.446 37.67C41.7853 35.6533 42.955 33.1123 42.955 30.047V29.2C42.955 25.7313 41.8257 23.029 39.567 21.093C37.389 19.0763 34.364 18.068 30.492 18.068C26.7813 18.068 23.474 18.9553 20.57 20.73C17.7467 22.5047 15.2863 25.0053 13.189 28.232L3.025 19.036C3.77104 18.0413 4.54902 17.0785 5.35895 16.1477C6.12536 15.2668 6.92038 14.4146 7.744 13.591C9.51867 11.8163 11.5353 10.324 13.794 9.114C16.0527 7.82333 18.5937 6.815 21.417 6.089C24.2403 5.363 27.4267 5 30.976 5C35.2513 5 39.1233 5.52433 42.592 6.573C46.1413 7.541 49.1663 8.993 51.667 10.929C54.2483 12.865 56.2247 15.2043 57.596 17.947C58.6208 19.9363 59.2627 22.1284 59.5217 24.5232C59.6092 25.3329 59.653 26.1659 59.653 27.022C59.653 29.7647 59.2093 32.225 58.322 34.403C57.5153 36.581 56.3457 38.4767 54.813 40.09C53.361 41.7033 51.6267 43.0343 49.61 44.083C47.674 45.051 45.617 45.777 43.439 46.261V46.987C45.859 47.471 48.158 48.2373 50.336 49.286C52.514 50.3347 54.3693 51.7463 55.902 53.521C57.5153 55.215 58.7657 57.2317 59.653 59.571C60.342 61.236 60.7858 63.0645 60.9844 65.0564C61.0648 65.8631 61.105 66.6967 61.105 67.557C61.105 71.2677 60.3387 74.6557 58.806 77.721C57.354 80.7863 55.2567 83.408 52.514 85.586C49.7713 87.764 46.5043 89.458 42.713 90.668C38.9217 91.7973 34.6867 92.362 30.008 92.362C25.894 92.362 22.264 91.9183 19.118 91.031C15.972 90.2243 13.189 89.095 10.769 87.643C8.42967 86.191 6.37267 84.5373 4.598 82.682C2.82793 80.751 1.2986 78.7398 0.0100256 76.6483C0.00668211 76.6429 0.00334024 76.6374 0 76.632L2.26195 74.9064L11.737 67.678C12.705 69.372 13.7537 70.945 14.883 72.397C16.0123 73.7683 17.303 74.9783 18.755 76.027C20.207 77.0757 21.8607 77.8823 23.716 78.447C25.5713 79.0117 27.6687 79.294 30.008 79.294C34.6867 79.294 38.2763 78.1647 40.777 75.906C43.2777 73.6473 44.528 70.5417 44.528 66.589V65.742C44.528 61.87 43.1567 58.9257 40.414 56.909C37.752 54.8923 33.88 53.884 28.798 53.884H20.449V40.574H28.798Z" fill="#E5AA93"/>
<path d="M28.798 35.574C33.638 35.574 37.1873 34.606 39.446 32.67C41.7853 30.6533 42.955 28.1123 42.955 25.047V24.2C42.955 20.7313 41.8257 18.029 39.567 16.093C37.389 14.0763 34.364 13.068 30.492 13.068C26.7813 13.068 23.474 13.9553 20.57 15.73C17.7467 17.5047 15.2863 20.0053 13.189 23.232L5.35895 16.1477L3.025 14.036C4.477 12.1 6.05 10.285 7.744 8.591C9.51867 6.81633 11.5353 5.324 13.794 4.114C16.0527 2.82333 18.5937 1.815 21.417 1.089C24.2403 0.363 27.4267 0 30.976 0C35.2513 0 39.1233 0.524334 42.592 1.573C46.1413 2.541 49.1663 3.993 51.667 5.929C54.2483 7.865 56.2247 10.2043 57.596 12.947C58.9673 15.609 59.653 18.634 59.653 22.022C59.653 22.8836 59.6092 23.7173 59.5217 24.5232C59.3305 26.2826 58.9306 27.9092 58.322 29.403C57.5153 31.581 56.3457 33.4767 54.813 35.09C53.361 36.7033 51.6267 38.0343 49.61 39.083C47.674 40.051 45.617 40.777 43.439 41.261V41.987C45.859 42.471 48.158 43.2373 50.336 44.286C52.514 45.3347 54.3693 46.7463 55.902 48.521C57.5153 50.215 58.7657 52.2317 59.653 54.571C60.621 56.9103 61.105 59.5723 61.105 62.557C61.105 63.4071 61.0648 64.2402 60.9844 65.0564C60.7137 67.803 59.9876 70.3579 58.806 72.721C57.354 75.7863 55.2567 78.408 52.514 80.586C49.7713 82.764 46.5043 84.458 42.713 85.668C38.9217 86.7973 34.6867 87.362 30.008 87.362C25.894 87.362 22.264 86.9183 19.118 86.031C15.972 85.2243 13.189 84.095 10.769 82.643C8.42967 81.191 6.37267 79.5373 4.598 77.682C3.76614 76.7745 2.98746 75.8493 2.26195 74.9064C1.43966 73.8377 0.685681 72.7462 0 71.632L11.737 62.678C12.705 64.372 13.7537 65.945 14.883 67.397C16.0123 68.7683 17.303 69.9783 18.755 71.027C20.207 72.0757 21.8607 72.8823 23.716 73.447C25.5713 74.0117 27.6687 74.294 30.008 74.294C34.6867 74.294 38.2763 73.1647 40.777 70.906C43.2777 68.6473 44.528 65.5417 44.528 61.589V60.742C44.528 56.87 43.1567 53.9257 40.414 51.909C37.752 49.8923 33.88 48.884 28.798 48.884H20.449V35.574H28.798Z" fill="#CD6632"/>
<path d="M0 71.632V76.632L2.26195 74.9064C1.43966 73.8377 0.685681 72.7462 0 71.632Z" fill="#E5B193"/>
<path d="M3.025 14.036V19.036C3.77104 18.0413 4.54902 17.0785 5.35895 16.1477L3.025 14.036Z" fill="#E5B193"/>
<path d="M59.653 27.022V22.022C59.653 22.8836 59.6092 23.7173 59.5217 24.5232C59.6092 25.3329 59.653 26.1659 59.653 27.022Z" fill="#E5B193"/>
<path d="M60.9844 65.0564C61.0648 65.8631 61.105 66.6967 61.105 67.557V62.557C61.105 63.4071 61.0648 64.2402 60.9844 65.0564Z" fill="#E5B193"/>
</svg>
