<svg width="61" height="91" viewBox="0 0 61 91" fill="none" xmlns="http://www.w3.org/2000/svg">
<path d="M55.9149 18.1961L17.666 18.252L15.73 46.566H16.577C17.4643 44.7913 18.4323 43.1377 19.481 41.605C20.5297 40.0723 21.7397 38.7817 23.111 37.733C24.4823 36.6843 26.0553 35.8777 27.83 35.313C29.6853 34.6677 31.9037 34.345 34.485 34.345C38.115 34.345 41.503 34.95 44.649 36.16C47.795 37.37 50.4973 39.1447 52.756 41.484C55.0953 43.7427 56.9103 46.5257 58.201 49.833C59.5639 53.12 60.2495 56.8452 60.2579 61.0086C60.258 61.0344 60.258 61.0602 60.258 61.086C60.258 63.9953 59.9405 66.7365 59.3055 69.3096C59.0073 70.5178 58.6392 71.6889 58.201 72.823C56.8297 76.3723 54.813 79.478 52.151 82.14C49.489 84.7213 46.222 86.738 42.35 88.19C38.478 89.642 34.0413 90.368 29.04 90.368C25.168 90.368 21.6993 89.9243 18.634 89.037C15.5687 88.2303 12.8663 87.101 10.527 85.649C8.18767 84.197 6.171 82.5433 4.477 80.688C2.783 78.752 1.29067 76.7353 0 74.638L2.13919 72.9891L11.616 65.684C12.584 67.2973 13.5923 68.83 14.641 70.282C15.6897 71.6533 16.8997 72.8633 18.271 73.912C19.723 74.9607 21.296 75.8077 22.99 76.453C24.7647 77.0177 26.8217 77.3 29.161 77.3C33.9203 77.3 37.51 75.969 39.93 73.307C42.4307 70.645 43.681 67.015 43.681 62.417V61.449C43.681 57.093 42.4307 53.6647 39.93 51.164C37.4293 48.6633 33.9607 47.413 29.524 47.413C26.0553 47.413 23.232 48.0987 21.054 49.47C18.876 50.7607 17.1417 52.1723 15.851 53.705L2.783 51.89L5.929 4.45801L55.9149 4.40214V18.1961Z" fill="#7E7E7E"/>
<path d="M55.9149 13.794H17.9209L15.9849 42.108H16.8319C17.7192 40.3333 18.6872 38.6797 19.7359 37.147C20.7846 35.6143 21.9946 34.3237 23.3659 33.275C24.7372 32.2263 26.3102 31.4197 28.0849 30.855C29.9402 30.2097 32.1586 29.887 34.7399 29.887C38.3699 29.887 41.7579 30.492 44.9039 31.702C48.0499 32.912 50.7522 34.6867 53.0109 37.026C55.3502 39.2847 57.1652 42.0677 58.4559 45.375C59.8272 48.6823 60.5129 52.4333 60.5129 56.628C60.5129 58.1332 60.4279 59.5934 60.2579 61.0086C59.9451 63.6131 59.3444 66.0652 58.4559 68.365C57.0846 71.9143 55.0679 75.02 52.4059 77.682C49.7439 80.2633 46.4769 82.28 42.6049 83.732C38.7329 85.184 34.2962 85.91 29.2949 85.91C25.4229 85.91 21.9542 85.4663 18.8889 84.579C15.8236 83.7723 13.1212 82.643 10.7819 81.191C8.44255 79.739 6.42588 78.0853 4.73188 76.23C3.80762 75.1737 2.94339 74.0934 2.13919 72.9891C1.46945 72.0694 0.841347 71.133 0.254883 70.18L11.8709 61.226C12.8389 62.8393 13.8472 64.372 14.8959 65.824C15.9446 67.1953 17.1546 68.4053 18.5259 69.454C19.9779 70.5027 21.5509 71.3497 23.2449 71.995C25.0196 72.5597 27.0765 72.842 29.4159 72.842C34.1752 72.842 37.7649 71.511 40.1849 68.849C42.6855 66.187 43.9359 62.557 43.9359 57.959V56.991C43.9359 52.635 42.6855 49.2067 40.1849 46.706C37.6842 44.2053 34.2155 42.955 29.7789 42.955C26.3102 42.955 23.4869 43.6407 21.3089 45.012C19.1309 46.3027 17.3965 47.7143 16.1059 49.247L3.03788 47.432L6.18388 0H55.9149V13.794Z" fill="#343434"/>
<path d="M0.254883 70.18L0 74.638L2.13919 72.9891C1.46945 72.0694 0.841347 71.133 0.254883 70.18Z" fill="#7E7E7E"/>
<path d="M60.2579 61.0086C60.258 61.0344 60.258 61.0602 60.258 61.086C60.258 63.9953 59.9405 66.7365 59.3055 69.3096C60.1349 66.2377 60.5383 62.9908 60.5129 56.628C60.5129 58.1332 60.4279 59.5934 60.2579 61.0086Z" fill="#7E7E7E"/>
</svg>
