<svg width="172" height="172" viewBox="0 0 172 172" fill="none" xmlns="http://www.w3.org/2000/svg">
<g id="State=Off">
<circle id="base_metal" cx="86" cy="86" r="86" fill="url(#paint0_radial_26_332)"/>
<path id="lum_ext" d="M133 86.5C133 112.181 112.181 133 86.5 133C60.8188 133 40 112.181 40 86.5C40 60.8188 60.8188 40 86.5 40C112.181 40 133 60.8188 133 86.5ZM46.07 86.5C46.07 108.829 64.1711 126.93 86.5 126.93C108.829 126.93 126.93 108.829 126.93 86.5C126.93 64.1711 108.829 46.07 86.5 46.07C64.1711 46.07 46.07 64.1711 46.07 86.5Z" fill="#323F38"/>
<g id="rond_vert_fixe">
<circle cx="86.5" cy="86.5" r="40.5" fill="#28725B"/>
<circle cx="86.5" cy="86.5" r="40.5" fill="#28725B"/>
</g>
<circle id="partie_translucide" cx="86" cy="86" r="24" fill="url(#paint1_linear_26_332)"/>
<path id="fleches" fill-rule="evenodd" clip-rule="evenodd" d="M83.346 73.4131C83.4741 73.5438 83.5757 73.6989 83.645 73.8698C83.7143 74.0406 83.75 74.2238 83.75 74.4088C83.75 74.5937 83.7143 74.7769 83.645 74.9477C83.5757 75.1186 83.4741 75.2738 83.346 75.4044L73.3168 85.6588L83.346 95.9131C83.6042 96.1772 83.7493 96.5353 83.7493 96.9088C83.7493 97.2822 83.6042 97.6403 83.346 97.9044C83.0879 98.1684 82.7377 98.3168 82.3725 98.3168C82.0074 98.3168 81.6572 98.1684 81.399 97.9044L70.399 86.6544C70.271 86.5238 70.1694 86.3686 70.1001 86.1977C70.0308 86.0269 69.9951 85.8437 69.9951 85.6588C69.9951 85.4738 70.0308 85.2906 70.1001 85.1198C70.1694 84.9489 70.271 84.7938 70.399 84.6631L81.399 73.4131C81.5268 73.2822 81.6785 73.1783 81.8456 73.1074C82.0126 73.0365 82.1917 73 82.3725 73C82.5534 73 82.7325 73.0365 82.8995 73.1074C83.0666 73.1783 83.2183 73.2822 83.346 73.4131ZM89.649 73.4131C89.521 73.5438 89.4194 73.6989 89.3501 73.8698C89.2808 74.0406 89.2451 74.2238 89.2451 74.4088C89.2451 74.5937 89.2808 74.7769 89.3501 74.9477C89.4194 75.1186 89.521 75.2738 89.649 75.4044L99.6783 85.6588L89.649 95.9131C89.3909 96.1772 89.2458 96.5353 89.2458 96.9088C89.2458 97.2822 89.3909 97.6403 89.649 97.9044C89.9072 98.1684 90.2574 98.3168 90.6225 98.3168C90.9877 98.3168 91.3379 98.1684 91.596 97.9044L102.596 86.6544C102.724 86.5238 102.826 86.3686 102.895 86.1977C102.964 86.0269 103 85.8437 103 85.6588C103 85.4738 102.964 85.2906 102.895 85.1198C102.826 84.9489 102.724 84.7938 102.596 84.6631L91.596 73.4131C91.4683 73.2822 91.3166 73.1783 91.1495 73.1074C90.9825 73.0365 90.8034 73 90.6225 73C90.4417 73 90.2626 73.0365 90.0955 73.1074C89.9285 73.1783 89.7768 73.2822 89.649 73.4131Z" fill="#757B6F"/>
</g>
<defs>
<radialGradient id="paint0_radial_26_332" cx="0" cy="0" r="1" gradientUnits="userSpaceOnUse" gradientTransform="translate(86 86) rotate(90) scale(86)">
<stop offset="0.64" stop-color="#AFADB1"/>
<stop offset="0.66" stop-color="#AFADB1"/>
<stop offset="1" stop-color="#929292"/>
</radialGradient>
<linearGradient id="paint1_linear_26_332" x1="62" y1="86" x2="110" y2="86" gradientUnits="userSpaceOnUse">
<stop offset="0.410833" stop-color="#D6DFD6"/>
<stop offset="1" stop-color="#BDC1BC"/>
</linearGradient>
</defs>
</svg>
