<svg width="1920" height="4800" viewBox="0 0 1920 4800" fill="none" xmlns="http://www.w3.org/2000/svg">
<path fill-rule="evenodd" clip-rule="evenodd" d="M1344 0H480V480H1344V0ZM480 2832V4800H1344V2832H480Z" fill="#F8F8F8"/>
<path d="M1920 4320C1920 4585.1 1748.08 4800 1536 4800H1920V4320Z" fill="#F8F8F8"/>
<path d="M1536 0C1748.08 0 1920 214.903 1920 480V0H1536Z" fill="#F8F8F8"/>
<path d="M9.6 4800H480V2832C426.981 2832 384 2778.27 384 2712V600C384 533.726 426.981 480 480 480V0H9.6V4800Z" fill="#64B5F6"/>
<path d="M480 480C426.981 480 384 533.726 384 600V2712C384 2778.27 426.981 2832 480 2832H1344H1440C1493.02 2832 1536 2778.27 1536 2712V600C1536 533.726 1493.02 480 1440 480H1344H480Z" fill="#25303B" fill-opacity="0.8"/>
<path fill-rule="evenodd" clip-rule="evenodd" d="M1536 0C1748.08 0 1920 214.903 1920 480V4320C1920 4585.1 1748.08 4800 1536 4800H480V2832H1344H1440C1493.02 2832 1536 2778.27 1536 2712V600C1536 533.726 1493.02 480 1440 480H1344H480V0H1536Z" fill="#F8F8F8"/>
<path d="M0 4800H9.6V0H0V4800Z" fill="#595959"/>
</svg>
