<svg width="745" height="271" viewBox="0 0 745 271" fill="none" xmlns="http://www.w3.org/2000/svg">
    <g clip-path="url(#clip0_162_4325)">
        <rect width="269" height="100" transform="translate(0 171)" fill="#25303B"/>
        <rect width="253" height="135" transform="translate(0 36)" fill="#CBD2DB"/>
        <rect width="260" height="135" transform="translate(485 36)" fill="#CBD2DB"/>
        <rect width="276" height="100" transform="translate(469 171)" fill="#25303B"/>
        <rect width="745" height="21" fill="white"/>
        <rect width="269" height="15" transform="translate(0 21)" fill="#64B5F6"/>
        <rect width="276" height="15" transform="translate(469 21)" fill="#64B5F6"/>
        <rect width="50" height="21" transform="translate(344)" fill="#64B5F6"/>
        <path d="M469 21C477.837 21 485 28.1634 485 37V171H469V21Z" fill="#25303B"/>
        <path d="M269 21C260.163 21 253 28.1634 253 37V171H269V21Z" fill="#25303B"/>
        <rect x="17" y="134" width="154" height="79" rx="17" fill="#2E2E2E"/>
        <rect x="17" y="134" width="154" height="79" rx="17" stroke="#AAAAAA" stroke-width="6"/>
        <rect x="154" y="64" width="73" height="17" rx="4" fill="#2E2E2E"/>
        <rect x="154" y="64" width="73" height="17" rx="4" stroke="#AAAAAA" stroke-width="2"/>
        <path d="M180 76.8933V69.1067H181.279L182.102 71.624C182.182 71.8516 182.254 72.0791 182.319 72.3067C182.384 72.5271 182.431 72.6978 182.46 72.8187C182.496 72.6978 182.543 72.5271 182.601 72.3067C182.658 72.0791 182.723 71.848 182.796 71.6133L183.576 69.1067H184.854V76.8933H183.901V74.0667C183.901 73.7538 183.912 73.3982 183.933 73C183.955 72.6018 183.984 72.1964 184.02 71.784C184.056 71.3644 184.092 70.9662 184.128 70.5893C184.172 70.2053 184.208 69.8711 184.237 69.5867L182.958 73.48H181.929L180.639 69.5867C180.675 69.864 180.712 70.1876 180.748 70.5573C180.784 70.92 180.816 71.3076 180.845 71.72C180.874 72.1253 180.899 72.5307 180.921 72.936C180.943 73.3413 180.954 73.7182 180.954 74.0667V76.8933H180Z"
              fill="#F9B700"/>
        <path d="M188.247 77C187.77 77 187.359 76.9111 187.012 76.7333C186.672 76.5556 186.409 76.2996 186.221 75.9653C186.04 75.624 185.95 75.2222 185.95 74.76V71.24C185.95 70.7707 186.04 70.3689 186.221 70.0347C186.409 69.7004 186.672 69.4444 187.012 69.2667C187.359 69.0889 187.77 69 188.247 69C188.724 69 189.132 69.0889 189.472 69.2667C189.818 69.4444 190.082 69.7004 190.263 70.0347C190.45 70.3689 190.544 70.7671 190.544 71.2293V74.76C190.544 75.2222 190.45 75.624 190.263 75.9653C190.082 76.2996 189.818 76.5556 189.472 76.7333C189.132 76.9111 188.724 77 188.247 77ZM188.247 76.136C188.673 76.136 188.998 76.0187 189.222 75.784C189.454 75.5422 189.569 75.2009 189.569 74.76V71.24C189.569 70.7991 189.454 70.4613 189.222 70.2267C188.998 69.9849 188.673 69.864 188.247 69.864C187.828 69.864 187.503 69.9849 187.272 70.2267C187.041 70.4613 186.925 70.7991 186.925 71.24V74.76C186.925 75.2009 187.041 75.5422 187.272 75.784C187.503 76.0187 187.828 76.136 188.247 76.136Z"
              fill="#F9B700"/>
        <path d="M191.813 76.8933V69.1067H194.36C194.851 69.1067 195.277 69.2027 195.638 69.3947C195.999 69.5796 196.278 69.8427 196.473 70.184C196.675 70.5253 196.776 70.9307 196.776 71.4C196.776 71.8622 196.675 72.2676 196.473 72.616C196.278 72.9573 195.999 73.224 195.638 73.416C195.277 73.6009 194.851 73.6933 194.36 73.6933H192.788V76.8933H191.813ZM192.788 72.8293H194.36C194.786 72.8293 195.125 72.7013 195.378 72.4453C195.638 72.1822 195.768 71.8338 195.768 71.4C195.768 70.9591 195.638 70.6107 195.378 70.3547C195.125 70.0987 194.786 69.9707 194.36 69.9707H192.788V72.8293Z"
              fill="#F9B700"/>
        <path d="M197.774 76.8933V76.0187H199.389V69.9813H197.774V69.1067H202V69.9813H200.385V76.0187H202V76.8933H197.774Z"
              fill="#F9B700"/>
        <rect x="497" y="63" width="172" height="98" rx="17" fill="#2E2E2E"/>
        <rect x="497" y="63" width="172" height="98" rx="17" stroke="#AAAAAA" stroke-width="6"/>
    </g>
    <defs>
        <clipPath id="clip0_162_4325">
            <rect width="745" height="271" fill="white"/>
        </clipPath>
    </defs>
</svg>
