<svg width="745" height="419" viewBox="0 0 745 419" fill="none" xmlns="http://www.w3.org/2000/svg">
<rect width="745" height="419" fill="#E4EBFF"/>
<path d="M247.72 189.093V188.993C247.666 186.546 248.107 184.113 249.017 181.841C249.927 179.569 251.287 177.505 253.015 175.772C254.743 174.039 256.804 172.673 259.073 171.757C261.343 170.841 263.774 170.393 266.221 170.44C268.821 170.343 271.414 170.79 273.832 171.752C276.25 172.714 278.441 174.17 280.264 176.027L276.214 180.69C274.918 179.32 273.363 178.22 271.639 177.454C269.914 176.689 268.055 176.273 266.169 176.23C259.353 176.23 254.331 181.869 254.331 188.89V188.993C254.331 196.014 259.302 201.703 266.169 201.703C268.112 201.691 270.031 201.274 271.805 200.48C273.578 199.686 275.167 198.532 276.471 197.091L280.52 201.192C278.717 203.265 276.476 204.911 273.958 206.01C271.441 207.109 268.71 207.634 265.964 207.547C263.543 207.574 261.141 207.114 258.901 206.194C256.662 205.273 254.63 203.912 252.928 202.19C251.225 200.468 249.887 198.421 248.992 196.171C248.098 193.921 247.665 191.514 247.72 189.093Z" fill="#EB0028"/>
<path d="M287.133 171.053H300.511C311.785 171.053 319.576 178.791 319.576 188.887V188.99C319.576 199.088 311.792 206.928 300.511 206.928H287.133V171.053ZM293.437 176.789V201.184H300.513C308.047 201.184 312.967 196.11 312.967 189.089V188.995C313.029 187.355 312.747 185.72 312.14 184.195C311.533 182.67 310.613 181.288 309.44 180.14C308.267 178.991 306.867 178.101 305.33 177.526C303.792 176.95 302.152 176.703 300.513 176.799L293.437 176.789Z" fill="#EB0028"/>
<path d="M325.625 189.093V188.992C325.588 186.55 326.041 184.125 326.957 181.861C327.873 179.597 329.234 177.539 330.958 175.81C332.683 174.08 334.737 172.714 336.998 171.792C339.26 170.869 341.683 170.41 344.126 170.44C349.181 170.2 354.129 171.947 357.912 175.308L353.916 180.076C351.209 177.513 347.595 176.131 343.869 176.232C337.256 176.232 332.236 182.024 332.236 188.891V188.994C332.236 196.375 337.104 201.807 344.442 201.807C347.547 201.844 350.582 200.893 353.111 199.092V192.369H343.936V186.885H359.196V201.954C355.041 205.553 349.729 207.536 344.232 207.539C341.772 207.652 339.315 207.254 337.017 206.369C334.719 205.484 332.63 204.132 330.881 202.398C329.133 200.665 327.762 198.587 326.858 196.297C325.953 194.007 325.533 191.554 325.625 189.093Z" fill="#EB0028"/>
<path d="M326.887 211.074L314.436 223.596L309.167 218.296L316.348 211.074H326.887Z" fill="#031F73"/>
<path d="M312.165 228.824L294.515 211.074H281.053L298.703 228.824L280.455 247.177H293.921L312.168 228.824" fill="#031F73"/>
<path d="M327.494 247.179L314.447 234.057L309.177 239.357L316.957 247.181L327.494 247.179Z" fill="#031F73"/>
<path d="M247.715 211.074H274.953V218.139H255.605V225.463H272.624V232.529H255.605V240.111H275.2V247.177H247.715V211.074Z" fill="#031F73"/>
<path d="M332.815 211.074H347.566C356.181 211.074 361.39 216.179 361.39 223.555V223.658C361.39 232.013 354.892 236.346 346.792 236.346H340.758V247.175H332.815V211.074ZM347.057 229.28C351.029 229.28 353.35 226.909 353.35 223.813V223.71C353.35 220.149 350.874 218.243 346.904 218.243H340.767V229.286L347.057 229.28Z" fill="#031F73"/>
<path d="M367.27 211.076H383.773C385.682 210.956 387.596 211.218 389.402 211.847C391.209 212.476 392.872 213.458 394.294 214.738C395.335 215.837 396.145 217.133 396.676 218.55C397.208 219.967 397.45 221.477 397.388 222.989V223.092C397.504 225.548 396.809 227.973 395.412 229.995C394.014 232.017 391.991 233.524 389.653 234.285L398.472 247.179H389.19L381.453 235.627H375.212V247.179H367.27V211.076ZM383.257 228.613C387.125 228.613 389.343 226.549 389.343 223.507V223.404C389.343 219.998 386.97 218.241 383.102 218.241H375.212V228.607L383.257 228.613Z" fill="#031F73"/>
<path d="M404.562 211.074H431.799V218.139H412.446V225.463H429.467V232.529H412.446V240.111H432.045V247.177H404.562V211.074Z" fill="#031F73"/>
<path d="M436.643 241.918L441.335 236.297C444.28 239.014 448.11 240.572 452.115 240.68C455.365 240.68 457.325 239.391 457.325 237.276V237.173C457.325 235.162 456.079 234.131 450.053 232.584C442.781 230.727 438.088 228.715 438.088 221.546V221.443C438.088 214.893 443.349 210.56 450.728 210.56C455.596 210.481 460.338 212.105 464.137 215.15L460.012 221.133C457.314 219.025 454.042 217.784 450.625 217.573C447.582 217.573 445.984 218.967 445.984 220.718V220.829C445.984 223.2 447.531 223.974 453.772 225.573C461.096 227.482 465.223 230.113 465.223 236.404V236.507C465.223 243.676 459.756 247.698 451.969 247.698C446.323 247.72 440.867 245.663 436.643 241.918Z" fill="#031F73"/>
<path d="M469.134 241.918L473.827 236.297C476.771 239.014 480.601 240.572 484.606 240.68C487.855 240.68 489.817 239.391 489.817 237.276V237.173C489.817 235.162 488.571 234.131 482.544 232.584C475.272 230.727 470.579 228.715 470.579 221.546V221.443C470.579 214.893 475.84 210.56 483.219 210.56C488.087 210.482 492.829 212.105 496.628 215.15L492.503 221.133C489.806 219.025 486.533 217.784 483.116 217.573C480.073 217.573 478.475 218.967 478.475 220.718V220.829C478.475 223.2 480.022 223.974 486.263 225.573C493.587 227.482 497.714 230.113 497.714 236.404V236.507C497.714 243.676 492.247 247.698 484.46 247.698C478.814 247.72 473.358 245.663 469.134 241.918Z" fill="#031F73"/>
</svg>
