<svg width="745" height="419" viewBox="0 0 745 419" fill="none" xmlns="http://www.w3.org/2000/svg">
<rect width="745" height="419" fill="#FFE2EC"/>
<path d="M373 335C442.036 335 498 279.036 498 210C498 140.964 442.036 85 373 85C303.964 85 248 140.964 248 210C248 279.036 303.964 335 373 335Z" fill="#B90845"/>
<path d="M319.386 276.094V172.023C311.325 178.399 298.572 184.591 289.752 188.524L280.747 168.239C294.629 162.436 311.325 153.625 324.448 143.686H347.52V276.094H319.386ZM405.641 279.278C390.251 279.278 378.442 275.909 368.317 269.717L378.997 249.088C386.318 254.151 393.823 257.529 404.133 257.529C414.443 257.529 427.39 251.355 427.39 235.771C427.39 226.202 421.014 213.078 396.636 212.699C389.131 212.699 380.32 212.514 375.999 212.514L381.29 143.721H450.85V165.814H403.225L401.355 190.95C402.105 190.95 403.789 191.135 405.103 191.135C441.264 192.819 455.931 213.263 455.931 233.143C455.904 258.464 435.857 279.278 405.641 279.278Z" fill="white"/>
</svg>
