<svg width="745" height="419" viewBox="0 0 745 419" fill="none" xmlns="http://www.w3.org/2000/svg">
<rect width="745" height="419" fill="#FDEAEF"/>
<path d="M373 335C442.036 335 498 279.036 498 210C498 140.964 442.036 85 373 85C303.964 85 248 140.964 248 210C248 279.036 303.964 335 373 335Z" fill="#B90845"/>
<path d="M319.386 276.094V172.023C311.325 178.399 298.572 184.591 289.752 188.524L280.747 168.239C294.629 162.436 311.325 153.625 324.448 143.686H347.52V276.094H319.386ZM405.641 279.278C390.251 279.278 378.442 275.909 368.317 269.717L378.997 249.088C386.318 254.151 393.823 257.529 404.133 257.529C414.443 257.529 427.39 251.355 427.39 235.771C427.39 226.202 421.014 213.078 396.636 212.699C389.131 212.699 380.32 212.514 375.999 212.514L381.29 143.721H450.85V165.814H403.225L401.355 190.95C402.105 190.95 403.789 191.135 405.103 191.135C441.264 192.819 455.931 213.263 455.931 233.143C455.904 258.464 435.857 279.278 405.641 279.278Z" fill="white"/>
<g clip-path="url(#clip0_147_3956)">
<path d="M373 335C442.036 335 498 279.036 498 210C498 140.964 442.036 85 373 85C303.964 85 248 140.964 248 210C248 279.036 303.964 335 373 335Z" fill="#F3A4BA"/>
<path d="M317.86 276.094V172.023C309.79 178.399 297.037 184.591 288.217 188.524L279.221 168.239C293.095 162.445 309.79 153.625 322.967 143.686H345.986V276.094H317.86ZM414.232 279.287C378.071 279.287 365.098 254.151 365.098 219.084C365.098 173.125 386.662 140.122 429.049 140.122C435.739 140.112 442.409 140.867 448.928 142.371L444.8 164.879C438.98 162.734 432.817 161.667 426.614 161.73C408.049 161.73 394.546 176.547 392.668 203.182C397.166 199.24 405.791 194.178 420.053 194.178C441.987 194.178 459.626 208.624 459.626 233.381C459.67 259.778 442.031 279.287 414.232 279.287ZM411.586 214.957C403.145 214.957 396.398 218.14 393.761 222.268C392.271 224.517 392.271 229.774 392.271 233.734C392.271 246.301 399.582 258.49 413.076 258.49C426.209 258.49 432.964 247.801 432.964 236.362C432.991 223.953 424.736 214.957 411.612 214.957H411.586Z" fill="#25303B"/>
</g>
<defs>
<clipPath id="clip0_147_3956">
<rect width="250" height="250" fill="white" transform="translate(248 85)"/>
</clipPath>
</defs>
</svg>
