<svg width="745" height="419" viewBox="0 0 745 419" fill="none" xmlns="http://www.w3.org/2000/svg">
<rect width="745" height="419" fill="#E4FFFB"/>
<path d="M373 335C442.036 335 498 279.036 498 210C498 140.964 442.036 85 373 85C303.964 85 248 140.964 248 210C248 279.036 303.964 335 373 335Z" fill="#B90845"/>
<path d="M319.386 276.094V172.023C311.325 178.399 298.572 184.591 289.752 188.524L280.747 168.239C294.629 162.436 311.325 153.625 324.448 143.686H347.52V276.094H319.386ZM405.641 279.278C390.251 279.278 378.442 275.909 368.317 269.717L378.997 249.088C386.318 254.151 393.823 257.529 404.133 257.529C414.443 257.529 427.39 251.355 427.39 235.771C427.39 226.202 421.014 213.078 396.636 212.699C389.131 212.699 380.32 212.514 375.999 212.514L381.29 143.721H450.85V165.814H403.225L401.355 190.95C402.105 190.95 403.789 191.135 405.103 191.135C441.264 192.819 455.931 213.263 455.931 233.143C455.904 258.464 435.857 279.278 405.641 279.278Z" fill="white"/>
<g clip-path="url(#clip0_147_3968)">
<path d="M373 335C442.036 335 498 279.036 498 210C498 140.964 442.036 85 373 85C303.964 85 248 140.964 248 210C248 279.036 303.964 335 373 335Z" fill="#00A88F"/>
<path d="M320.947 276.094V172.023C312.877 178.399 300.132 184.591 291.313 188.524L282.308 168.257C296.19 162.445 312.877 153.625 326.009 143.686H349.072V276.094H320.947ZM413.755 279.657C384.307 279.657 367.629 262.018 367.629 241.962C367.629 224.323 377.56 213.263 390.313 206.684C378.847 199.558 371.748 190.553 371.748 176.865C371.748 154.922 391.636 139.726 414.32 139.726C437.577 139.726 456.892 151.191 456.892 173.866C456.892 186.214 450.524 196.744 438.141 204.25C450.33 210.062 461.019 221.316 461.019 238.761C461.019 263.905 440.955 279.657 413.755 279.657ZM411.515 215.892C402.881 219.269 394.255 228.645 394.255 238.964C394.255 249.838 401.381 260.131 414.134 260.131C426.702 260.131 433.643 251.311 433.643 240.807C433.643 228.83 422.76 221.518 411.515 215.892ZM414.69 158.882C404.371 158.882 397.809 165.249 397.809 174.448C397.809 185.323 408.684 192.087 417.124 195.615C424.065 192.431 431.571 183.806 431.571 175.551C431.58 166.378 425.573 158.882 414.69 158.882Z" fill="white"/>
</g>
<defs>
<clipPath id="clip0_147_3968">
<rect width="250" height="250" fill="white" transform="translate(248 85)"/>
</clipPath>
</defs>
</svg>
