<svg width="745" height="419" viewBox="0 0 745 419" fill="none" xmlns="http://www.w3.org/2000/svg">
<rect width="745" height="419" fill="#FFE3F5"/>
<g clip-path="url(#clip0_147_3974)">
<path d="M425.49 276.901H319.411C295.46 276.901 276 257.441 276 233.49V127.411C276 103.46 295.46 84 319.411 84H425.49C449.441 84 468.901 103.46 468.901 127.411V233.49C468.901 257.441 449.441 276.901 425.49 276.901Z" fill="#C04191"/>
<path d="M339.755 231.449V129.249H402.967V147.62H362.277V168.577H401.47V186.2H362.277V212.941H405.076V231.313H339.755V231.449Z" fill="white"/>
</g>
<path d="M344.31 308.729C344.31 307.23 344.128 305.889 343.766 304.704C343.403 303.495 342.895 302.48 342.242 301.658C341.59 300.811 340.804 300.159 339.885 299.699C338.967 299.24 337.939 299.01 336.803 299.01C335.691 299.01 334.663 299.24 333.72 299.699C332.801 300.159 332.016 300.811 331.363 301.658C330.71 302.48 330.202 303.495 329.84 304.704C329.477 305.889 329.296 307.23 329.296 308.729C329.296 310.156 329.477 311.486 329.84 312.719C330.202 313.927 330.71 314.979 331.363 315.874C332.016 316.768 332.801 317.469 333.72 317.977C334.639 318.485 335.666 318.739 336.803 318.739C337.939 318.739 338.967 318.485 339.885 317.977C340.804 317.469 341.59 316.768 342.242 315.874C342.895 314.979 343.403 313.927 343.766 312.719C344.128 311.486 344.31 310.156 344.31 308.729ZM349.604 308.548C349.604 310.531 349.302 312.368 348.698 314.06C348.093 315.729 347.223 317.179 346.087 318.412C344.974 319.645 343.608 320.612 341.989 321.313C340.393 321.99 338.58 322.329 336.549 322.329C334.711 322.329 333.019 322.015 331.472 321.386C329.949 320.757 328.631 319.863 327.519 318.702C326.407 317.542 325.536 316.14 324.908 314.496C324.303 312.852 324.001 311.002 324.001 308.947C324.001 306.795 324.315 304.885 324.944 303.217C325.597 301.549 326.503 300.134 327.664 298.974C328.824 297.813 330.202 296.931 331.798 296.327C333.394 295.722 335.147 295.42 337.057 295.42C338.918 295.42 340.623 295.722 342.17 296.327C343.717 296.931 345.035 297.801 346.123 298.938C347.235 300.074 348.093 301.452 348.698 303.072C349.302 304.692 349.604 306.517 349.604 308.548Z" fill="#C04191"/>
<path d="M364.611 321.894V318.557H364.539C364.079 319.621 363.39 320.516 362.472 321.241C361.553 321.966 360.441 322.329 359.135 322.329C357.83 322.329 356.766 322.123 355.944 321.712C355.122 321.301 354.469 320.757 353.985 320.08C353.526 319.379 353.212 318.581 353.043 317.687C352.873 316.768 352.789 315.825 352.789 314.858V303.761H357.612V314.749C357.612 315.741 357.805 316.587 358.192 317.288C358.579 317.965 359.329 318.303 360.441 318.303C361.408 318.303 362.169 318.086 362.725 317.651C363.281 317.215 363.705 316.635 363.995 315.91C364.236 315.354 364.394 314.786 364.466 314.205C364.563 313.601 364.611 312.997 364.611 312.392V303.761H369.434V321.894H364.611Z" fill="#C04191"/>
<path d="M389.726 313.263H377.504C377.504 314.979 377.915 316.321 378.737 317.288C379.559 318.255 380.877 318.739 382.69 318.739C383.657 318.739 384.515 318.642 385.265 318.448C386.039 318.255 386.849 317.953 387.695 317.542L388.928 320.987C387.646 321.543 386.498 321.906 385.483 322.075C384.467 322.244 383.391 322.329 382.255 322.329C380.78 322.329 379.45 322.123 378.266 321.712C377.081 321.277 376.078 320.661 375.256 319.863C374.434 319.065 373.805 318.098 373.37 316.962C372.935 315.801 372.717 314.483 372.717 313.009C372.717 311.631 372.91 310.349 373.297 309.165C373.708 307.98 374.301 306.964 375.074 306.118C375.872 305.248 376.851 304.571 378.012 304.087C379.196 303.58 380.562 303.326 382.11 303.326C383.488 303.326 384.66 303.543 385.628 303.979C386.595 304.414 387.38 305.006 387.985 305.756C388.589 306.481 389.024 307.339 389.29 308.33C389.58 309.322 389.726 310.385 389.726 311.522V313.263ZM385.047 310.216C385.047 309.805 384.987 309.394 384.866 308.983C384.745 308.548 384.564 308.161 384.322 307.823C384.08 307.484 383.766 307.206 383.379 306.989C382.992 306.771 382.533 306.662 382.001 306.662C380.841 306.662 379.91 306.989 379.209 307.641C378.507 308.27 378.024 309.128 377.758 310.216H385.047Z" fill="#C04191"/>
<path d="M406.14 316.454C406.14 317.324 405.934 318.122 405.523 318.847C405.137 319.573 404.605 320.201 403.928 320.733C403.251 321.241 402.453 321.628 401.534 321.894C400.64 322.184 399.685 322.329 398.669 322.329C397.46 322.329 396.264 322.208 395.079 321.966C393.894 321.749 392.649 321.265 391.344 320.516L393.193 316.817C394.015 317.469 394.873 317.965 395.768 318.303C396.687 318.618 397.605 318.775 398.524 318.775C399.225 318.775 399.854 318.63 400.41 318.34C400.966 318.025 401.244 317.518 401.244 316.817C401.244 316.333 401.099 315.946 400.809 315.656C400.543 315.342 400.035 315.088 399.286 314.894L397.001 314.242C396.324 314.048 395.683 313.831 395.079 313.589C394.475 313.323 393.943 312.997 393.483 312.61C393.024 312.199 392.661 311.703 392.395 311.123C392.129 310.543 391.996 309.841 391.996 309.019C391.996 307.956 392.226 307.073 392.685 306.372C393.145 305.647 393.725 305.054 394.426 304.595C395.151 304.136 395.937 303.809 396.783 303.616C397.63 303.422 398.452 303.326 399.249 303.326C400.579 303.326 401.691 303.447 402.586 303.688C403.48 303.93 404.399 304.269 405.342 304.704L403.529 308.222C402.876 307.762 402.247 307.424 401.643 307.206C401.063 306.989 400.35 306.88 399.503 306.88C399.213 306.88 398.911 306.916 398.597 306.989C398.307 307.037 398.029 307.134 397.763 307.279C397.521 307.424 397.315 307.629 397.146 307.895C397.001 308.137 396.928 308.439 396.928 308.802C396.928 309.43 397.146 309.89 397.581 310.18C398.016 310.446 398.512 310.651 399.068 310.796L401.099 311.377C401.752 311.546 402.38 311.751 402.985 311.993C403.613 312.235 404.157 312.549 404.617 312.936C405.076 313.299 405.439 313.77 405.705 314.35C405.995 314.907 406.14 315.608 406.14 316.454Z" fill="#C04191"/>
<path d="M421.757 321.313C420.742 321.749 419.799 322.027 418.928 322.148C418.082 322.268 417.284 322.329 416.535 322.329C415.205 322.329 414.105 322.123 413.235 321.712C412.364 321.301 411.663 320.757 411.131 320.08C410.624 319.403 410.261 318.618 410.043 317.723C409.85 316.804 409.753 315.862 409.753 314.894V307.206H406.779V303.906H409.753V299.989L414.576 297.632V303.906H420.887V307.206H414.576V315.112C414.576 315.451 414.601 315.825 414.649 316.236C414.697 316.623 414.818 316.998 415.012 317.361C415.205 317.699 415.483 317.989 415.846 318.231C416.233 318.448 416.764 318.557 417.441 318.557C417.925 318.557 418.36 318.497 418.747 318.376C419.158 318.255 419.678 318.001 420.306 317.614L421.757 321.313Z" fill="#C04191"/>
<defs>
<clipPath id="clip0_147_3974">
<rect width="192.901" height="192.901" fill="white" transform="translate(276 84)"/>
</clipPath>
</defs>
</svg>
