<svg width="745" height="419" viewBox="0 0 745 419" fill="none" xmlns="http://www.w3.org/2000/svg">
<g clip-path="url(#clip0_130_7338)">
<rect width="745" height="419" fill="#CAE1FA"/>
<rect x="-41.9062" y="319.682" width="828.812" height="99.3185" fill="#616161"/>
<rect x="-41.9062" y="319.682" width="828.812" height="99.3185" fill="#616161"/>
<rect x="-41.9062" y="319.682" width="828.812" height="99.3185" fill="#616161"/>
<rect x="-41.9062" y="319.682" width="828.812" height="4.65556" fill="#DFDFDF"/>
<rect x="-41.9062" y="337.528" width="828.812" height="5.43148" fill="#F4B700"/>
<g clip-path="url(#clip1_130_7338)">
<rect width="745" height="271" transform="translate(0 49)" fill="#CBD2DB"/>
<rect width="745" height="100" transform="translate(0 220)" fill="#25303B"/>
<rect width="745" height="21" transform="translate(0 49)" fill="white"/>
<rect width="745" height="15" transform="translate(0 70)" fill="#64B5F6"/>
<rect width="50" height="21" transform="translate(344 49)" fill="#64B5F6"/>
<path d="M469 70C477.837 70 485 77.1634 485 86V220H469V70Z" fill="#25303B"/>
<path d="M269 70C260.163 70 253 77.1634 253 86V220H269V70Z" fill="#25303B"/>
<rect x="17" y="183" width="154" height="79" rx="17" fill="#2E2E2E"/>
<rect x="17" y="183" width="154" height="79" rx="17" stroke="#AAAAAA" stroke-width="6"/>
<rect x="154" y="113" width="73" height="17" rx="4" fill="#2E2E2E"/>
<rect x="154" y="113" width="73" height="17" rx="4" stroke="#AAAAAA" stroke-width="2"/>
<path d="M180.974 125.665L179 118H179.977L181.279 123.208C181.369 123.572 181.447 123.911 181.51 124.227C181.572 124.535 181.618 124.769 181.646 124.93C181.674 124.769 181.716 124.535 181.772 124.227C181.835 123.911 181.912 123.572 182.003 123.208L183.295 118H184.25L182.266 125.665H180.974Z" fill="#F9B700"/>
<path d="M185.873 125.665V124.804H187.438V118.861H185.873V118H189.968V118.861H188.404V124.804H189.968V125.665H185.873Z" fill="#F9B700"/>
<path d="M192.033 125.665V118H194.017C194.514 118 194.941 118.095 195.298 118.284C195.662 118.472 195.942 118.738 196.138 119.081C196.341 119.424 196.443 119.83 196.443 120.299V123.355C196.443 123.824 196.341 124.234 196.138 124.583C195.942 124.926 195.662 125.193 195.298 125.382C194.941 125.571 194.514 125.665 194.017 125.665H192.033ZM192.978 124.825H194.017C194.479 124.825 194.84 124.695 195.099 124.437C195.365 124.177 195.498 123.817 195.498 123.355V120.299C195.498 119.844 195.365 119.487 195.099 119.228C194.84 118.969 194.479 118.84 194.017 118.84H192.978V124.825Z" fill="#F9B700"/>
<path d="M198.413 125.665V118H202.823V118.861H199.347V121.234H202.455V122.084H199.347V124.804H202.823V125.665H198.413Z" fill="#F9B700"/>
<rect x="497" y="112" width="172" height="98" rx="17" fill="#2E2E2E"/>
<rect x="497" y="112" width="172" height="98" rx="17" stroke="#AAAAAA" stroke-width="6"/>
<rect width="204" height="190" transform="translate(268 90)" fill="#E7E7E7"/>
<rect x="269" y="70" width="200" height="20" fill="#F8F7F7"/>
<path d="M369 90H369.38V280H369V90Z" fill="#595959"/>
<path fill-rule="evenodd" clip-rule="evenodd" d="M422.2 90H388V109H422.2V90ZM388 202.1V280H422.2V202.1H388Z" fill="#F8F8F8"/>
<path d="M445 261C445 271.493 438.195 280 429.8 280H445V261Z" fill="#F8F8F8"/>
<path d="M429.8 90C438.195 90 445 98.5066 445 109V90H429.8Z" fill="#F8F8F8"/>
<path fill-rule="evenodd" clip-rule="evenodd" d="M445 109C445 98.5066 438.195 90 429.8 90H388V109H422.2H426C428.099 109 429.8 111.127 429.8 113.75V197.35C429.8 199.973 428.099 202.1 426 202.1H422.2H388V280H429.8C438.195 280 445 271.493 445 261V109ZM369.38 280V90H369V280H369.38Z" fill="#F8F8F8"/>
<path d="M369.38 280H388V202.1C385.901 202.1 384.2 199.973 384.2 197.35V113.75C384.2 111.127 385.901 109 388 109V90H369.38V280Z" fill="#64B5F6"/>
<path d="M388 109C385.901 109 384.2 111.127 384.2 113.75V197.35C384.2 199.973 385.901 202.1 388 202.1H422.2H426C428.099 202.1 429.8 199.973 429.8 197.35V113.75C429.8 111.127 428.099 109 426 109H422.2H388Z" fill="#2F3C48"/>
<path d="M369 90H368.62V280H369V90Z" fill="#595959"/>
<path fill-rule="evenodd" clip-rule="evenodd" d="M315.8 90H350V109H315.8V90ZM350 202.1V280H315.8V202.1H350Z" fill="#F8F8F8"/>
<path d="M293 261C293 271.493 299.805 280 308.2 280H293V261Z" fill="#F8F8F8"/>
<path d="M308.2 90C299.805 90 293 98.5066 293 109V90H308.2Z" fill="#F8F8F8"/>
<path fill-rule="evenodd" clip-rule="evenodd" d="M293 109C293 98.5066 299.805 90 308.2 90H350V109H315.8H312C309.901 109 308.2 111.127 308.2 113.75V197.35C308.2 199.973 309.901 202.1 312 202.1H315.8H350V280H308.2C299.805 280 293 271.493 293 261V109ZM368.62 280V90H369V280H368.62Z" fill="#F8F8F8"/>
<path d="M368.62 280H350V202.1C352.099 202.1 353.8 199.973 353.8 197.35V113.75C353.8 111.127 352.099 109 350 109V90H368.62V280Z" fill="#64B5F6"/>
<path d="M350 109C352.099 109 353.8 111.127 353.8 113.75V197.35C353.8 199.973 352.099 202.1 350 202.1H315.8H312C309.901 202.1 308.2 199.973 308.2 197.35V113.75C308.2 111.127 309.901 109 312 109H315.8H350Z" fill="#2F3C48"/>
<rect width="201" height="40" transform="translate(268 280)" fill="#C7C7C7"/>
<path d="M269 70H268.5V320H269V70Z" fill="#595959"/>
<path fill-rule="evenodd" clip-rule="evenodd" d="M199 70H244V95H199V70ZM244 217.5V320H199V217.5H244Z" fill="#F8F8F8"/>
<path d="M169 295C169 308.807 177.954 320 189 320H169V295Z" fill="#F8F8F8"/>
<path d="M189 70C177.954 70 169 81.1929 169 95V70H189Z" fill="#F8F8F8"/>
<path fill-rule="evenodd" clip-rule="evenodd" d="M169 95C169 81.1929 177.954 70 189 70H244V95H199H194C191.239 95 189 97.7982 189 101.25V211.25C189 214.702 191.239 217.5 194 217.5H199H244V320H189C177.954 320 169 308.807 169 295V95ZM268.5 320V70H269V320H268.5Z" fill="#F8F8F8"/>
<path d="M268.5 320H244V217.5C246.761 217.5 249 214.702 249 211.25V101.25C249 97.7982 246.761 95 244 95V70H268.5V320Z" fill="#64B5F6"/>
<path d="M244 95C246.761 95 249 97.7982 249 101.25V211.25C249 214.702 246.761 217.5 244 217.5H199H194C191.239 217.5 189 214.702 189 211.25V101.25C189 97.7982 191.239 95 194 95H199H244Z" fill="#25303B" fill-opacity="0.1"/>
<path d="M469 70H469.5V320H469V70Z" fill="#595959"/>
<path fill-rule="evenodd" clip-rule="evenodd" d="M539 70H494V95H539V70ZM494 217.5V320H539V217.5H494Z" fill="#F8F8F8"/>
<path d="M569 295C569 308.807 560.046 320 549 320H569V295Z" fill="#F8F8F8"/>
<path d="M549 70C560.046 70 569 81.1929 569 95V70H549Z" fill="#F8F8F8"/>
<path fill-rule="evenodd" clip-rule="evenodd" d="M569 95C569 81.1929 560.046 70 549 70H494V95H539H544C546.761 95 549 97.7982 549 101.25V211.25C549 214.702 546.761 217.5 544 217.5H539H494V320H549C560.046 320 569 308.807 569 295V95ZM469.5 320V70H469V320H469.5Z" fill="#F8F8F8"/>
<path d="M469.5 320H494V217.5C491.239 217.5 489 214.702 489 211.25V101.25C489 97.7982 491.239 95 494 95V70H469.5V320Z" fill="#64B5F6"/>
<path d="M494 95C491.239 95 489 97.7982 489 101.25V211.25C489 214.702 491.239 217.5 494 217.5H539H544C546.761 217.5 549 214.702 549 211.25V101.25C549 97.7982 546.761 95 544 95H539H494Z" fill="#25303B" fill-opacity="0.1"/>
<rect width="1" height="190" transform="translate(368.5 90)" fill="#575353"/>
</g>
<rect x="-5" y="24" width="750" height="25" fill="url(#paint0_linear_130_7338)"/>
<ellipse cx="455.4" cy="390.176" rx="8.8" ry="8.82353" fill="#D9D9D9" stroke="#85A1AD" stroke-width="5"/>
<circle cx="514.6" cy="390.2" r="8.8" fill="#D9D9D9" stroke="#85A1AD" stroke-width="5"/>
<mask id="path-18-inside-1_130_7338" fill="white">
<path d="M458.6 263C458.6 255.268 464.868 249 472.6 249H500.6C508.332 249 514.6 255.268 514.6 263V288.743C514.6 296.475 508.332 302.743 500.6 302.743H472.6C464.868 302.743 458.6 296.475 458.6 288.743V263Z"/>
</mask>
<path d="M449.6 263C449.6 250.297 459.898 240 472.6 240H500.6C513.303 240 523.6 250.297 523.6 263H505.6C505.6 260.239 503.362 258 500.6 258H472.6C469.839 258 467.6 260.239 467.6 263H449.6ZM514.6 302.743H458.6H514.6ZM472.6 302.743C459.898 302.743 449.6 292.446 449.6 279.743V263C449.6 250.297 459.898 240 472.6 240V258C469.839 258 467.6 260.239 467.6 263V288.743C467.6 296.475 469.839 302.743 472.6 302.743ZM500.6 240C513.303 240 523.6 250.297 523.6 263V279.743C523.6 292.446 513.303 302.743 500.6 302.743C503.362 302.743 505.6 296.475 505.6 288.743V263C505.6 260.239 503.362 258 500.6 258V240Z" fill="#85A1AD" mask="url(#path-18-inside-1_130_7338)"/>
<rect x="435" y="279.877" width="100" height="105.091" rx="12" fill="#85A1AD" stroke="#85A1AD" stroke-width="4"/>
<g clip-path="url(#clip2_130_7338)">
<path d="M503.217 309.929C502.185 308.92 500.829 308.358 499.422 308.358C498.671 308.359 497.928 308.519 497.238 308.83C496.547 309.14 495.923 309.594 495.403 310.165L495.401 310.163L495.399 310.165C494.878 309.594 494.254 309.14 493.564 308.83C492.874 308.519 492.131 308.359 491.38 308.358C489.9 308.358 488.481 308.978 487.435 310.082C486.389 311.186 485.801 312.683 485.801 314.244C485.801 315.036 485.953 315.819 486.248 316.548C486.542 317.276 486.973 317.934 487.514 318.483L487.511 318.486L495.401 326.808L503.29 318.485L503.29 318.484C503.831 317.935 504.261 317.277 504.555 316.548C504.849 315.819 505.001 315.035 505.001 314.243C505.001 313.433 504.843 312.632 504.536 311.89C504.229 311.147 503.78 310.48 503.217 309.929L503.217 309.929Z" fill="#FF0000"/>
</g>
<path d="M465 326.005V323.148H468.164V312.819H465V309.963H474.6V312.819H471.436V323.148H474.6V326.005H465Z" fill="#25303B"/>
<path d="M459.762 350.07V337.187H464.144C465.048 337.187 465.834 337.358 466.503 337.699C467.183 338.04 467.705 338.517 468.069 339.128C468.444 339.74 468.632 340.458 468.632 341.281C468.632 342.093 468.444 342.811 468.069 343.434C467.693 344.046 467.171 344.523 466.503 344.864C465.834 345.205 465.048 345.375 464.144 345.375H462.402V350.07H459.762ZM462.402 342.993H464.144C464.707 342.993 465.153 342.84 465.482 342.534C465.822 342.217 465.992 341.799 465.992 341.281C465.992 340.764 465.822 340.352 465.482 340.046C465.153 339.728 464.707 339.57 464.144 339.57H462.402V342.993Z" fill="#25303B"/>
<path d="M469.593 350.07L472.744 337.187H476.088L479.273 350.07H476.58L475.964 347.158H472.902L472.286 350.07H469.593ZM473.342 345.04H475.507L474.891 341.934C474.809 341.487 474.721 341.046 474.627 340.611C474.545 340.164 474.48 339.817 474.433 339.57C474.386 339.817 474.322 340.158 474.24 340.593C474.169 341.028 474.087 341.47 473.993 341.917L473.342 345.04Z" fill="#25303B"/>
<path d="M480.85 350.07V337.187H484.986C485.902 337.187 486.694 337.346 487.362 337.664C488.031 337.981 488.547 338.434 488.911 339.023C489.287 339.611 489.474 340.305 489.474 341.105C489.474 341.94 489.269 342.687 488.858 343.346C488.459 344.005 487.914 344.481 487.222 344.775L489.65 350.07H486.782L484.705 345.199H483.473V350.07H480.85ZM483.473 342.905H484.986C485.573 342.905 486.025 342.758 486.342 342.464C486.67 342.17 486.834 341.758 486.834 341.228C486.834 340.675 486.67 340.246 486.342 339.94C486.025 339.634 485.573 339.481 484.986 339.481H483.473V342.905Z" fill="#25303B"/>
<path d="M491.667 350.07V347.775H494.219V339.481H491.667V337.187H499.411V339.481H496.859V347.775H499.411V350.07H491.667Z" fill="#25303B"/>
<path d="M506.093 350.246C505.189 350.246 504.403 350.093 503.734 349.787C503.065 349.481 502.549 349.052 502.185 348.499C501.822 347.946 501.64 347.293 501.64 346.54H504.28C504.28 346.975 504.444 347.323 504.773 347.581C505.113 347.828 505.57 347.952 506.145 347.952C506.697 347.952 507.125 347.828 507.43 347.581C507.747 347.334 507.905 346.993 507.905 346.558C507.905 346.181 507.788 345.858 507.553 345.587C507.319 345.317 506.99 345.134 506.568 345.04L505.265 344.74C504.174 344.481 503.324 344.005 502.713 343.311C502.115 342.605 501.816 341.746 501.816 340.734C501.816 339.981 501.986 339.328 502.326 338.775C502.678 338.211 503.171 337.775 503.805 337.47C504.438 337.164 505.189 337.011 506.057 337.011C507.372 337.011 508.41 337.34 509.173 337.999C509.947 338.646 510.334 339.523 510.334 340.628H507.694C507.694 340.217 507.548 339.893 507.254 339.658C506.973 339.423 506.562 339.305 506.022 339.305C505.518 339.305 505.13 339.423 504.861 339.658C504.591 339.881 504.456 340.205 504.456 340.628C504.456 341.005 504.561 341.328 504.773 341.599C504.996 341.858 505.306 342.034 505.705 342.128L507.078 342.446C508.216 342.705 509.079 343.175 509.665 343.858C510.252 344.528 510.545 345.387 510.545 346.434C510.545 347.187 510.358 347.852 509.982 348.428C509.618 349.005 509.102 349.452 508.433 349.77C507.776 350.087 506.996 350.246 506.093 350.246Z" fill="#25303B"/>
</g>
<defs>
<linearGradient id="paint0_linear_130_7338" x1="370" y1="49" x2="370" y2="24" gradientUnits="userSpaceOnUse">
<stop stop-color="white"/>
<stop offset="1" stop-color="#EEEEEE"/>
</linearGradient>
<clipPath id="clip0_130_7338">
<rect width="745" height="419" fill="white"/>
</clipPath>
<clipPath id="clip1_130_7338">
<rect width="745" height="271" fill="white" transform="translate(0 49)"/>
</clipPath>
<clipPath id="clip2_130_7338">
<rect width="19.2" height="18.4492" fill="white" transform="translate(485.8 308.358)"/>
</clipPath>
</defs>
</svg>
