<svg width="745" height="419" viewBox="0 0 745 419" fill="none" xmlns="http://www.w3.org/2000/svg">
<g clip-path="url(#clip0_130_7390)">
<rect width="745" height="419" fill="#CAE1FA"/>
<g clip-path="url(#clip1_130_7390)">
<rect width="745" height="271" transform="translate(0 189)" fill="#CBD2DB"/>
<rect width="745" height="100" transform="translate(0 360)" fill="#25303B"/>
<rect width="745" height="21" transform="translate(0 189)" fill="white"/>
<rect width="745" height="15" transform="translate(0 210)" fill="#64B5F6"/>
<rect width="50" height="21" transform="translate(344 189)" fill="#64B5F6"/>
<path d="M469 210C477.837 210 485 217.163 485 226V360H469V210Z" fill="#25303B"/>
<path d="M269 210C260.163 210 253 217.163 253 226V360H269V210Z" fill="#25303B"/>
<rect x="17" y="323" width="154" height="79" rx="17" fill="#2E2E2E"/>
<rect x="17" y="323" width="154" height="79" rx="17" stroke="#AAAAAA" stroke-width="6"/>
<rect x="154" y="253" width="73" height="17" rx="4" fill="#2E2E2E"/>
<rect x="154" y="253" width="73" height="17" rx="4" stroke="#AAAAAA" stroke-width="2"/>
<path d="M180.974 265.665L179 258H179.977L181.279 263.208C181.369 263.572 181.447 263.911 181.51 264.227C181.572 264.535 181.618 264.769 181.646 264.93C181.674 264.769 181.716 264.535 181.772 264.227C181.835 263.911 181.912 263.572 182.003 263.208L183.295 258H184.25L182.266 265.665H180.974Z" fill="#F9B700"/>
<path d="M185.873 265.665V264.804H187.438V258.861H185.873V258H189.968V258.861H188.404V264.804H189.968V265.665H185.873Z" fill="#F9B700"/>
<path d="M192.033 265.665V258H194.017C194.514 258 194.941 258.095 195.298 258.284C195.662 258.472 195.942 258.738 196.138 259.081C196.341 259.424 196.443 259.83 196.443 260.299V263.355C196.443 263.824 196.341 264.234 196.138 264.583C195.942 264.926 195.662 265.193 195.298 265.382C194.941 265.571 194.514 265.665 194.017 265.665H192.033ZM192.978 264.825H194.017C194.479 264.825 194.84 264.695 195.099 264.437C195.365 264.177 195.498 263.817 195.498 263.355V260.299C195.498 259.844 195.365 259.487 195.099 259.228C194.84 258.969 194.479 258.84 194.017 258.84H192.978V264.825Z" fill="#F9B700"/>
<path d="M198.413 265.665V258H202.823V258.861H199.347V261.234H202.455V262.084H199.347V264.804H202.823V265.665H198.413Z" fill="#F9B700"/>
<rect x="497" y="252" width="172" height="98" rx="17" fill="#2E2E2E"/>
<rect x="497" y="252" width="172" height="98" rx="17" stroke="#AAAAAA" stroke-width="6"/>
<rect width="204" height="190" transform="translate(268 230)" fill="#E7E7E7"/>
<rect x="269" y="210" width="200" height="20" fill="#F8F7F7"/>
<path d="M369 230H369.38V420H369V230Z" fill="#595959"/>
<path fill-rule="evenodd" clip-rule="evenodd" d="M422.2 230H388V249H422.2V230ZM388 342.1V420H422.2V342.1H388Z" fill="#F8F8F8"/>
<path d="M445 401C445 411.493 438.195 420 429.8 420H445V401Z" fill="#F8F8F8"/>
<path d="M429.8 230C438.195 230 445 238.507 445 249V230H429.8Z" fill="#F8F8F8"/>
<path fill-rule="evenodd" clip-rule="evenodd" d="M445 249C445 238.507 438.195 230 429.8 230H388V249H422.2H426C428.099 249 429.8 251.127 429.8 253.75V337.35C429.8 339.973 428.099 342.1 426 342.1H422.2H388V420H429.8C438.195 420 445 411.493 445 401V249ZM369.38 420V230H369V420H369.38Z" fill="#F8F8F8"/>
<path d="M369.38 420H388V342.1C385.901 342.1 384.2 339.973 384.2 337.35V253.75C384.2 251.127 385.901 249 388 249V230H369.38V420Z" fill="#64B5F6"/>
<path d="M388 249C385.901 249 384.2 251.127 384.2 253.75V337.35C384.2 339.973 385.901 342.1 388 342.1H422.2H426C428.099 342.1 429.8 339.973 429.8 337.35V253.75C429.8 251.127 428.099 249 426 249H422.2H388Z" fill="#2F3C48"/>
<path d="M369 230H368.62V420H369V230Z" fill="#595959"/>
<path fill-rule="evenodd" clip-rule="evenodd" d="M315.8 230H350V249H315.8V230ZM350 342.1V420H315.8V342.1H350Z" fill="#F8F8F8"/>
<path d="M293 401C293 411.493 299.805 420 308.2 420H293V401Z" fill="#F8F8F8"/>
<path d="M308.2 230C299.805 230 293 238.507 293 249V230H308.2Z" fill="#F8F8F8"/>
<path fill-rule="evenodd" clip-rule="evenodd" d="M293 249C293 238.507 299.805 230 308.2 230H350V249H315.8H312C309.901 249 308.2 251.127 308.2 253.75V337.35C308.2 339.973 309.901 342.1 312 342.1H315.8H350V420H308.2C299.805 420 293 411.493 293 401V249ZM368.62 420V230H369V420H368.62Z" fill="#F8F8F8"/>
<path d="M368.62 420H350V342.1C352.099 342.1 353.8 339.973 353.8 337.35V253.75C353.8 251.127 352.099 249 350 249V230H368.62V420Z" fill="#64B5F6"/>
<path d="M350 249C352.099 249 353.8 251.127 353.8 253.75V337.35C353.8 339.973 352.099 342.1 350 342.1H315.8H312C309.901 342.1 308.2 339.973 308.2 337.35V253.75C308.2 251.127 309.901 249 312 249H315.8H350Z" fill="#2F3C48"/>
<path d="M269 210H268.5V460H269V210Z" fill="#595959"/>
<path fill-rule="evenodd" clip-rule="evenodd" d="M199 210H244V235H199V210ZM244 357.5V460H199V357.5H244Z" fill="#F8F8F8"/>
<path d="M169 435C169 448.807 177.954 460 189 460H169V435Z" fill="#F8F8F8"/>
<path d="M189 210C177.954 210 169 221.193 169 235V210H189Z" fill="#F8F8F8"/>
<path fill-rule="evenodd" clip-rule="evenodd" d="M169 235C169 221.193 177.954 210 189 210H244V235H199H194C191.239 235 189 237.798 189 241.25V351.25C189 354.702 191.239 357.5 194 357.5H199H244V460H189C177.954 460 169 448.807 169 435V235ZM268.5 460V210H269V460H268.5Z" fill="#F8F8F8"/>
<path d="M268.5 460H244V357.5C246.761 357.5 249 354.702 249 351.25V241.25C249 237.798 246.761 235 244 235V210H268.5V460Z" fill="#64B5F6"/>
<path d="M244 235C246.761 235 249 237.798 249 241.25V351.25C249 354.702 246.761 357.5 244 357.5H199H194C191.239 357.5 189 354.702 189 351.25V241.25C189 237.798 191.239 235 194 235H199H244Z" fill="#25303B" fill-opacity="0.1"/>
<path d="M469 210H469.5V460H469V210Z" fill="#595959"/>
<path fill-rule="evenodd" clip-rule="evenodd" d="M539 210H494V235H539V210ZM494 357.5V460H539V357.5H494Z" fill="#F8F8F8"/>
<path d="M569 435C569 448.807 560.046 460 549 460H569V435Z" fill="#F8F8F8"/>
<path d="M549 210C560.046 210 569 221.193 569 235V210H549Z" fill="#F8F8F8"/>
<path fill-rule="evenodd" clip-rule="evenodd" d="M569 235C569 221.193 560.046 210 549 210H494V235H539H544C546.761 235 549 237.798 549 241.25V351.25C549 354.702 546.761 357.5 544 357.5H539H494V460H549C560.046 460 569 448.807 569 435V235ZM469.5 460V210H469V460H469.5Z" fill="#F8F8F8"/>
<path d="M469.5 460H494V357.5C491.239 357.5 489 354.702 489 351.25V241.25C489 237.798 491.239 235 494 235V210H469.5V460Z" fill="#64B5F6"/>
<path d="M494 235C491.239 235 489 237.798 489 241.25V351.25C489 354.702 491.239 357.5 494 357.5H539H544C546.761 357.5 549 354.702 549 351.25V241.25C549 237.798 546.761 235 544 235H539H494Z" fill="#25303B" fill-opacity="0.1"/>
<rect width="1" height="190" transform="translate(368.5 230)" fill="#575353"/>
<rect x="269" y="210" width="200" height="250" fill="black" fill-opacity="0.6"/>
</g>
<rect x="-5" y="164" width="750" height="25" fill="url(#paint0_linear_130_7390)"/>
<rect x="38" y="47" width="2" height="37" fill="#8C8C8C"/>
<rect x="38" y="47" width="2" height="37" stroke="#8C8C8C"/>
<rect x="118" y="48" width="2" height="36" fill="#8C8C8C"/>
<rect x="118" y="48" width="2" height="36" stroke="#8C8C8C"/>
<rect x="198" y="49" width="2" height="35" fill="#8C8C8C"/>
<rect x="198" y="49" width="2" height="35" stroke="#8C8C8C"/>
<rect x="278" y="49" width="2" height="35" fill="#8C8C8C"/>
<rect x="278" y="49" width="2" height="35" stroke="#8C8C8C"/>
<path d="M530 308.5C540 158 635.001 85 676.501 85H878.001" stroke="url(#paint1_linear_130_7390)" stroke-width="4"/>
<rect x="358" y="50" width="2" height="34" fill="#8C8C8C"/>
<rect x="358" y="50" width="2" height="34" stroke="#8C8C8C"/>
<path d="M522 234C528.308 219.584 534.837 216.928 548.809 216.42L548.2 218.325C535.942 217.908 530 221 523 234L522 234Z" fill="#8C8C8C"/>
<path d="M522 234C528.308 219.584 534.837 216.928 548.809 216.42L548.2 218.325C535.942 217.908 530 221 523 234L522 234Z" stroke="#8C8C8C"/>
<rect x="518" y="50" width="2" height="34" fill="#8C8C8C"/>
<rect x="518" y="50" width="2" height="34" stroke="#8C8C8C"/>
<rect x="598" y="49" width="2" height="35" fill="#8C8C8C"/>
<rect x="598" y="49" width="2" height="35" stroke="#8C8C8C"/>
<rect x="678" y="48" width="2" height="36" fill="#8C8C8C"/>
<rect x="678" y="48" width="2" height="36" stroke="#8C8C8C"/>
<path d="M-84 45C290.924 51.7514 501.056 51.6653 876 45" stroke="#8C8C8C" stroke-width="3"/>
<path d="M-82 85H363C380.5 85 392 88 404 103.5" stroke="url(#paint2_linear_130_7390)" stroke-width="4"/>
<path d="M665.406 131.149C665.755 131.187 666.097 131.237 666.39 131.384C666.979 131.68 667.568 131.976 668.157 132.272C687.878 142.183 707.597 152.099 727.317 162.013C728.412 162.563 729.508 163.113 730.603 163.664C730.148 164.554 729.693 165.446 729.238 166.336C728.15 165.77 727.062 165.204 725.974 164.638C706.394 154.451 686.812 144.268 667.234 134.078C666.653 133.776 666.072 133.473 665.492 133.171L668 192.479L667.5 192.5L667 192.521L664.448 132.209C664.438 132.198 664.428 132.187 664.417 132.176L568.651 161.479L568.358 160.521L664.644 131.061C664.645 131.058 664.647 131.057 664.648 131.055C664.651 131.055 664.655 131.055 664.659 131.056L664.774 131.021L665.393 130.833L665.406 131.149Z" fill="#606060"/>
<path d="M665.887 215.027C663.769 218.368 644.843 217.654 635.014 211.061L564.434 163.731L564.434 163.737C554.604 157.144 546.763 139.902 549.052 136.676C548.592 140.568 555.839 154.405 566.105 161.246L566.106 161.245L636.685 208.569C646.908 215.473 662.459 216.929 665.887 215.027Z" fill="#383838"/>
<path d="M669.157 209.772C667.039 213.113 648.113 212.399 638.283 205.806L567.704 158.476L567.703 158.482C557.874 151.889 550.033 134.647 552.321 131.421C551.862 135.313 559.109 149.15 569.375 155.991L569.376 155.99L639.954 203.314C650.178 210.218 665.729 211.674 669.157 209.772Z" fill="#383838"/>
<path d="M634.788 202.573L635.618 203.13L632.833 207.282L632.002 206.725L634.788 202.573Z" fill="#383838"/>
<path d="M569.18 158.565L570.011 159.122L567.225 163.275L566.395 162.718L569.18 158.565Z" fill="#383838"/>
</g>
<defs>
<linearGradient id="paint0_linear_130_7390" x1="370" y1="189" x2="370" y2="164" gradientUnits="userSpaceOnUse">
<stop stop-color="white"/>
<stop offset="1" stop-color="#EEEEEE"/>
</linearGradient>
<linearGradient id="paint1_linear_130_7390" x1="-82.0004" y1="85.5" x2="878" y2="85.5" gradientUnits="userSpaceOnUse">
<stop offset="0.9999" stop-color="#8D8D8D"/>
<stop offset="1" stop-color="#020202"/>
</linearGradient>
<linearGradient id="paint2_linear_130_7390" x1="-82" y1="85.5" x2="878" y2="85.5" gradientUnits="userSpaceOnUse">
<stop offset="0.9999" stop-color="#8D8D8D"/>
<stop offset="1" stop-color="#020202"/>
</linearGradient>
<clipPath id="clip0_130_7390">
<rect width="745" height="419" fill="white"/>
</clipPath>
<clipPath id="clip1_130_7390">
<rect width="745" height="271" fill="white" transform="translate(0 189)"/>
</clipPath>
</defs>
</svg>
