<svg width="745" height="419" viewBox="0 0 745 419" fill="none" xmlns="http://www.w3.org/2000/svg">
<g clip-path="url(#clip0_130_7345)">
<rect width="745" height="419" fill="#CAE1FA"/>
<rect x="-41.9062" y="319.681" width="828.812" height="99.3185" fill="#616161"/>
<rect x="-41.9062" y="319.681" width="828.812" height="99.3185" fill="#616161"/>
<rect x="-41.9062" y="319.681" width="828.812" height="99.3185" fill="#616161"/>
<rect x="-41.9062" y="319.681" width="828.812" height="4.65556" fill="#DFDFDF"/>
<rect x="-41.9062" y="337.528" width="828.812" height="5.43148" fill="#F4B700"/>
<g clip-path="url(#clip1_130_7345)">
<rect width="745" height="271" transform="translate(0 49)" fill="#CBD2DB"/>
<rect width="745" height="100" transform="translate(0 220)" fill="#25303B"/>
<rect width="745" height="21" transform="translate(0 49)" fill="white"/>
<rect width="745" height="15" transform="translate(0 70)" fill="#64B5F6"/>
<rect width="50" height="21" transform="translate(344 49)" fill="#64B5F6"/>
<path d="M469 70C477.837 70 485 77.1634 485 86V220H469V70Z" fill="#25303B"/>
<path d="M269 70C260.163 70 253 77.1634 253 86V220H269V70Z" fill="#25303B"/>
<rect x="17" y="183" width="154" height="79" rx="17" fill="#2E2E2E"/>
<rect x="17" y="183" width="154" height="79" rx="17" stroke="#AAAAAA" stroke-width="6"/>
<rect x="154" y="113" width="73" height="17" rx="4" fill="#2E2E2E"/>
<rect x="154" y="113" width="73" height="17" rx="4" stroke="#AAAAAA" stroke-width="2"/>
<path d="M180.974 125.665L179 118H179.977L181.279 123.208C181.369 123.572 181.447 123.911 181.51 124.227C181.572 124.535 181.618 124.769 181.646 124.93C181.674 124.769 181.716 124.535 181.772 124.227C181.835 123.911 181.912 123.572 182.003 123.208L183.295 118H184.25L182.266 125.665H180.974Z" fill="#F9B700"/>
<path d="M185.873 125.665V124.804H187.438V118.861H185.873V118H189.968V118.861H188.404V124.804H189.968V125.665H185.873Z" fill="#F9B700"/>
<path d="M192.033 125.665V118H194.017C194.514 118 194.941 118.095 195.298 118.284C195.662 118.472 195.942 118.738 196.138 119.081C196.341 119.424 196.443 119.83 196.443 120.299V123.355C196.443 123.824 196.341 124.234 196.138 124.583C195.942 124.926 195.662 125.193 195.298 125.382C194.941 125.571 194.514 125.665 194.017 125.665H192.033ZM192.978 124.825H194.017C194.479 124.825 194.84 124.695 195.099 124.437C195.365 124.177 195.498 123.817 195.498 123.355V120.299C195.498 119.844 195.365 119.487 195.099 119.228C194.84 118.969 194.479 118.84 194.017 118.84H192.978V124.825Z" fill="#F9B700"/>
<path d="M198.413 125.665V118H202.823V118.861H199.347V121.234H202.455V122.084H199.347V124.804H202.823V125.665H198.413Z" fill="#F9B700"/>
<rect x="497" y="112" width="172" height="98" rx="17" fill="#2E2E2E"/>
<rect x="497" y="112" width="172" height="98" rx="17" stroke="#AAAAAA" stroke-width="6"/>
<rect width="204" height="190" transform="translate(268 90)" fill="#E7E7E7"/>
<rect x="269" y="70" width="200" height="20" fill="#F8F7F7"/>
<path d="M369 90H369.38V280H369V90Z" fill="#595959"/>
<path fill-rule="evenodd" clip-rule="evenodd" d="M422.2 90H388V109H422.2V90ZM388 202.1V280H422.2V202.1H388Z" fill="#F8F8F8"/>
<path d="M445 261C445 271.493 438.195 280 429.8 280H445V261Z" fill="#F8F8F8"/>
<path d="M429.8 90C438.195 90 445 98.5066 445 109V90H429.8Z" fill="#F8F8F8"/>
<path fill-rule="evenodd" clip-rule="evenodd" d="M445 109C445 98.5066 438.195 90 429.8 90H388V109H422.2H426C428.099 109 429.8 111.127 429.8 113.75V197.35C429.8 199.973 428.099 202.1 426 202.1H422.2H388V280H429.8C438.195 280 445 271.493 445 261V109ZM369.38 280V90H369V280H369.38Z" fill="#F8F8F8"/>
<path d="M369.38 280H388V202.1C385.901 202.1 384.2 199.973 384.2 197.35V113.75C384.2 111.127 385.901 109 388 109V90H369.38V280Z" fill="#64B5F6"/>
<path d="M388 109C385.901 109 384.2 111.127 384.2 113.75V197.35C384.2 199.973 385.901 202.1 388 202.1H422.2H426C428.099 202.1 429.8 199.973 429.8 197.35V113.75C429.8 111.127 428.099 109 426 109H422.2H388Z" fill="#2F3C48"/>
<path d="M369 90H368.62V280H369V90Z" fill="#595959"/>
<path fill-rule="evenodd" clip-rule="evenodd" d="M315.8 90H350V109H315.8V90ZM350 202.1V280H315.8V202.1H350Z" fill="#F8F8F8"/>
<path d="M293 261C293 271.493 299.805 280 308.2 280H293V261Z" fill="#F8F8F8"/>
<path d="M308.2 90C299.805 90 293 98.5066 293 109V90H308.2Z" fill="#F8F8F8"/>
<path fill-rule="evenodd" clip-rule="evenodd" d="M293 109C293 98.5066 299.805 90 308.2 90H350V109H315.8H312C309.901 109 308.2 111.127 308.2 113.75V197.35C308.2 199.973 309.901 202.1 312 202.1H315.8H350V280H308.2C299.805 280 293 271.493 293 261V109ZM368.62 280V90H369V280H368.62Z" fill="#F8F8F8"/>
<path d="M368.62 280H350V202.1C352.099 202.1 353.8 199.973 353.8 197.35V113.75C353.8 111.127 352.099 109 350 109V90H368.62V280Z" fill="#64B5F6"/>
<path d="M350 109C352.099 109 353.8 111.127 353.8 113.75V197.35C353.8 199.973 352.099 202.1 350 202.1H315.8H312C309.901 202.1 308.2 199.973 308.2 197.35V113.75C308.2 111.127 309.901 109 312 109H315.8H350Z" fill="#2F3C48"/>
<rect width="201" height="40" transform="translate(268 280)" fill="#C7C7C7"/>
<path d="M269 70H268.5V320H269V70Z" fill="#595959"/>
<path fill-rule="evenodd" clip-rule="evenodd" d="M199 70H244V95H199V70ZM244 217.5V320H199V217.5H244Z" fill="#F8F8F8"/>
<path d="M169 295C169 308.807 177.954 320 189 320H169V295Z" fill="#F8F8F8"/>
<path d="M189 70C177.954 70 169 81.1929 169 95V70H189Z" fill="#F8F8F8"/>
<path fill-rule="evenodd" clip-rule="evenodd" d="M169 95C169 81.1929 177.954 70 189 70H244V95H199H194C191.239 95 189 97.7982 189 101.25V211.25C189 214.702 191.239 217.5 194 217.5H199H244V320H189C177.954 320 169 308.807 169 295V95ZM268.5 320V70H269V320H268.5Z" fill="#F8F8F8"/>
<path d="M268.5 320H244V217.5C246.761 217.5 249 214.702 249 211.25V101.25C249 97.7982 246.761 95 244 95V70H268.5V320Z" fill="#64B5F6"/>
<path d="M244 95C246.761 95 249 97.7982 249 101.25V211.25C249 214.702 246.761 217.5 244 217.5H199H194C191.239 217.5 189 214.702 189 211.25V101.25C189 97.7982 191.239 95 194 95H199H244Z" fill="#25303B" fill-opacity="0.1"/>
<path d="M469 70H469.5V320H469V70Z" fill="#595959"/>
<path fill-rule="evenodd" clip-rule="evenodd" d="M539 70H494V95H539V70ZM494 217.5V320H539V217.5H494Z" fill="#F8F8F8"/>
<path d="M569 295C569 308.807 560.046 320 549 320H569V295Z" fill="#F8F8F8"/>
<path d="M549 70C560.046 70 569 81.1929 569 95V70H549Z" fill="#F8F8F8"/>
<path fill-rule="evenodd" clip-rule="evenodd" d="M569 95C569 81.1929 560.046 70 549 70H494V95H539H544C546.761 95 549 97.7982 549 101.25V211.25C549 214.702 546.761 217.5 544 217.5H539H494V320H549C560.046 320 569 308.807 569 295V95ZM469.5 320V70H469V320H469.5Z" fill="#F8F8F8"/>
<path d="M469.5 320H494V217.5C491.239 217.5 489 214.702 489 211.25V101.25C489 97.7982 491.239 95 494 95V70H469.5V320Z" fill="#64B5F6"/>
<path d="M494 95C491.239 95 489 97.7982 489 101.25V211.25C489 214.702 491.239 217.5 494 217.5H539H544C546.761 217.5 549 214.702 549 211.25V101.25C549 97.7982 546.761 95 544 95H539H494Z" fill="#25303B" fill-opacity="0.1"/>
<rect width="1" height="190" transform="translate(368.5 90)" fill="#575353"/>
<rect x="269" y="70" width="200" height="250" fill="black" fill-opacity="0.6"/>
</g>
<rect x="-5" y="24" width="750" height="25" fill="url(#paint0_linear_130_7345)"/>
<path d="M499.631 384.429C499.631 384.429 506.594 382.377 513.779 385.29C520.964 388.203 527.491 391.206 528.129 392.56C528.767 393.914 522.413 393.949 522.413 393.949L501.126 390.555L496.819 388.941L499.631 384.429Z" fill="#E09C5F"/>
<path d="M482.871 345.234C482.871 345.234 481.13 326.4 481.01 320.134C464.916 321.298 422.887 327.327 422.887 327.327C422.887 327.327 419.902 322.595 419.721 325.633C415.976 322.175 415.103 322.558 415.103 322.558L428.989 384.648L502.896 394.277L502.902 389.951L498.04 388.187L499.771 384.098L481.202 376.407L484.889 370.301L484.253 356.775L482.871 345.234Z" fill="#C8DF93"/>
<path d="M481.204 376.406L474.005 373.529L466.836 370.579C462.051 368.624 457.308 366.573 452.55 364.555L452.058 364.347L452.344 363.875C454.148 360.886 455.975 357.911 457.825 354.951L463.35 346.054C467.086 340.157 470.813 334.253 474.659 328.426C471.196 334.499 467.613 340.494 464.039 346.495L458.599 355.446C456.795 358.436 454.968 361.411 453.117 364.37L452.91 363.69C457.643 365.767 462.39 367.81 467.098 369.95L474.166 373.141L481.204 376.406Z" fill="#3C5671"/>
<path d="M455.023 325.74L444.217 348.915L438.943 360.556C437.229 364.448 435.493 368.355 434.083 372.338L433.747 371.729C439.165 372.887 444.536 374.198 449.904 375.536L465.991 379.589C476.692 382.384 487.388 385.2 498.039 388.186C487.274 385.652 476.537 383.005 465.792 380.4L449.685 376.447L441.62 374.524C438.935 373.874 436.246 373.244 433.554 372.645L433.039 372.531L433.218 372.035C434.681 367.98 436.438 364.098 438.179 360.2C439.93 356.308 441.774 352.464 443.617 348.621C445.474 344.784 447.327 340.946 449.238 337.138C451.149 333.33 453.057 329.52 455.023 325.74Z" fill="#3C5671"/>
<path d="M495.678 344.621L482.871 345.234L477.348 355.829L484.254 356.774L495.715 351.484L495.678 344.621Z" fill="#D39053"/>
<path d="M516.59 331.907L540.155 324.673L539.69 327.373C539.69 327.373 540.752 326.849 542.812 327.653C544.872 328.457 544.314 330.065 540.609 328.87C550.874 337.265 553.61 347.814 554.5 354.526C555.39 361.238 553.179 361.614 550.536 352.157C552.512 368.607 545.398 373.75 546.613 366.889C542.771 371.136 538.057 367.772 537.721 359.031C537.384 350.29 536.93 330.197 536.93 330.197L514.836 335.612L516.59 331.907L516.59 331.907Z" fill="#1B1A1B"/>
<path d="M541.033 361.916C541.033 361.916 521.198 364.71 512.657 364.274C504.116 363.838 493.47 358.392 493.47 358.392L487.145 342.105L513.489 333.729L536.928 330.198C536.928 330.198 544.34 356.222 541.033 361.916Z" fill="#F2B472"/>
<path d="M516.295 335.108C516.295 335.108 519.623 331.516 517.694 327.429C515.763 323.342 505.004 330.599 507.094 334.346C509.184 338.094 516.295 335.108 516.295 335.108Z" fill="#F2B472"/>
<path d="M525.534 353.039C524.126 353.956 522.702 354.845 521.266 355.71C519.823 356.563 518.392 357.44 516.94 358.275C515.491 359.116 514.033 359.942 512.568 360.754C511.109 361.578 509.631 362.365 508.162 363.168L507.369 363.6L507.481 362.695C507.737 360.626 508.02 358.561 508.33 356.499C508.619 354.435 508.959 352.377 509.333 350.323C509.243 352.413 509.117 354.499 508.941 356.578C508.786 358.66 508.604 360.738 508.394 362.813L507.714 362.34C509.177 361.525 510.631 360.691 512.105 359.896C513.573 359.09 515.048 358.296 516.531 357.518C518.011 356.734 519.512 355.991 521.002 355.225C522.5 354.471 524.009 353.741 525.534 353.039Z" fill="#D18B4B"/>
<path d="M498.444 357.316C499.856 355.849 500.41 353.978 500.434 352.102C500.488 351.159 500.343 350.211 500.228 349.251L499.962 347.811C499.854 347.331 499.743 346.849 499.67 346.343C499.942 346.762 500.175 347.204 500.412 347.65C500.617 348.107 500.791 348.582 500.963 349.06C501.24 350.037 501.44 351.057 501.4 352.11C501.366 353.151 501.156 354.224 500.645 355.165C500.146 356.095 499.391 356.924 498.444 357.316Z" fill="#D18B4B"/>
<path d="M513.895 329.217C514.517 329.514 515.017 330.13 515.232 330.857C515.439 331.586 515.37 332.39 515.115 333.071C514.887 333.773 514.499 334.385 514.084 334.949C513.653 335.505 513.171 336 512.663 336.463L512.059 337.014L511.939 336.204C511.894 335.907 511.868 335.601 511.802 335.324C511.737 335.062 511.63 334.771 511.524 334.714C511.44 334.633 511.145 334.72 510.917 334.91C510.679 335.09 510.454 335.316 510.239 335.556C510.342 335.246 510.479 334.946 510.679 334.671C510.785 334.536 510.896 334.401 511.061 334.291C511.211 334.173 511.462 334.104 511.716 334.173C512.228 334.364 512.35 334.775 512.503 335.088C512.643 335.421 512.718 335.75 512.791 336.084L512.066 335.826C512.492 335.329 512.938 334.86 513.315 334.341C513.52 334.094 513.677 333.821 513.862 333.563C514.004 333.288 514.179 333.021 514.296 332.739C514.558 332.177 514.694 331.581 514.655 330.969C514.591 330.364 514.351 329.74 513.895 329.217Z" fill="#D18B4B"/>
<path d="M523.925 350.169C523.346 350.131 522.784 349.771 522.427 349.238C522.051 348.704 521.948 348.013 522.011 347.403C522.029 347.087 522.134 346.807 522.205 346.514C522.333 346.249 522.426 345.966 522.586 345.726C522.882 345.232 523.261 344.804 523.714 344.456C523.598 345.034 523.422 345.541 523.278 346.047C523.145 346.553 523.005 347.039 522.974 347.514C522.849 348.459 523.098 349.337 523.925 350.169Z" fill="#28242C"/>
<path d="M523.904 356.357C523.968 357.31 523.88 358.151 523.965 358.9C523.997 359.271 524.078 359.59 524.252 359.862C524.437 360.136 524.774 360.344 525.196 360.594C524.764 360.752 524.212 360.764 523.74 360.423C523.264 360.078 523.061 359.495 523.004 358.997C522.962 358.484 523.028 358 523.185 357.555C523.338 357.11 523.564 356.696 523.904 356.357Z" fill="#28242C"/>
<path d="M530.03 348.461L529.277 346.451C529.014 345.802 528.768 345.155 528.475 344.527C528.196 343.893 527.903 343.265 527.592 342.637C527.29 342.001 526.953 341.382 526.661 340.694C527.862 341.547 528.746 342.787 529.354 344.132C529.648 344.811 529.873 345.522 529.999 346.252C530.126 346.978 530.175 347.729 530.03 348.461Z" fill="#333135"/>
<path d="M530.093 354.568C530.595 354.92 530.922 355.488 531.11 356.08C531.304 356.679 531.328 357.32 531.258 357.937C531.171 358.554 530.965 359.136 530.678 359.664C530.537 359.927 530.352 360.166 530.181 360.405C529.979 360.624 529.777 360.84 529.544 361.026C529.596 360.719 529.681 360.445 529.76 360.172C529.825 359.893 529.906 359.626 529.977 359.362C530.1 358.828 530.24 358.314 530.297 357.791C530.435 356.748 530.417 355.724 530.093 354.568Z" fill="#333135"/>
<path d="M335.87 356.548L325.437 355.121C325.437 355.121 315.39 359.038 306.945 363.05C298.5 367.061 290.439 381.388 295.496 382.463C300.553 383.539 301.576 382.623 301.576 382.623C301.576 382.623 296.585 386.309 301.947 387.778C307.309 389.247 340.657 377.014 340.657 377.014C340.657 377.014 344.343 360.491 335.87 356.548Z" fill="#CAC6B8"/>
<path d="M415.103 322.557C415.103 322.557 393.955 306.824 381.129 313.696C368.302 320.568 374.754 345.51 374.754 345.51L336.88 354.295C336.88 354.295 331.181 364.53 338.917 367.139C336.553 371.478 341.854 378.949 341.854 378.949C341.854 378.949 414.314 389.104 422.732 388.577C431.15 388.05 439.38 381.505 434.208 373.09C429.036 364.675 427.472 363.164 427.472 363.164C427.472 363.164 433.257 354.157 427.921 345.096C422.585 336.036 417.65 333.948 417.65 333.948L415.103 322.557Z" fill="#B8926C"/>
<path d="M502.9 390.503C502.9 390.503 511.266 389.099 518.039 391.259C524.813 393.42 533.907 397.287 533.907 397.287C533.907 397.287 536.943 399.276 527.773 398.16C518.602 397.044 502.895 394.276 502.895 394.276L502.9 390.503Z" fill="#F2B472"/>
<path d="M338.917 367.139C338.532 367.065 338.145 367.18 337.766 367.239C337.386 367.321 337.006 367.402 336.629 367.5C335.873 367.691 335.123 367.902 334.375 368.125C332.878 368.561 331.38 369.003 329.897 369.478L329.962 369.451C327.693 370.759 325.367 371.946 323.057 373.167C320.747 374.391 318.405 375.548 316.054 376.685C313.699 377.814 311.32 378.895 308.911 379.902C306.511 380.926 304.075 381.882 301.577 382.625C303.978 381.603 306.315 380.451 308.663 379.323L315.66 375.832L329.642 368.817L329.683 368.796L329.708 368.79C331.227 368.399 332.741 368.011 334.274 367.69C335.041 367.532 335.811 367.387 336.584 367.261C337.351 367.156 338.145 366.977 338.917 367.139Z" fill="#9D9372"/>
<path d="M427.473 363.163C425.979 364.291 424.23 365 422.492 365.635C420.745 366.275 418.945 366.726 417.143 367.163C413.52 367.944 409.843 368.438 406.157 368.724C402.473 369.04 398.771 369.102 395.087 369.111C391.402 369.126 387.717 369.106 384.033 369.079C376.667 368.954 369.301 368.811 361.939 368.553L350.898 368.123C347.219 367.936 343.541 367.774 339.865 367.536L350.915 367.638L361.961 367.793C369.325 367.894 376.688 368.044 384.051 368.092C387.732 368.148 391.413 368.198 395.094 368.213C396.936 368.238 398.77 368.201 400.608 368.182C401.526 368.185 402.442 368.113 403.361 368.091C404.278 368.058 405.197 368.041 406.112 367.968C409.78 367.776 413.44 367.367 417.054 366.69C418.855 366.328 420.66 365.952 422.415 365.387C424.16 364.818 425.924 364.202 427.473 363.163Z" fill="#00205B"/>
<path d="M374.754 345.51C376.787 344.675 378.883 344.005 381.005 343.455C383.128 342.897 385.282 342.465 387.458 342.171C389.634 341.896 391.833 341.702 394.034 341.813C396.226 341.905 398.443 342.225 400.477 343.051C398.336 342.597 396.174 342.549 394.024 342.585C391.871 342.631 389.719 342.863 387.577 343.151C385.432 343.422 383.296 343.807 381.161 344.207C379.03 344.625 376.892 345.04 374.754 345.51Z" fill="#00205B"/>
<path d="M417.65 333.947C414.41 331.92 411.331 329.68 408.271 327.415C406.751 326.269 405.232 325.124 403.732 323.949C402.223 322.788 400.747 321.583 399.25 320.388C400.951 321.258 402.583 322.258 404.168 323.316C405.761 324.366 407.31 325.48 408.843 326.615C411.889 328.911 414.87 331.298 417.65 333.947Z" fill="#00205B"/>
</g>
<defs>
<linearGradient id="paint0_linear_130_7345" x1="370" y1="49" x2="370" y2="24" gradientUnits="userSpaceOnUse">
<stop stop-color="white"/>
<stop offset="1" stop-color="#EEEEEE"/>
</linearGradient>
<clipPath id="clip0_130_7345">
<rect width="745" height="419" fill="white"/>
</clipPath>
<clipPath id="clip1_130_7345">
<rect width="745" height="271" fill="white" transform="translate(0 49)"/>
</clipPath>
</defs>
</svg>
