<svg width="745" height="419" viewBox="0 0 745 419" fill="none" xmlns="http://www.w3.org/2000/svg">
<g clip-path="url(#clip0_130_6926)">
<rect width="745" height="419" fill="#CAE1FA"/>
<rect x="-41.9062" y="319.682" width="828.812" height="99.3185" fill="#616161"/>
<rect x="-41.9062" y="319.682" width="828.812" height="99.3185" fill="#616161"/>
<rect x="-41.9062" y="319.682" width="828.812" height="99.3185" fill="#616161"/>
<rect x="-41.9062" y="319.682" width="828.812" height="4.65556" fill="#DFDFDF"/>
<rect x="-41.9062" y="337.528" width="828.812" height="5.43148" fill="#F4B700"/>
<g clip-path="url(#clip1_130_6926)">
<rect width="745" height="271" transform="translate(0 49)" fill="#CBD2DB"/>
<rect width="745" height="100" transform="translate(0 220)" fill="#25303B"/>
<rect width="745" height="21" transform="translate(0 49)" fill="white"/>
<rect width="745" height="15" transform="translate(0 70)" fill="#64B5F6"/>
<path d="M469 70C477.837 70 485 77.1634 485 86V220H469V70Z" fill="#25303B"/>
<rect width="50" height="21" transform="translate(344 49)" fill="#64B5F6"/>
<path d="M322.937 107.554C322.937 107.554 331.615 100.946 336.603 110.297C341.591 119.649 338.199 131.993 341.79 135.484C345.381 138.976 341.89 142.093 341.89 142.093C341.89 142.093 345.082 146.582 340.792 149.575C336.503 152.567 326.328 147.704 326.328 147.704L322.937 107.554Z" fill="#FFE6AE"/>
<path d="M322.542 108.147C322.542 108.147 322.674 108.017 322.935 107.794C323.197 107.575 323.586 107.254 324.109 106.907C324.631 106.558 325.282 106.163 326.069 105.824C326.852 105.478 327.77 105.169 328.807 105.056C329.839 104.928 331 105.005 332.164 105.451C332.75 105.659 333.32 105.995 333.882 106.377C334.432 106.785 334.967 107.265 335.448 107.833C335.702 108.102 335.915 108.421 336.153 108.718C336.371 109.042 336.582 109.347 336.799 109.703C337.174 110.334 337.58 111.071 337.901 111.821C338.573 113.311 339.09 114.928 339.476 116.579C339.861 118.232 340.108 119.917 340.3 121.571C340.497 123.224 340.596 124.856 340.725 126.414C340.855 127.971 340.971 129.47 341.215 130.83C341.456 132.183 341.847 133.41 342.509 134.194C342.697 134.393 342.881 134.588 343.061 134.78C343.153 134.877 343.244 134.973 343.334 135.068C343.424 135.169 343.507 135.298 343.591 135.411C343.674 135.527 343.755 135.641 343.836 135.754C343.908 135.874 343.967 136.003 344.031 136.125C344.091 136.25 344.161 136.363 344.209 136.493C344.252 136.625 344.295 136.755 344.336 136.883C344.436 137.13 344.443 137.412 344.492 137.659C344.502 137.915 344.512 138.167 344.483 138.399C344.448 138.631 344.425 138.855 344.358 139.053C344.33 139.152 344.302 139.25 344.275 139.345C344.238 139.435 344.203 139.522 344.169 139.607C343.887 140.283 343.548 140.7 343.322 140.974C343.09 141.244 342.951 141.364 342.951 141.364C342.951 141.364 343.077 141.222 343.277 140.921C343.475 140.621 343.752 140.152 343.964 139.491C344.169 138.84 344.283 137.94 343.936 137.089C343.894 136.985 343.85 136.878 343.806 136.771C343.759 136.665 343.687 136.572 343.629 136.47C343.566 136.372 343.509 136.265 343.44 136.17C343.365 136.082 343.289 135.993 343.212 135.903C343.133 135.814 343.066 135.72 342.977 135.631C342.882 135.544 342.786 135.456 342.689 135.367C342.491 135.184 342.289 134.997 342.082 134.805C341.213 133.913 340.703 132.515 340.396 131.089C340.079 129.649 339.894 128.122 339.735 126.556C339.577 124.989 339.413 123.385 339.22 121.771C339.02 120.16 338.766 118.54 338.391 116.973C338.035 115.4 337.561 113.876 336.946 112.479C336.798 112.122 336.633 111.793 336.471 111.464C336.324 111.134 336.115 110.792 335.94 110.459C335.772 110.166 335.57 109.853 335.384 109.558C335.175 109.284 334.988 108.982 334.766 108.735C334.346 108.203 333.874 107.77 333.402 107.369C332.915 107.001 332.42 106.666 331.901 106.449C331.387 106.223 330.867 106.06 330.352 105.975C329.839 105.875 329.332 105.845 328.845 105.862C327.87 105.893 326.973 106.088 326.194 106.339C325.414 106.59 324.745 106.884 324.205 107.16C323.122 107.712 322.542 108.147 322.542 108.147Z" fill="#FFE6AE"/>
<path d="M337.397 177.774C337.397 177.774 346.586 199.65 342.867 216.878C339.148 234.106 338.054 240.122 338.054 240.122C338.054 240.122 343.086 252.702 343.304 259.812C343.523 266.922 340.679 290.439 340.679 290.439C340.679 290.439 347.243 297.549 344.836 298.643C342.429 299.737 336.304 292.08 336.304 292.08C336.304 292.08 330.397 266.374 330.616 249.146C330.616 249.146 325.859 232.09 325.67 208.529C325.565 195.393 337.397 177.774 337.397 177.774Z" fill="#765E69"/>
<path d="M342.429 245.865C345.929 255.71 340.679 290.439 340.679 290.439C340.679 290.439 347.243 297.549 344.836 298.643C342.429 299.737 336.304 292.08 336.304 292.08C336.304 292.08 329.317 267.194 329.522 249.967C332.777 249.147 339.2 246.844 342.429 245.865Z" fill="#352C38"/>
<path d="M344.723 297.744C345.033 297.603 345.197 297.364 345.247 297.054C345.466 297.8 345.398 298.387 344.835 298.642C342.429 299.736 336.303 292.079 336.303 292.079C336.303 292.079 336.202 291.715 336.026 291.061C336.36 291.475 342.335 298.83 344.723 297.744Z" fill="#241E26"/>
<path opacity="0.3" d="M338.973 235.424C335.395 236.228 331.648 236.397 328.007 236.415C326.864 229.304 325.759 219.641 325.67 208.53C325.565 195.393 337.398 177.773 337.398 177.773C337.398 177.773 346.586 199.65 342.867 216.878C340.926 225.87 339.701 231.802 338.973 235.424Z" fill="#352C38"/>
<path d="M313.6 178.254C313.6 178.254 303.639 199.596 306.738 217.015C309.838 234.433 310.715 240.504 310.715 240.504C310.715 240.504 305.239 252.79 304.766 259.88C304.293 266.971 306.293 290.623 306.293 290.623C306.293 290.623 299.482 297.36 301.847 298.587C304.212 299.814 310.605 292.507 310.605 292.507C310.605 292.507 317.425 267.158 317.823 249.935C317.823 249.935 324.9 223.505 324.932 210.367C324.965 197.23 313.6 178.254 313.6 178.254Z" fill="#765E69"/>
<path opacity="0.3" d="M309.813 234.829C309.2 231.114 308.225 225.374 306.738 217.015C303.639 199.596 313.6 178.254 313.6 178.254C313.6 178.254 324.965 197.23 324.933 210.367C324.916 217.285 322.945 227.887 321.084 236.376C317.28 236.304 313.446 235.944 309.813 234.829Z" fill="#352C38"/>
<path d="M306.139 245.997C302.29 255.636 306.293 290.624 306.293 290.624C306.293 290.624 299.482 297.36 301.847 298.588C304.212 299.815 310.605 292.508 310.605 292.508C310.605 292.508 318.475 268.038 318.886 250.817C315.664 249.815 309.329 247.156 306.139 245.997Z" fill="#352C38"/>
<path d="M301.992 297.696C301.687 297.538 301.532 297.29 301.493 296.978C301.247 297.71 301.294 298.3 301.847 298.587C304.212 299.814 310.605 292.508 310.605 292.508C310.605 292.508 310.72 292.15 310.918 291.506C310.571 291.9 304.339 298.914 301.992 297.696Z" fill="#241E26"/>
<path d="M317.927 145.506L310.052 144.412C310.052 144.412 295.094 159.657 294 169.775C294 169.775 295.614 177.773 304.802 189.259L308.521 184.063L302.395 169.775L313.033 158.187L317.927 145.506Z" fill="#FC6A5A"/>
<path opacity="0.15" d="M305.449 149.547C308.044 146.46 310.052 144.411 310.052 144.411L317.928 145.505L313.033 158.187L309.486 162.05C307.981 157.962 306.708 153.765 305.449 149.547Z" fill="#352C38"/>
<path d="M330.643 145.506L339.257 144.685C339.257 144.685 353.477 159.657 354.571 169.775C354.571 169.775 352.383 177.09 343.195 188.576L340.05 184.063L346.176 169.775L335.538 158.187L330.643 145.506Z" fill="#FC6A5A"/>
<path opacity="0.15" d="M339.257 144.685C339.257 144.685 341.65 147.205 344.547 150.875C343.173 155.072 341.822 159.278 340.333 163.411L335.538 158.188L330.643 145.506L339.257 144.685Z" fill="#352C38"/>
<path d="M333.92 143.18L330.466 142.236L330.681 137.378L320.599 135.248L321.29 142.371L318.167 142.901L326.04 179.883L333.92 143.18Z" fill="#352C38"/>
<path d="M329.895 161.926L326.04 179.883L321.08 156.584C324.037 158.299 326.929 160.205 329.895 161.926Z" fill="#28212B"/>
<path d="M313.661 174.492C313.661 174.492 307.645 145.506 310.052 144.412C310.823 144.061 314.092 143.402 318.168 142.901L325.34 175.587L331.059 142.342C335.583 142.656 338.71 143.729 340.898 146.053C340.679 153.163 336.96 173.946 336.96 173.946C336.96 173.946 348.664 199.241 349.648 226.177C349.648 226.177 337.835 232.74 325.365 233.56L325.732 211.829L323.177 233.287C323.177 233.287 306.551 231.646 298.457 226.45C298.457 226.45 304.521 188.646 313.661 174.492Z" fill="#FC6A5A"/>
<path opacity="0.15" d="M298.457 226.449C298.457 226.449 302.956 198.41 310.043 181.586C316.849 198.705 332.276 207.108 347.693 208.952C348.703 214.449 349.433 220.273 349.649 226.176C349.649 226.176 337.836 232.739 325.365 233.56L325.733 211.828L323.178 233.286C323.178 233.286 306.551 231.645 298.457 226.449Z" fill="#28212B"/>
<path d="M325.366 175.586L319.416 141.1L315.68 141.734L314.065 151.189L319.6 151.996L315.726 154.706L325.366 175.586Z" fill="#FF8278"/>
<path d="M325.34 175.586L331.34 141.1L335.076 141.734L336.69 151.189L331.156 151.996L335.03 154.706L325.34 175.586Z" fill="#FF8278"/>
<path d="M343.073 195.179L331.513 198.006L332.016 201.776L344.079 198.32L343.073 195.179Z" fill="#FF8278"/>
<path d="M307.889 195.179L319.45 198.006L318.948 201.776L306.884 198.32L307.889 195.179Z" fill="#FF8278"/>
<path d="M308.042 184.847C308.042 184.847 309.276 183.304 310.605 183.66C311.935 184.016 316.397 188.289 310.605 184.728C310.605 184.728 317.822 191.493 309.561 185.678C309.561 185.678 314.688 192.086 308.896 186.983C308.896 186.983 314.024 192.799 308.421 188.289C308.421 188.289 307.472 191.256 305.668 188.645C303.864 186.034 305.478 184.016 307.662 184.966" fill="#FFA292"/>
<path d="M308.52 184.063L307.946 178.594L301.711 186.08L304.801 189.259L308.52 184.063Z" fill="#FF8278"/>
<path d="M340.529 184.847C340.529 184.847 339.295 183.304 337.966 183.66C336.636 184.016 332.174 188.289 337.966 184.728C337.966 184.728 330.749 191.493 339.01 185.678C339.01 185.678 333.883 192.086 339.675 186.983C339.675 186.983 334.547 192.799 340.15 188.289C340.15 188.289 341.099 191.256 342.903 188.645C344.707 186.034 343.093 184.016 340.909 184.966" fill="#FFA292"/>
<path d="M340.05 184.063L340.624 178.594L346.859 186.08L343.769 189.259L340.05 184.063Z" fill="#FF8278"/>
<path d="M317.384 126.197C317.384 126.197 313.473 115.953 321.434 112.897C330.703 109.339 335.331 116.028 336.098 123.218C336.864 130.409 334.799 139.975 328.78 140.793C324.445 141.382 318.737 138.318 317.384 126.197Z" fill="#FFA292"/>
<path d="M306.106 136.499C306.106 136.499 306.034 136.34 305.9 136.043C305.789 135.731 305.604 135.267 305.539 134.617C305.47 133.974 305.518 133.149 305.797 132.299C306.065 131.444 306.531 130.58 307.113 129.743C307.691 128.898 308.381 128.07 309.097 127.2C309.454 126.764 309.817 126.315 310.161 125.839C310.5 125.363 310.845 124.859 311.071 124.31C311.199 124.009 311.329 123.704 311.459 123.398C311.571 123.091 311.647 122.782 311.745 122.473C311.848 122.173 311.911 121.836 311.981 121.502C312.052 121.168 312.131 120.837 312.176 120.488C312.411 119.117 312.522 117.664 312.742 116.208C312.791 115.844 312.852 115.48 312.93 115.118C313.011 114.751 313.054 114.404 313.167 114.023C313.267 113.679 313.345 113.34 313.463 112.995C313.591 112.648 313.718 112.303 313.845 111.959C314.395 110.638 315.142 109.484 315.972 108.531L316.282 108.173L316.613 107.855C316.837 107.65 317.044 107.422 317.283 107.259C317.52 107.083 317.736 106.91 317.981 106.739C318.215 106.598 318.428 106.447 318.678 106.326C319.637 105.811 320.587 105.522 321.484 105.433C322.377 105.333 323.204 105.429 323.91 105.626C324.619 105.815 325.203 106.127 325.66 106.422C325.89 106.569 326.089 106.711 326.251 106.86C326.417 106.997 326.556 107.117 326.66 107.231C326.872 107.447 326.985 107.562 326.985 107.562C326.985 107.562 326.864 107.462 326.636 107.273C326.526 107.173 326.378 107.072 326.204 106.956C326.034 106.832 325.829 106.712 325.597 106.587C325.134 106.341 324.551 106.09 323.858 105.971C323.168 105.846 322.377 105.828 321.532 105.97C320.689 106.111 319.789 106.453 318.92 106.961C318.705 107.075 318.479 107.247 318.254 107.395C318.056 107.549 317.838 107.735 317.628 107.906C317.408 108.069 317.22 108.293 317.013 108.488L316.708 108.793L316.426 109.137C315.661 110.047 315.001 111.152 314.491 112.378C314.379 112.686 314.266 112.996 314.154 113.306C314.046 113.625 313.964 113.985 313.868 114.324C313.777 114.624 313.729 115 313.657 115.335C313.585 115.677 313.529 116.027 313.482 116.382C313.259 117.788 313.141 119.243 312.887 120.677C312.837 121.036 312.754 121.391 312.673 121.743C312.593 122.095 312.52 122.445 312.396 122.79C312.282 123.131 312.181 123.488 312.055 123.807C311.92 124.11 311.785 124.41 311.652 124.708C311.359 125.365 310.987 125.884 310.612 126.369C310.236 126.851 309.853 127.29 309.481 127.712C308.738 128.557 308.026 129.326 307.432 130.106C306.84 130.884 306.351 131.661 306.052 132.44C305.744 133.214 305.654 133.979 305.684 134.6C305.715 135.226 305.847 135.701 305.936 136.021C306.047 136.333 306.106 136.499 306.106 136.499Z" fill="#FFE6AE"/>
<path d="M329.911 111.696C329.911 111.696 329.346 116.762 321.429 119.236L321.618 117.586C321.618 117.586 316.811 124.89 319.168 131.84C321.524 138.791 322.843 141.854 320.204 143.267C317.565 144.681 314.361 143.149 311.817 143.974C311.817 143.974 309.461 143.149 310.309 139.733C310.309 139.733 304.749 138.201 307.387 131.604C308.486 128.857 313.23 127.01 313.325 117.351C313.419 107.691 321.712 102.271 326.801 106.866C331.89 111.46 329.911 111.696 329.911 111.696Z" fill="#FFE6AE"/>
<path d="M316.963 125.775C316.963 125.775 314.28 124.992 314.678 128.498C315.316 134.112 318.358 132.288 318.358 132.288C318.358 132.288 317.105 130.366 316.963 125.775Z" fill="#FFA292"/>
<path d="M329.384 122.135C329.384 122.135 329.408 122.004 329.492 121.797C329.534 121.694 329.588 121.569 329.662 121.437C329.737 121.306 329.822 121.153 329.937 121.013C330.043 120.86 330.177 120.72 330.324 120.575C330.478 120.449 330.635 120.286 330.826 120.187C331.009 120.067 331.21 119.971 331.421 119.904C331.629 119.811 331.853 119.804 332.072 119.758C332.293 119.753 332.515 119.749 332.729 119.777C332.941 119.822 333.151 119.862 333.345 119.934C333.536 120.014 333.717 120.107 333.885 120.193C334.049 120.291 334.195 120.408 334.329 120.512C334.465 120.608 334.58 120.716 334.674 120.827C334.772 120.928 334.851 121.028 334.917 121.106C335.047 121.265 335.114 121.367 335.114 121.367C335.114 121.367 335.004 121.355 334.828 121.315C334.74 121.295 334.632 121.274 334.516 121.238C334.4 121.199 334.266 121.174 334.123 121.145C333.979 121.118 333.828 121.083 333.672 121.041C333.511 121.022 333.345 121.005 333.177 120.97C333.009 120.948 332.836 120.955 332.662 120.93C332.49 120.935 332.316 120.94 332.141 120.946C331.971 120.981 331.794 120.975 331.629 121.028C331.545 121.051 331.461 121.068 331.378 121.084C331.296 121.112 331.215 121.14 331.136 121.167C330.973 121.212 330.823 121.29 330.672 121.346C330.532 121.428 330.385 121.483 330.259 121.562C330.001 121.706 329.785 121.852 329.63 121.958C329.474 122.071 329.384 122.135 329.384 122.135Z" fill="#352C38"/>
<path d="M330.72 125.017C330.72 125.017 330.787 125.125 330.895 125.319C330.947 125.417 331.011 125.537 331.084 125.673C331.166 125.796 331.257 125.932 331.346 126.082C331.433 126.235 331.568 126.361 331.676 126.52C331.73 126.603 331.808 126.65 331.873 126.719C331.944 126.777 332.003 126.863 332.082 126.9C332.157 126.944 332.229 127.005 332.305 127.04C332.385 127.061 332.461 127.091 332.537 127.119C332.613 127.116 332.69 127.129 332.765 127.125C332.836 127.093 332.912 127.092 332.98 127.05C333.045 126.997 333.123 126.98 333.183 126.911C333.24 126.838 333.312 126.79 333.363 126.705C333.412 126.616 333.466 126.536 333.52 126.453C333.562 126.355 333.603 126.259 333.644 126.163C333.715 125.965 333.774 125.755 333.824 125.555C333.853 125.346 333.909 125.151 333.926 124.96C333.942 124.77 333.964 124.593 333.984 124.434C333.992 124.273 333.999 124.134 334.005 124.018C334.019 123.785 334.032 123.646 334.032 123.646C334.032 123.646 334.072 123.771 334.133 123.998C334.161 124.112 334.203 124.251 334.233 124.414C334.255 124.579 334.28 124.767 334.3 124.976C334.323 125.184 334.308 125.414 334.303 125.659C334.28 125.902 334.251 126.167 334.176 126.429C334.133 126.56 334.09 126.694 334.046 126.829C333.986 126.958 333.916 127.085 333.844 127.211C333.771 127.336 333.662 127.436 333.569 127.549C333.473 127.658 333.339 127.723 333.223 127.805C333.098 127.87 332.955 127.886 332.823 127.921C332.689 127.927 332.554 127.905 332.422 127.891C332.297 127.849 332.178 127.789 332.062 127.732C331.953 127.663 331.86 127.571 331.762 127.493C331.66 127.418 331.591 127.312 331.516 127.215C331.447 127.114 331.363 127.03 331.314 126.922C331.208 126.713 331.094 126.53 331.031 126.329C330.961 126.134 330.905 125.955 330.857 125.799C330.821 125.641 330.798 125.5 330.777 125.384C330.737 125.152 330.72 125.017 330.72 125.017Z" fill="#352C38"/>
<path d="M322.838 126.613C322.838 126.613 322.906 126.722 323.013 126.916C323.065 127.014 323.129 127.134 323.201 127.27C323.283 127.394 323.374 127.53 323.464 127.679C323.55 127.832 323.685 127.959 323.793 128.119C323.847 128.201 323.925 128.249 323.99 128.317C324.06 128.376 324.119 128.462 324.198 128.499C324.273 128.544 324.345 128.604 324.422 128.64C324.501 128.66 324.577 128.69 324.653 128.719C324.729 128.716 324.805 128.73 324.881 128.726C324.952 128.693 325.028 128.692 325.096 128.651C325.16 128.597 325.239 128.581 325.299 128.512C325.357 128.439 325.428 128.391 325.479 128.306C325.528 128.219 325.582 128.137 325.637 128.055C325.678 127.957 325.72 127.86 325.761 127.765C325.832 127.568 325.892 127.358 325.942 127.157C325.97 126.949 326.028 126.753 326.045 126.563C326.061 126.373 326.083 126.196 326.104 126.037C326.112 125.876 326.119 125.736 326.125 125.621C326.139 125.388 326.153 125.249 326.153 125.249C326.153 125.249 326.193 125.374 326.253 125.601C326.281 125.715 326.322 125.854 326.352 126.017C326.375 126.182 326.399 126.37 326.419 126.578C326.442 126.786 326.426 127.017 326.421 127.262C326.397 127.505 326.368 127.77 326.293 128.032C326.25 128.163 326.207 128.296 326.163 128.431C326.103 128.56 326.032 128.687 325.96 128.812C325.887 128.937 325.778 129.038 325.685 129.149C325.588 129.259 325.455 129.323 325.338 129.405C325.213 129.469 325.071 129.486 324.938 129.52C324.804 129.526 324.669 129.503 324.537 129.489C324.412 129.447 324.293 129.387 324.177 129.329C324.068 129.26 323.975 129.169 323.878 129.09C323.776 129.015 323.707 128.909 323.632 128.812C323.563 128.711 323.48 128.626 323.43 128.518C323.324 128.309 323.211 128.126 323.149 127.925C323.079 127.73 323.023 127.551 322.975 127.394C322.939 127.237 322.917 127.095 322.896 126.98C322.856 126.748 322.838 126.613 322.838 126.613Z" fill="#352C38"/>
<path d="M328.967 121.84C329.206 122.527 329.42 123.223 329.625 123.922C329.832 124.62 330.026 125.324 330.213 126.03C330.401 126.735 330.58 127.444 330.752 128.156C330.93 128.865 331.085 129.583 331.251 130.296L331.314 130.567L331.122 130.678C330.822 130.853 330.518 131.02 330.207 131.168C329.894 131.313 329.578 131.449 329.244 131.545C329.496 131.255 329.765 131.006 330.038 130.767C330.312 130.529 330.594 130.311 330.879 130.101L330.75 130.482C330.577 129.771 330.393 129.064 330.232 128.349C330.065 127.636 329.905 126.919 329.754 126.2C329.603 125.481 329.457 124.76 329.326 124.033C329.192 123.307 329.067 122.578 328.967 121.84Z" fill="#D8866C"/>
<path d="M321.123 123.184C321.123 123.184 321.147 123.052 321.231 122.846C321.272 122.743 321.326 122.618 321.4 122.485C321.475 122.355 321.561 122.202 321.675 122.062C321.781 121.909 321.915 121.768 322.062 121.623C322.217 121.498 322.374 121.335 322.564 121.236C322.747 121.115 322.948 121.02 323.16 120.952C323.367 120.859 323.592 120.852 323.811 120.806C324.031 120.801 324.253 120.798 324.467 120.826C324.679 120.871 324.89 120.91 325.083 120.983C325.274 121.063 325.455 121.156 325.623 121.241C325.787 121.34 325.933 121.456 326.067 121.56C326.203 121.656 326.318 121.764 326.412 121.875C326.51 121.976 326.59 122.076 326.655 122.154C326.786 122.313 326.852 122.415 326.852 122.415C326.852 122.415 326.743 122.403 326.566 122.363C326.478 122.343 326.371 122.322 326.255 122.286C326.139 122.247 326.005 122.222 325.861 122.193C325.718 122.166 325.566 122.131 325.41 122.089C325.25 122.07 325.083 122.053 324.916 122.018C324.747 121.996 324.573 122.002 324.401 121.978C324.229 121.983 324.054 121.988 323.879 121.994C323.709 122.029 323.532 122.023 323.367 122.076C323.284 122.098 323.2 122.116 323.116 122.132C323.034 122.16 322.954 122.188 322.874 122.215C322.711 122.259 322.561 122.338 322.41 122.394C322.27 122.476 322.123 122.531 321.997 122.61C321.738 122.754 321.523 122.9 321.367 123.005C321.212 123.12 321.123 123.184 321.123 123.184Z" fill="#352C38"/>
<path d="M331.019 133.641C331.019 133.641 330.773 134.002 330.282 134.348C330.041 134.529 329.737 134.692 329.399 134.824C329.228 134.879 329.053 134.953 328.867 134.98C328.683 135.023 328.494 135.044 328.304 135.056C328.114 135.075 327.924 135.045 327.738 135.037C327.551 135.03 327.371 134.963 327.197 134.93C327.022 134.892 326.862 134.808 326.708 134.75C326.552 134.698 326.417 134.601 326.29 134.528C326.165 134.449 326.047 134.389 325.954 134.303C325.861 134.223 325.779 134.153 325.712 134.095C325.58 133.977 325.508 133.906 325.508 133.906C325.508 133.906 325.598 133.936 325.754 133.988C325.83 134.017 325.922 134.053 326.028 134.093C326.13 134.141 326.256 134.159 326.384 134.204C326.515 134.239 326.651 134.295 326.802 134.319C326.952 134.344 327.106 134.39 327.269 134.41C327.432 134.424 327.599 134.454 327.769 134.459C327.94 134.46 328.113 134.481 328.286 134.457C328.632 134.456 328.975 134.382 329.298 134.314C329.618 134.231 329.918 134.139 330.172 134.035C330.681 133.835 331.019 133.641 331.019 133.641Z" fill="#D8866C"/>
<path d="M315.248 128.791C315.184 128.391 315.169 127.976 315.261 127.549C315.31 127.34 315.391 127.104 315.585 126.941C315.68 126.861 315.8 126.816 315.913 126.809C316.026 126.804 316.128 126.836 316.224 126.872L316.33 126.912L316.365 127.084C316.455 127.522 316.527 127.965 316.59 128.41C316.653 128.855 316.704 129.303 316.739 129.754L316.756 129.98L316.617 130.034C316.572 130.052 316.513 130.083 316.464 130.114C316.413 130.145 316.365 130.183 316.322 130.22C316.234 130.298 316.181 130.378 316.18 130.464C316.174 130.561 316.247 130.695 316.334 130.804C316.423 130.915 316.527 131.019 316.635 131.119C316.504 131.081 316.374 131.032 316.248 130.95C316.128 130.866 315.991 130.758 315.928 130.526C315.902 130.409 315.915 130.276 315.951 130.172C315.986 130.065 316.037 129.979 316.091 129.906C316.145 129.831 316.206 129.773 316.266 129.717C316.329 129.661 316.387 129.615 316.463 129.567L316.341 129.847C316.244 129.41 316.163 128.969 316.093 128.526C316.025 128.083 315.965 127.637 315.922 127.187L316.064 127.399C315.95 127.341 315.861 127.317 315.78 127.359C315.696 127.401 315.606 127.529 315.537 127.685C315.402 128.006 315.32 128.397 315.248 128.791Z" fill="#D8866C"/>
<path d="M337.748 305.943C338.26 310.108 338.605 312.262 338.605 312.262C319.654 325.732 344.93 314.049 344.93 314.049C345.2 311.649 345.45 309.122 345.681 306.55C343.039 306.375 340.393 306.089 337.748 305.943Z" fill="#FFA65B"/>
<path d="M331.817 317.841C331.947 319.437 343.352 314.284 344.986 313.537C344.968 313.708 344.95 313.881 344.931 314.049C344.931 314.049 329.402 321.226 331.817 317.841Z" fill="#F8F8F8"/>
<path d="M340.278 312.784C340.278 312.784 339.711 311.99 338.319 312.22" stroke="#F8F8F8" stroke-width="1.3085" stroke-miterlimit="10" stroke-linecap="round"/>
<path d="M339.026 313.778C339.026 313.778 338.493 312.949 337.093 313.088" stroke="#F8F8F8" stroke-width="1.3085" stroke-miterlimit="10" stroke-linecap="round"/>
<path d="M367.546 304.575C367.632 308.788 367.598 310.984 367.598 310.984C388.157 320.046 361.625 314.143 361.625 314.143C361.02 311.84 360.416 309.409 359.824 306.929C362.399 306.172 364.963 305.305 367.546 304.575Z" fill="#FFA65B"/>
<path d="M375.069 314.972C375.166 316.571 363.212 314.025 361.498 313.652C361.541 313.815 361.583 313.981 361.626 314.143C361.626 314.143 377.926 317.769 375.069 314.972Z" fill="#F8F8F8"/>
<path d="M366.024 311.868C366.024 311.868 366.47 310.962 367.872 310.88" stroke="#F8F8F8" stroke-width="1.3085" stroke-miterlimit="10" stroke-linecap="round"/>
<path d="M367.398 312.57C367.398 312.57 367.805 311.635 369.203 311.462" stroke="#F8F8F8" stroke-width="1.3085" stroke-miterlimit="10" stroke-linecap="round"/>
<path d="M330.607 195.706C330.607 195.706 324.143 262.696 336.548 307.717C336.548 307.717 342.421 309.688 347.481 308.202L347.548 225.536C347.548 225.536 350.845 286.117 357.519 308.078C357.519 308.078 365.231 309.56 370.762 307.525C370.762 307.525 367.883 216.175 367.961 197.364C367.961 197.364 349.869 192 330.607 195.706Z" fill="#352C38"/>
<mask id="mask0_130_6926" style="mask-type:luminance" maskUnits="userSpaceOnUse" x="328" y="194" width="43" height="115">
<path d="M330.607 195.706C330.607 195.706 324.143 262.696 336.548 307.717C336.548 307.717 342.421 309.688 347.481 308.202L347.548 225.536C347.548 225.536 350.845 286.117 357.519 308.078C357.519 308.078 365.231 309.56 370.762 307.525C370.762 307.525 367.883 216.175 367.961 197.364C367.961 197.364 349.869 192 330.607 195.706Z" fill="white"/>
</mask>
<g mask="url(#mask0_130_6926)">
<path d="M305.919 210.988L379.313 210.648" stroke="#6F96BD" stroke-width="0.8635" stroke-miterlimit="10"/>
<path d="M305.539 220.186L378.933 219.847" stroke="#6F96BD" stroke-width="0.8635" stroke-miterlimit="10"/>
<path d="M305.159 229.385L378.553 229.045" stroke="#6F96BD" stroke-width="0.8635" stroke-miterlimit="10"/>
<path d="M304.778 238.583L378.172 238.244" stroke="#6F96BD" stroke-width="0.8635" stroke-miterlimit="10"/>
<path d="M304.398 247.782L377.792 247.442" stroke="#6F96BD" stroke-width="0.8635" stroke-miterlimit="10"/>
<path d="M304.018 256.98L377.412 256.64" stroke="#6F96BD" stroke-width="0.8635" stroke-miterlimit="10"/>
<path d="M303.638 266.179L377.032 265.839" stroke="#6F96BD" stroke-width="0.8635" stroke-miterlimit="10"/>
<path d="M306.299 201.79L379.693 201.449" stroke="#6F96BD" stroke-width="0.8635" stroke-miterlimit="10"/>
<path d="M309.559 276.062L382.953 275.723" stroke="#6F96BD" stroke-width="0.8635" stroke-miterlimit="10"/>
<path d="M304.466 285.198L377.86 284.858" stroke="#6F96BD" stroke-width="0.8635" stroke-miterlimit="10"/>
<path d="M304.086 294.397L377.48 294.057" stroke="#6F96BD" stroke-width="0.8635" stroke-miterlimit="10"/>
<path d="M303.706 303.595L377.1 303.255" stroke="#6F96BD" stroke-width="0.8635" stroke-miterlimit="10"/>
<path d="M332.312 318.614L332.562 178.591" stroke="#6F96BD" stroke-width="0.8635" stroke-miterlimit="10"/>
<path d="M337.984 319.231L338.234 179.209" stroke="#6F96BD" stroke-width="0.8635" stroke-miterlimit="10"/>
<path d="M343.656 319.847L343.905 179.825" stroke="#6F96BD" stroke-width="0.8635" stroke-miterlimit="10"/>
<path d="M349.327 320.464L349.577 180.442" stroke="#6F96BD" stroke-width="0.8635" stroke-miterlimit="10"/>
<path d="M354.999 321.081L355.248 181.058" stroke="#6F96BD" stroke-width="0.8635" stroke-miterlimit="10"/>
<path d="M360.67 321.697L360.92 181.675" stroke="#6F96BD" stroke-width="0.8635" stroke-miterlimit="10"/>
<path d="M366.765 312.093L367.014 172.071" stroke="#6F96BD" stroke-width="0.8635" stroke-miterlimit="10"/>
</g>
<path d="M362.709 131.886L361.408 145.343L351.067 140.75L362.709 131.886Z" fill="#FFA292"/>
<path d="M337.941 150.279L347.544 149.422C347.544 149.422 346.684 143.54 347.266 143.138C347.848 142.736 359.995 137.349 363.952 138.522C363.952 138.522 363.044 140.536 362.069 146.764C361.094 152.992 365.082 150.2 365.082 150.2L353.973 196.031C353.973 196.031 345.501 197.223 338.518 194.205C331.534 191.187 337.941 150.279 337.941 150.279Z" fill="#6F96BD"/>
<path d="M356.616 167.181C351.575 169.919 346.426 172.355 341.191 174.45C339.245 175.228 337.29 176.01 335.32 176.728C335.039 185.308 335.645 192.964 338.518 194.205C345.502 197.224 353.974 196.032 353.974 196.032L361.632 164.438C359.947 165.416 358.239 166.299 356.616 167.181Z" fill="#547FA3"/>
<path d="M364.341 148.172C364.341 148.172 356.857 146.7 354.826 162.003C352.795 177.307 349.158 217.055 352.281 219.474C355.406 221.894 369.511 223.089 370.08 219.124C370.648 215.158 369.867 210.562 369.867 210.562L366.556 214.691C366.556 214.691 374.601 212.483 373.33 201.023C372.059 189.564 371.211 179.264 371.958 169.035C372.705 158.806 375.485 149.237 364.341 148.172Z" fill="#FFA65B"/>
<path d="M371.051 211.407C370.527 211.877 369.972 212.286 369.36 212.586C366.892 213.797 364.488 213.773 361.872 213.634C358.123 213.436 354.553 213.05 351.08 211.825C351.154 216.02 351.513 218.879 352.281 219.474C355.406 221.893 369.511 223.089 370.08 219.123C370.419 216.759 370.278 214.177 370.108 212.472C370.427 212.16 370.745 211.806 371.051 211.407Z" fill="#E5863E"/>
<path d="M354.123 166.676C354.123 166.676 356.58 144.407 362.692 141.97C368.805 139.533 371.995 147.656 369.197 149.813C366.4 151.969 359.562 147.817 354.123 166.676Z" fill="#E5863E"/>
<path d="M368.094 192.41L364.807 195.552C364.807 195.552 367.32 199.902 370.221 201.836L374.474 197.486L368.094 192.41Z" fill="#FFAC9D"/>
<path d="M375.564 154.514C375.564 154.514 372.228 151.515 371.089 151.465C369.95 151.414 366.575 153.83 364.714 163.155C362.852 172.48 382.34 180.899 382.34 180.899L381.054 174C381.054 174 369.188 186.301 367.59 190.364C365.992 194.426 371.423 199.941 373.029 199.585C374.635 199.228 392.371 185.049 392.443 178.496C392.515 171.942 383.476 160.994 375.564 154.514Z" fill="#E5863E"/>
<path d="M362.68 192.168C362.68 192.168 366.16 200.627 371.961 203.286L370.414 206.186C370.414 206.186 362.68 202.561 361.133 193.86L362.68 192.168Z" fill="#E5863E"/>
<path d="M329.165 213.453C329.165 213.453 327.219 236.726 327.358 220.629C327.358 220.629 324.086 239.69 325.992 220.635C325.992 220.635 321.95 238.757 324.668 220.857C324.668 220.857 319.818 236.944 323.816 216.904C323.816 216.904 317.24 225.64 324.186 213.034C332.143 198.593 329.165 213.453 329.165 213.453Z" fill="#FFAC9D"/>
<path d="M341.304 148.29C340.739 148.122 334.544 149.415 332.341 154.734C330.138 160.053 328.645 184.502 324.897 196.024C321.149 207.545 321.63 214.693 328.589 214.574C335.548 214.456 341.187 196.604 341.187 196.604L341.304 148.29Z" fill="#C96F32"/>
<path d="M332.821 153.9C332.821 153.9 323.532 203.945 328.373 210.146C328.373 210.146 326.308 218.606 328.569 219.277C330.831 219.947 339.853 223.483 341.593 218.429C343.332 213.375 351.954 158.74 348.764 150.616C345.574 142.493 334.764 149.71 332.821 153.9Z" fill="#FFA65B"/>
<path d="M334.578 212.997C332.028 212.841 330.257 211.574 328.362 210.193C328.209 210.832 326.401 218.634 328.57 219.277C330.831 219.947 339.853 223.483 341.593 218.429C341.85 217.683 342.257 215.85 342.754 213.252C340.09 213.76 337.279 213.161 334.578 212.997Z" fill="#E5863E"/>
<path d="M349.051 164.597C349.051 164.597 351.772 141.058 343.137 139.962C334.503 138.866 334.614 150.986 337.628 149.267C340.642 147.547 344.981 147.312 346.43 152.508C347.879 157.704 349.051 164.597 349.051 164.597Z" fill="#E5863E"/>
<path d="M341.992 192.893C341.992 192.893 337.158 202.319 329.617 201.836L328.844 198.21C328.844 198.21 336.771 196.519 340.832 190.96L341.992 192.893Z" fill="#E5863E"/>
<path d="M362.107 117.665C362.107 117.665 358.516 115.135 350.52 114.784C344.381 114.514 340.908 142.847 347.279 144.048C354.66 145.439 366.822 132.915 362.107 117.665Z" fill="#FFAC9D"/>
<path d="M343.935 131.903C343.935 131.903 339.15 145.71 345.923 147.938C358.44 152.057 360.678 142.602 362.586 131.226C364.493 119.85 365.83 127.261 365.83 127.261C365.83 127.261 369.44 116.92 365.774 114.746C362.108 112.572 349.661 113.457 349.661 113.457C349.661 113.457 345.224 112.703 345.519 107.456C345.519 107.456 342.327 111.341 345.921 114.835C345.921 114.835 342.635 113.052 342.727 109.763C342.727 109.763 341.272 120.211 348.408 117.591C355.545 114.971 344.3 115.36 341.803 113.591C342.779 114.282 342.249 119.499 350.677 120.518C357.321 121.321 359.302 117.57 359.302 117.57C359.302 117.57 359.942 121.669 362.15 123.075C362.15 123.075 360.256 139.352 356.916 139.202C354.583 139.098 359.985 131.068 351.092 131.354C343.019 131.613 344.974 136.913 344.568 137.594C343.539 139.322 343.935 131.903 343.935 131.903Z" fill="#965450"/>
<path d="M362.685 129.8C362.685 129.8 363.535 122.999 365.879 125.284C368.223 127.57 364.809 136.306 362.157 133.974C362.157 133.974 362.301 131.441 362.685 129.8Z" fill="#FFAC9D"/>
<path d="M363.309 132.83C363.441 132.684 363.562 132.527 363.668 132.36C363.719 132.274 363.764 132.186 363.8 132.095C363.811 132.048 363.828 132.002 363.836 131.957C363.835 131.913 363.853 131.866 363.839 131.828C363.832 131.789 363.828 131.751 363.804 131.723C363.792 131.689 363.769 131.66 363.738 131.636C363.712 131.608 363.685 131.583 363.646 131.567C363.61 131.55 363.577 131.528 363.54 131.512C363.46 131.491 363.385 131.46 363.302 131.446L363.054 131.405L362.922 131.384L362.933 131.215C362.981 130.455 363.074 129.707 363.221 128.965C363.372 128.228 363.562 127.486 363.933 126.821C364.03 126.658 364.145 126.505 364.282 126.373C364.421 126.244 364.594 126.149 364.777 126.127C364.873 126.111 364.95 126.127 365.057 126.15L365.273 126.227C365.348 126.26 365.432 126.316 365.508 126.361C365.583 126.414 365.647 126.486 365.714 126.549C365.832 126.703 365.932 126.881 365.98 127.079C366.041 127.272 366.045 127.477 366.046 127.672C366.029 128.063 365.952 128.437 365.819 128.777C365.89 128.412 365.927 128.038 365.899 127.678C365.876 127.501 365.85 127.326 365.788 127.174C365.736 127.017 365.644 126.895 365.547 126.789C365.49 126.749 365.439 126.695 365.381 126.663C365.32 126.637 365.27 126.602 365.202 126.579L364.982 126.522C364.941 126.523 364.866 126.512 364.814 126.528C364.581 126.563 364.383 126.804 364.228 127.085C363.917 127.662 363.734 128.376 363.576 129.08C363.423 129.791 363.303 130.523 363.208 131.251L363.087 131.061L363.356 131.132C363.445 131.159 363.534 131.207 363.622 131.244C363.665 131.269 363.709 131.303 363.751 131.332C363.795 131.358 363.835 131.4 363.873 131.449C363.913 131.492 363.948 131.543 363.969 131.613C363.999 131.675 364.004 131.746 364.006 131.817C364.014 131.888 363.987 131.947 363.978 132.01C363.96 132.069 363.934 132.12 363.912 132.173C363.859 132.27 363.799 132.357 363.735 132.436C363.608 132.593 363.461 132.719 363.309 132.83Z" fill="#E28276"/>
<path d="M347.02 133.347L354.981 133.831C354.981 133.831 351.88 138.871 347.02 133.347Z" fill="#F8F8F8"/>
<path d="M350.33 123.036C350.23 123.747 350.095 124.442 349.944 125.13C349.872 125.476 349.785 125.814 349.707 126.157C349.626 126.498 349.533 126.834 349.447 127.173C349.362 127.513 349.261 127.844 349.168 128.18C349.074 128.516 348.977 128.85 348.872 129.18C348.768 129.51 348.671 129.844 348.56 130.172L348.229 131.155L347.973 130.669C348.842 130.796 349.71 130.946 350.573 131.205C349.693 131.348 348.817 131.381 347.943 131.391L347.56 131.396L347.687 130.904L347.948 129.888C348.035 129.55 348.136 129.218 348.23 128.882C348.322 128.546 348.424 128.214 348.528 127.883C348.632 127.553 348.728 127.218 348.841 126.892C348.953 126.565 349.057 126.235 349.174 125.91C349.293 125.586 349.404 125.259 349.53 124.938C349.774 124.294 350.034 123.656 350.33 123.036Z" fill="#E28276"/>
<path d="M351.815 121.793C351.815 121.793 351.877 121.649 352.022 121.439C352.164 121.223 352.392 120.952 352.702 120.672C352.862 120.548 353.034 120.398 353.236 120.289C353.336 120.228 353.44 120.173 353.548 120.116C353.659 120.067 353.774 120.026 353.892 119.981C354.009 119.93 354.133 119.901 354.261 119.88C354.388 119.855 354.517 119.826 354.649 119.814C354.917 119.818 355.191 119.793 355.464 119.871L355.871 119.977C356.002 120.034 356.13 120.103 356.257 120.168C356.519 120.277 356.731 120.495 356.943 120.675C357.05 120.764 357.143 120.868 357.223 120.985C357.305 121.097 357.387 121.203 357.462 121.312C357.623 121.515 357.709 121.768 357.807 121.975C357.897 122.19 357.981 122.381 358.015 122.575C358.063 122.76 358.09 122.928 358.114 123.063C358.16 123.333 358.168 123.49 358.168 123.49C358.168 123.49 358.051 123.403 357.879 123.245C357.793 123.166 357.687 123.074 357.582 122.961C357.48 122.842 357.332 122.753 357.198 122.635C357.056 122.529 356.932 122.376 356.765 122.29C356.685 122.24 356.609 122.183 356.529 122.13C356.452 122.073 356.376 122.012 356.287 121.981C356.114 121.906 355.957 121.788 355.774 121.743C355.686 121.711 355.597 121.683 355.511 121.642L355.234 121.586C355.055 121.517 354.858 121.542 354.671 121.498C354.478 121.509 354.286 121.476 354.094 121.498C353.997 121.503 353.902 121.512 353.807 121.51C353.712 121.518 353.62 121.535 353.527 121.541C353.341 121.549 353.166 121.591 352.996 121.605C352.288 121.718 351.815 121.793 351.815 121.793Z" fill="#76413B"/>
<path d="M349.397 121.948C349.397 121.948 349.31 121.884 349.178 121.775C349.056 121.672 348.881 121.525 348.671 121.349C348.476 121.181 348.261 121.003 348.057 120.859C347.953 120.791 347.854 120.732 347.765 120.688C347.674 120.652 347.596 120.623 347.523 120.61C347.451 120.597 347.382 120.596 347.299 120.598C347.218 120.612 347.123 120.624 347.019 120.664C346.813 120.738 346.578 120.861 346.367 120.989C346.137 121.12 345.944 121.23 345.81 121.307C345.666 121.388 345.567 121.426 345.567 121.426C345.567 121.426 345.565 121.303 345.588 121.099C345.6 120.997 345.613 120.871 345.65 120.74C345.683 120.605 345.718 120.448 345.783 120.293C345.84 120.133 345.922 119.969 346.023 119.801C346.128 119.637 346.251 119.467 346.414 119.318C346.573 119.168 346.771 119.034 346.999 118.952C347.227 118.866 347.485 118.851 347.734 118.89C347.981 118.946 348.21 119.055 348.401 119.202C348.592 119.348 348.745 119.526 348.871 119.705C349.118 120.069 349.258 120.449 349.334 120.784C349.409 121.12 349.427 121.411 349.423 121.618C349.421 121.825 349.397 121.948 349.397 121.948Z" fill="#76413B"/>
<path d="M352.566 124.883C352.566 124.883 352.65 125.298 352.806 125.861C352.889 126.138 352.992 126.459 353.145 126.721C353.301 126.99 353.491 127.151 353.727 127.155C353.845 127.169 353.977 127.135 354.109 127.089C354.241 127.038 354.378 126.978 354.506 126.9C354.634 126.822 354.76 126.742 354.878 126.659C354.997 126.573 355.11 126.491 355.214 126.416C355.418 126.254 355.598 126.125 355.722 126.029C355.847 125.935 355.924 125.886 355.924 125.886C355.924 125.886 355.881 125.977 355.798 126.13C355.716 126.285 355.587 126.492 355.415 126.726C355.326 126.838 355.233 126.967 355.118 127.083C355.006 127.202 354.885 127.328 354.743 127.435C354.603 127.544 354.451 127.655 354.277 127.731C354.104 127.809 353.909 127.864 353.699 127.85C353.492 127.838 353.27 127.753 353.101 127.594C352.929 127.44 352.815 127.235 352.729 127.042C352.56 126.648 352.512 126.261 352.494 125.94C352.461 125.294 352.566 124.883 352.566 124.883Z" fill="#032E49"/>
<path d="M345.478 123.911C345.478 123.911 345.562 124.327 345.718 124.889C345.801 125.166 345.904 125.487 346.057 125.75C346.213 126.018 346.403 126.179 346.639 126.183C346.756 126.197 346.889 126.164 347.021 126.118C347.153 126.066 347.29 126.006 347.418 125.928C347.546 125.85 347.672 125.77 347.79 125.687C347.91 125.601 348.022 125.52 348.126 125.444C348.33 125.282 348.51 125.154 348.634 125.057C348.76 124.964 348.836 124.915 348.836 124.915C348.836 124.915 348.793 125.005 348.71 125.158C348.628 125.313 348.499 125.52 348.328 125.754C348.238 125.866 348.145 125.995 348.03 126.111C347.918 126.231 347.797 126.356 347.655 126.464C347.515 126.572 347.364 126.683 347.189 126.759C347.016 126.837 346.821 126.893 346.611 126.878C346.404 126.866 346.182 126.781 346.013 126.623C345.841 126.469 345.727 126.264 345.641 126.071C345.471 125.676 345.425 125.29 345.406 124.969C345.373 124.322 345.478 123.911 345.478 123.911Z" fill="#032E49"/>
<path d="M367.578 120.063C367.578 120.063 347.598 115.068 342.184 108.462C336.771 101.856 367.016 102.311 368.867 109.106C370.93 116.679 367.578 120.063 367.578 120.063Z" fill="#352C38"/>
<path opacity="0.4" d="M362.68 118.936C362.68 118.936 342.829 112.329 342.056 107.818C341.282 103.306 358.426 108.462 362.68 118.936Z" fill="#765E69"/>
<path d="M349.861 120.401C350.006 118.088 349.152 115.88 348.887 113.618C348.355 113.504 345.244 112.339 345.519 107.456C345.519 107.456 342.369 111.295 345.859 114.772C345.837 114.768 345.814 114.764 345.792 114.76C345.19 114.392 342.646 112.665 342.727 109.764C342.727 109.764 342.426 111.94 342.775 114.058C342.384 113.92 342.05 113.766 341.803 113.591C342.747 114.259 342.285 119.153 349.861 120.401Z" fill="#965450"/>
<g style="mix-blend-mode:multiply">
<path d="M418.632 293.837L415.697 314.583C415.697 314.583 399.046 317.632 399.401 315.63C399.756 313.627 407.431 309.638 407.431 309.638L409.249 292.412L418.632 293.837Z" fill="#765E69"/>
<path opacity="0.6" d="M413.259 311.348C412.81 312.507 412.684 313.804 412.659 315.1C414.455 314.81 415.697 314.583 415.697 314.583L416.465 309.155C415.17 309.308 413.858 309.801 413.259 311.348Z" fill="#352C38"/>
<path opacity="0.3" d="M417.399 302.552L418.633 293.837L409.249 292.412L408.432 300.151C411.468 300.62 414.363 301.939 417.399 302.552Z" fill="#352C38"/>
<path opacity="0.6" d="M404.906 311.052C402.634 312.397 399.62 314.392 399.401 315.63C399.217 316.668 403.603 316.348 407.87 315.8C406.943 314.16 405.959 312.572 404.906 311.052Z" fill="#352C38"/>
<path d="M399.731 314.953C399.556 315.195 399.437 315.423 399.401 315.63C399.046 317.632 415.697 314.583 415.697 314.583L415.886 313.252C413.753 313.631 403.083 315.47 399.731 314.953Z" fill="#352C38"/>
<path d="M407.069 309.575L409.56 310.902" stroke="#352C38" stroke-width="0.9034" stroke-miterlimit="10" stroke-linecap="round"/>
<path d="M407.429 307.254L409.921 308.581" stroke="#352C38" stroke-width="0.9034" stroke-miterlimit="10" stroke-linecap="round"/>
<path d="M407.587 305.068L410.079 306.395" stroke="#352C38" stroke-width="0.9034" stroke-miterlimit="10" stroke-linecap="round"/>
<path d="M436.308 292.946L436.626 314.01C436.626 314.01 452.694 320.259 452.593 318.212C452.492 316.166 445.406 310.732 445.406 310.732L445.755 293.362L436.308 292.946Z" fill="#765E69"/>
<path opacity="0.6" d="M439.437 311.289C439.736 312.521 439.698 313.827 439.563 315.111C437.824 314.476 436.626 314.01 436.626 314.01L436.542 308.498C437.803 308.903 439.038 309.644 439.437 311.289Z" fill="#352C38"/>
<path opacity="0.3" d="M436.441 301.794L436.308 292.946L445.755 293.363L445.598 301.167C442.54 301.04 439.517 301.78 436.441 301.794Z" fill="#352C38"/>
<path opacity="0.6" d="M447.725 312.62C449.801 314.391 452.53 316.948 452.593 318.213C452.646 319.274 448.353 318.105 444.206 316.734C445.326 315.294 446.496 313.918 447.725 312.62Z" fill="#352C38"/>
<path d="M452.351 317.48C452.494 317.754 452.582 318.002 452.593 318.213C452.694 320.259 436.625 314.01 436.625 314.01L436.605 312.659C438.664 313.448 448.975 317.339 452.351 317.48Z" fill="#352C38"/>
<path d="M445.772 310.741L443.146 311.567" stroke="#352C38" stroke-width="0.9034" stroke-miterlimit="10" stroke-linecap="round"/>
<path d="M445.705 308.378L443.079 309.205" stroke="#352C38" stroke-width="0.9034" stroke-miterlimit="10" stroke-linecap="round"/>
<path d="M445.82 306.188L443.194 307.014" stroke="#352C38" stroke-width="0.9034" stroke-miterlimit="10" stroke-linecap="round"/>
<path d="M415.918 190.545C415.918 190.545 411.604 225.414 408.465 299.349L418.727 299.176L429.945 214.504L432.128 214.43L435.549 299.176L445.807 298.664L447.977 190.807L415.918 190.545Z" fill="#6F96BD"/>
<path opacity="0.2" d="M413.569 214.803C412.069 232.7 410.107 260.677 408.465 299.349L418.727 299.176L429.844 215.266C424.418 215.33 418.989 215.177 413.569 214.803Z" fill="#352C38"/>
<path d="M407.723 299.26L419.548 300.843L420.098 296.018L407.955 295.56L407.723 299.26Z" fill="#80ABCE"/>
<path d="M447.038 299.561L435.026 300.993L434.729 296.227L446.957 295.852L447.038 299.561Z" fill="#80ABCE"/>
<path d="M440.522 193.796C434.76 193.904 425.909 193.186 421.223 193.012C421.127 194.128 420.505 196.514 420.403 197.628C426.835 198.074 436.213 197.242 440.683 196.973C440.707 195.921 440.608 194.853 440.522 193.796Z" fill="#352C38"/>
<path d="M442.707 193.743C442.782 194.769 442.869 195.8 442.867 196.824C446.417 196.554 448.583 196.245 448.583 196.245L448.523 193.448C446.68 193.587 444.718 193.682 442.707 193.743Z" fill="#352C38"/>
<path d="M421.925 193.508C417.948 193.339 415.33 193.167 415.33 193.167L415.146 195.973C417.325 196.32 419.502 196.579 421.644 196.77C421.748 195.684 421.834 194.596 421.925 193.508Z" fill="#352C38"/>
<path d="M434.677 193.075L429.167 193.121L428.79 198.313L434.914 198.387L434.677 193.075ZM430.181 197.295L430.396 194.339L433.532 194.313L433.667 197.337L430.181 197.295Z" fill="#F8F8F8"/>
<path d="M427.993 137.366L428.658 126.001L442.702 127.414L443.037 141.811L427.993 137.366Z" fill="#FC6A5A"/>
<path d="M447.687 192.414L420.061 190.705L423.343 134.973L450.422 139.076L447.687 192.414Z" fill="#FC6A5A"/>
<path opacity="0.2" d="M421.256 170.41L420.061 190.705L447.687 192.414L449.193 163.049C440.02 166.233 430.663 168.446 421.256 170.41Z" fill="#28212B"/>
<path d="M442.84 133.518L445.225 245.068L462.184 238.914L456.798 138.601L442.84 133.518Z" fill="#765E69"/>
<path opacity="0.3" d="M457.764 156.591C452.997 160.582 447.988 164.343 443.598 168.937L445.225 245.068L462.184 238.914L457.764 156.591Z" fill="#352C38"/>
<path d="M456.798 138.601C456.798 138.601 466.56 168.651 468.201 179.421C469.843 190.192 456.713 208.142 456.713 208.142L448.917 198.398L455.072 180.96L456.798 138.601Z" fill="#765E69"/>
<path d="M444.236 198.186L442.863 131.248L446.737 133.669L449.146 141.377L445.901 142.159L449.643 142.951L444.111 203.076" fill="#8C7382"/>
<path d="M428.54 131.212L418.419 241.992L401.46 236.179L414.316 134.973L428.54 131.212Z" fill="#765E69"/>
<path opacity="0.3" d="M411.47 157.381L401.46 236.179L418.419 241.992L424.526 175.144C419.868 169.581 415.57 163.595 411.47 157.381Z" fill="#352C38"/>
<path d="M422.335 196.731L428.659 129.432L424.139 131.046L421.427 139.603L424.604 140.738L420.821 141.116L422.25 201.623" fill="#8C7382"/>
<path d="M413.632 134.289L418.146 133.263L405.924 226.794H399.565L393 216.793L402.271 170.703L408.709 169.677L413.632 134.289Z" fill="#FFA65B"/>
<path opacity="0.2" d="M399.565 226.794L393 216.793L402.271 170.702L408.709 169.677L399.565 226.794Z" fill="#28212B"/>
<path d="M413.632 134.289C413.632 134.289 400.093 162.496 398.246 173.01C396.4 183.524 401.939 182.755 408.299 181.729L413.632 134.289Z" fill="#765E69"/>
<path opacity="0.3" d="M399.87 166.968C399.107 169.297 398.534 171.369 398.246 173.01C396.4 183.524 401.939 182.755 408.299 181.729L409.556 170.549C406.301 169.468 403.069 168.291 399.87 166.968Z" fill="#352C38"/>
<path d="M409.119 172.241C409.119 172.241 416.71 172.754 413.222 175.318C413.222 175.318 415.068 176.6 413.017 177.37C413.017 177.37 414.248 179.934 412.401 180.191C412.401 180.191 414.043 181.217 412.607 181.729C411.171 182.243 406.657 183.012 406.452 180.96C406.248 178.909 405.837 171.216 409.119 172.241Z" fill="#F19C7C"/>
<path d="M442.543 126.74C442.543 126.74 439.284 133.434 431.047 130.989C425.246 129.267 425.297 118.88 426.615 108.697C428.666 92.8406 432.86 92.4994 439.041 94.1571C453.04 97.9113 442.543 126.74 442.543 126.74Z" fill="#F19C7C"/>
<path d="M447.905 94.1464C445.642 96.378 445.869 96.8526 443.67 99.1835C441.028 109.514 443.956 111.885 443.956 111.885L443.636 116.301L444.963 116.586L443.783 122.883C443.783 122.883 445.507 118.713 448.982 108.496C453.306 95.7796 448.937 94.7209 447.905 94.1464Z" fill="#352C38"/>
<path d="M443.976 120.65L445.61 111.035C445.61 111.035 448.544 110.363 448.561 113.616C448.578 116.869 446.456 120.641 443.976 120.65Z" fill="#F19C7C"/>
<path d="M445.776 110.299C445.776 110.299 445.168 128.855 439.781 131.838C434.394 134.821 422.138 134.71 425.898 118.148C425.898 118.148 425.644 123.532 427.151 123.403C428.657 123.274 427.004 118.239 429.934 118.499C432.863 118.759 438.379 118.026 438.1 122.15C437.821 126.273 439.362 126.772 440.991 124.267C442.619 121.763 443.733 109.843 443.733 109.843L445.776 110.299Z" fill="#352C38"/>
<path d="M444.279 100.185C444.279 100.185 440.355 103.457 435.392 102.417L437.853 100.81C437.853 100.81 434.485 102.614 429.736 101.21L430.7 99.5162L426.58 100.025L427.671 97.5883L425 96.8071C425 96.8071 430.856 84.0158 442.018 88.4245C451.678 92.2405 447.368 100.491 447.368 100.491L444.279 100.185Z" fill="#352C38"/>
<g opacity="0.6">
<path d="M432.921 118.456C431.91 118.281 430.933 117.978 429.961 117.656L429.676 117.562L429.753 117.164C429.914 116.318 430.086 115.475 430.273 114.638C430.361 114.217 430.463 113.802 430.562 113.385C430.662 112.968 430.757 112.55 430.868 112.138C431.079 111.309 431.303 110.485 431.546 109.667C431.787 108.849 432.047 108.038 432.344 107.24C432.261 108.114 432.14 108.975 432.002 109.829C431.863 110.684 431.708 111.533 431.538 112.376C431.459 112.8 431.364 113.218 431.274 113.638C431.182 114.057 431.094 114.478 430.992 114.893C430.799 115.729 430.59 116.558 430.372 117.384L430.164 116.893C431.097 117.359 432.026 117.843 432.921 118.456Z" fill="#C15C38"/>
</g>
<path d="M434.978 105.03C434.978 105.03 435.039 104.897 435.186 104.713C435.26 104.628 435.35 104.51 435.467 104.415C435.581 104.308 435.715 104.199 435.87 104.099C436.178 103.906 436.566 103.73 436.994 103.661C437.208 103.614 437.431 103.608 437.658 103.609C437.885 103.607 438.111 103.655 438.339 103.688C438.561 103.756 438.786 103.811 438.997 103.905C439.206 104.002 439.41 104.108 439.598 104.227C439.783 104.356 439.956 104.493 440.116 104.627C440.272 104.769 440.407 104.927 440.531 105.069C440.781 105.351 440.942 105.658 441.054 105.865C441.164 106.076 441.214 106.213 441.214 106.213C441.214 106.213 441.087 106.218 440.89 106.197C440.689 106.183 440.43 106.118 440.119 106.079C439.966 106.053 439.808 106.011 439.641 105.975C439.473 105.945 439.301 105.91 439.129 105.86C438.954 105.82 438.774 105.792 438.599 105.736C438.42 105.7 438.241 105.66 438.063 105.612C437.704 105.537 437.345 105.462 437.009 105.391C436.667 105.315 436.339 105.264 436.042 105.206C435.746 105.148 435.485 105.11 435.291 105.076C435.101 105.049 434.978 105.03 434.978 105.03Z" fill="#352C38"/>
<path d="M427.584 103.592C427.584 103.592 427.634 103.468 427.761 103.296C427.886 103.127 428.087 102.908 428.362 102.719C428.637 102.537 428.986 102.371 429.374 102.311C429.762 102.234 430.181 102.263 430.589 102.355C430.787 102.423 430.991 102.476 431.177 102.572C431.363 102.667 431.545 102.767 431.709 102.887C431.871 103.011 432.022 103.141 432.161 103.269C432.295 103.408 432.411 103.554 432.517 103.689C432.73 103.954 432.86 104.242 432.952 104.435C433.042 104.631 433.081 104.757 433.081 104.757C433.081 104.757 432.967 104.757 432.79 104.732C432.611 104.715 432.38 104.645 432.104 104.6C431.968 104.573 431.828 104.532 431.682 104.492C431.533 104.461 431.382 104.424 431.231 104.375C431.079 104.33 430.92 104.305 430.767 104.25C430.613 104.209 430.457 104.167 430.3 104.126C430.145 104.087 429.989 104.049 429.836 104.011C429.683 103.986 429.531 103.934 429.382 103.91C429.083 103.837 428.796 103.793 428.534 103.74C428.272 103.688 428.04 103.657 427.867 103.629C427.687 103.605 427.584 103.592 427.584 103.592Z" fill="#352C38"/>
<path d="M438.949 109.081C438.949 109.081 438.96 109.215 438.948 109.453C438.934 109.689 438.899 110.029 438.785 110.424C438.672 110.816 438.475 111.277 438.112 111.642C437.749 112.005 437.211 112.168 436.736 112.079C436.674 112.066 436.624 112.061 436.551 112.042L436.398 111.999C436.276 111.956 436.158 111.906 436.051 111.848C435.833 111.727 435.627 111.561 435.465 111.35C435.129 110.934 434.986 110.399 434.957 109.975C434.923 109.545 434.977 109.199 435.029 108.968C435.081 108.737 435.134 108.616 435.134 108.616C435.134 108.616 435.14 108.753 435.164 108.981C435.191 109.208 435.236 109.527 435.336 109.869C435.437 110.212 435.606 110.558 435.858 110.812C435.985 110.937 436.133 111.039 436.296 111.118C436.38 111.16 436.461 111.19 436.541 111.219L436.695 111.264L436.821 111.291C437.177 111.355 437.519 111.299 437.8 111.082C438.086 110.875 438.308 110.541 438.474 110.231C438.64 109.919 438.756 109.625 438.833 109.416C438.911 109.207 438.949 109.081 438.949 109.081Z" fill="#211B23"/>
<path d="M431.181 107.642C431.181 107.642 431.188 107.766 431.176 107.984C431.162 108.202 431.13 108.514 431.035 108.879C430.94 109.24 430.789 109.672 430.468 110.038C430.307 110.214 430.098 110.367 429.861 110.43C429.625 110.49 429.379 110.465 429.16 110.39C428.948 110.324 428.739 110.194 428.553 110.029C428.369 109.866 428.215 109.652 428.109 109.422C427.889 108.963 427.839 108.477 427.846 108.093C427.851 107.703 427.915 107.394 427.969 107.185C428.024 106.976 428.073 106.865 428.073 106.865C428.073 106.865 428.075 106.992 428.089 107.203C428.103 107.415 428.13 107.715 428.191 108.051C428.254 108.386 428.362 108.755 428.544 109.06C428.637 109.211 428.751 109.34 428.879 109.45C429.006 109.559 429.155 109.632 429.316 109.699C429.623 109.814 429.912 109.769 430.157 109.551C430.407 109.341 430.598 109.007 430.745 108.714C430.892 108.416 430.997 108.143 431.07 107.95C431.143 107.757 431.181 107.642 431.181 107.642Z" fill="#211B23"/>
<path d="M436.764 122.039L428.938 121.28C428.938 121.28 432.757 125.332 436.764 122.039Z" fill="#FFFDF6"/>
<g opacity="0.7">
<path d="M445.677 118.534C445.856 118.325 446.021 118.105 446.164 117.871C446.233 117.752 446.296 117.632 446.351 117.509C446.401 117.384 446.435 117.257 446.457 117.134C446.466 117.073 446.462 117.013 446.467 116.954C446.464 116.896 446.446 116.842 446.44 116.788C446.427 116.734 446.395 116.688 446.379 116.636C446.365 116.582 446.316 116.544 446.288 116.497C446.235 116.398 446.125 116.337 446.049 116.255L445.756 116.059L445.639 115.982L445.635 115.832C445.622 115.407 445.638 114.999 445.685 114.584C445.728 114.17 445.811 113.759 445.943 113.359C446.02 113.162 446.107 112.971 446.227 112.797C446.279 112.707 446.365 112.642 446.433 112.569C446.503 112.495 446.603 112.466 446.685 112.419C446.77 112.373 446.868 112.392 446.956 112.38C447.046 112.364 447.128 112.422 447.212 112.44C447.382 112.48 447.512 112.631 447.653 112.724L447.417 112.65C447.342 112.618 447.265 112.6 447.187 112.606C447.112 112.611 447.035 112.576 446.966 112.612C446.898 112.644 446.825 112.642 446.767 112.691C446.711 112.745 446.645 112.767 446.601 112.837C446.558 112.908 446.504 112.956 446.468 113.036C446.389 113.183 446.333 113.353 446.282 113.526C446.186 113.882 446.142 114.265 446.103 114.649C446.07 115.032 446.055 115.432 446.055 115.812L445.934 115.584C446.049 115.667 446.165 115.74 446.276 115.831C446.378 115.95 446.495 116.029 446.579 116.187C446.62 116.263 446.675 116.321 446.702 116.413C446.73 116.501 446.766 116.585 446.779 116.678C446.787 116.773 446.801 116.869 446.796 116.961C446.783 117.052 446.776 117.145 446.755 117.229C446.711 117.4 446.639 117.545 446.563 117.678C446.482 117.807 446.396 117.925 446.3 118.029C446.11 118.237 445.9 118.406 445.677 118.534Z" fill="#C15C38"/>
</g>
</g>
<path d="M391.087 160.698C388.458 161.448 384.617 162.479 382.951 158.666C382.088 156.69 381.746 154.372 381.287 152.122C385.045 150.188 389.09 149.166 389.869 148.196C391.244 146.485 391.999 139.782 391.999 139.782L401.792 134.67C401.792 134.67 400.358 143.207 400.55 147.797C400.611 149.256 401.706 151.292 403.186 153.518C399.551 157.235 395.305 159.495 391.087 160.698Z" fill="#FFAC9D"/>
<path opacity="0.15" d="M400.592 148.201C400.571 148.063 400.555 147.928 400.55 147.798C400.358 143.207 401.792 134.671 401.792 134.671L391.998 139.783C391.998 139.783 391.243 146.486 389.869 148.197C389.391 148.793 387.678 149.408 385.557 150.243C390.564 150.898 395.698 150.23 400.592 148.201Z" fill="#352C38"/>
<path d="M396.732 110.002C396.732 110.002 392.484 103.622 387.795 109.412C383.106 115.203 379.421 128.091 383.269 136.552C383.269 136.552 383.811 124.537 389.272 120.41C394.732 116.283 396.732 110.002 396.732 110.002Z" fill="#FDDEC0"/>
<path d="M406.282 128.513C406.282 128.513 411.331 118.137 403.121 113.807C393.562 108.766 388.057 115.261 386.619 122.812C385.18 130.362 384.607 140.306 390.724 142.971C397.125 145.76 403.792 141.234 406.282 128.513Z" fill="#FFAC9D"/>
<path d="M404.773 133.944L406.955 126.193C406.955 126.193 410.458 127.396 408.922 131.943C407.386 136.491 404.773 133.944 404.773 133.944Z" fill="#FFAC9D"/>
<path d="M392.918 122.109C392.918 122.109 392.832 122.022 392.681 121.892C392.53 121.76 392.321 121.579 392.068 121.396C391.946 121.297 391.799 121.219 391.66 121.12C391.509 121.042 391.365 120.935 391.201 120.87C391.121 120.831 391.041 120.792 390.959 120.753C390.874 120.726 390.79 120.697 390.706 120.663C390.541 120.586 390.358 120.57 390.186 120.512C390.008 120.484 389.83 120.454 389.652 120.432C389.472 120.435 389.294 120.406 389.119 120.41C388.943 120.423 388.771 120.427 388.604 120.427C388.44 120.448 388.28 120.466 388.13 120.477C387.98 120.488 387.84 120.499 387.717 120.525C387.594 120.548 387.482 120.557 387.39 120.567C387.204 120.585 387.091 120.585 387.091 120.585C387.091 120.585 387.167 120.49 387.313 120.339C387.387 120.266 387.476 120.172 387.585 120.079C387.691 119.975 387.817 119.876 387.965 119.793C388.111 119.702 388.271 119.6 388.447 119.511C388.628 119.443 388.822 119.375 389.026 119.313C389.231 119.26 389.452 119.247 389.674 119.225C389.898 119.221 390.128 119.255 390.355 119.286C390.578 119.362 390.81 119.398 391.017 119.521C391.23 119.62 391.429 119.745 391.608 119.895C391.795 120.025 391.946 120.209 392.095 120.361C392.231 120.535 392.357 120.699 392.452 120.872C392.558 121.032 392.631 121.202 392.697 121.348C392.761 121.495 392.805 121.631 392.838 121.744C392.904 121.971 392.918 122.109 392.918 122.109Z" fill="#352C38"/>
<path d="M399.216 128.028C399.216 128.028 399.212 128.179 399.194 128.44C399.183 128.57 399.174 128.728 399.152 128.906C399.117 129.086 399.075 129.292 399.02 129.516C398.973 129.747 398.87 129.966 398.776 130.213C398.734 130.339 398.652 130.445 398.588 130.568C398.516 130.687 398.452 130.814 398.349 130.914C398.252 131.017 398.16 131.133 398.048 131.227C397.928 131.309 397.804 131.396 397.673 131.462C397.53 131.5 397.385 131.548 397.237 131.564C397.088 131.55 396.931 131.556 396.788 131.506C396.651 131.436 396.498 131.388 396.381 131.285C396.266 131.18 396.136 131.088 396.043 130.964C395.951 130.839 395.86 130.712 395.78 130.581C395.717 130.441 395.655 130.303 395.595 130.167C395.484 129.893 395.423 129.609 395.371 129.347C395.339 129.081 395.296 128.831 395.299 128.6C395.297 128.369 395.304 128.158 395.311 127.975C395.325 127.791 395.355 127.632 395.373 127.502C395.414 127.244 395.445 127.101 395.445 127.101C395.445 127.101 395.475 127.25 395.516 127.503C395.535 127.628 395.558 127.78 395.584 127.954C395.623 128.124 395.667 128.313 395.705 128.518C395.745 128.724 395.829 128.927 395.882 129.151C395.96 129.362 396.047 129.582 396.147 129.785C396.202 129.882 396.257 129.981 396.314 130.081C396.383 130.162 396.451 130.241 396.513 130.329C396.578 130.413 396.662 130.454 396.733 130.523C396.806 130.589 396.893 130.593 396.969 130.641C397.048 130.675 397.132 130.663 397.213 130.686C397.295 130.677 397.377 130.649 397.462 130.64C397.541 130.596 397.621 130.55 397.706 130.514C397.786 130.463 397.858 130.384 397.935 130.323C398.018 130.269 398.072 130.164 398.143 130.089C398.207 130.002 398.287 129.938 398.337 129.838C398.438 129.646 398.571 129.484 398.649 129.302C398.731 129.122 398.815 128.959 398.891 128.81C398.956 128.648 399.012 128.507 399.058 128.391C399.155 128.158 399.216 128.028 399.216 128.028Z" fill="#352C38"/>
<path d="M391.018 126.901C391.018 126.901 391.014 127.052 390.996 127.313C390.985 127.442 390.976 127.6 390.954 127.779C390.919 127.958 390.877 128.165 390.821 128.389C390.775 128.62 390.671 128.839 390.578 129.085C390.536 129.211 390.454 129.318 390.389 129.441C390.318 129.56 390.254 129.687 390.151 129.787C390.053 129.89 389.962 130.006 389.85 130.1C389.73 130.182 389.606 130.269 389.474 130.335C389.332 130.373 389.187 130.421 389.039 130.437C388.89 130.423 388.733 130.429 388.59 130.379C388.452 130.309 388.3 130.261 388.183 130.158C388.068 130.052 387.938 129.961 387.845 129.836C387.752 129.712 387.662 129.585 387.582 129.454C387.519 129.314 387.458 129.176 387.397 129.04C387.286 128.766 387.225 128.482 387.173 128.22C387.141 127.953 387.098 127.703 387.101 127.472C387.099 127.241 387.106 127.03 387.112 126.847C387.127 126.663 387.157 126.504 387.175 126.375C387.216 126.116 387.246 125.973 387.246 125.973C387.246 125.973 387.277 126.122 387.318 126.375C387.336 126.5 387.36 126.652 387.386 126.826C387.425 126.996 387.469 127.186 387.507 127.391C387.547 127.596 387.63 127.8 387.684 128.024C387.761 128.235 387.849 128.454 387.948 128.658C388.003 128.755 388.059 128.854 388.115 128.954C388.183 129.035 388.252 129.114 388.314 129.202C388.379 129.286 388.463 129.326 388.534 129.396C388.607 129.462 388.694 129.466 388.77 129.514C388.85 129.547 388.933 129.536 389.014 129.559C389.097 129.55 389.179 129.522 389.263 129.513C389.343 129.468 389.423 129.423 389.507 129.387C389.587 129.335 389.659 129.257 389.737 129.196C389.819 129.142 389.874 129.037 389.945 128.961C390.008 128.875 390.088 128.81 390.138 128.71C390.239 128.518 390.372 128.356 390.45 128.174C390.532 127.995 390.617 127.831 390.693 127.683C390.757 127.521 390.813 127.38 390.86 127.264C390.956 127.031 391.018 126.901 391.018 126.901Z" fill="#352C38"/>
<path d="M393.408 123.555C393.303 124.274 393.162 124.977 393.008 125.673C392.932 126.022 392.855 126.37 392.768 126.713C392.683 127.057 392.604 127.404 392.51 127.745C392.332 128.43 392.142 129.109 391.941 129.783C391.75 130.461 391.526 131.124 391.317 131.795L391.246 131.313C391.485 131.693 391.717 132.082 391.93 132.492C392.141 132.905 392.343 133.327 392.505 133.793C392.153 133.538 391.841 133.239 391.537 132.928C391.237 132.616 390.955 132.283 390.68 131.942L390.524 131.748L390.609 131.46C390.807 130.785 390.991 130.103 391.207 129.436C391.414 128.765 391.631 128.099 391.861 127.438C391.97 127.106 392.095 126.78 392.213 126.451C392.331 126.122 392.457 125.797 392.584 125.473C392.84 124.824 393.106 124.182 393.408 123.555Z" fill="#D8866C"/>
<path d="M401.809 123.496C401.809 123.496 401.717 123.413 401.556 123.268C401.395 123.13 401.172 122.94 400.901 122.746C400.77 122.642 400.614 122.561 400.467 122.452C400.306 122.369 400.15 122.262 399.975 122.191C399.89 122.15 399.804 122.109 399.717 122.067C399.627 122.037 399.536 122.006 399.447 121.97C399.271 121.888 399.076 121.87 398.892 121.808C398.701 121.778 398.511 121.748 398.323 121.718C398.131 121.721 397.942 121.69 397.755 121.691C397.569 121.703 397.385 121.706 397.207 121.704C397.032 121.723 396.863 121.741 396.703 121.751C396.543 121.762 396.394 121.771 396.263 121.798C396.133 121.821 396.014 121.829 395.915 121.839C395.718 121.858 395.597 121.855 395.597 121.855C395.597 121.855 395.679 121.754 395.836 121.598C395.915 121.52 396.011 121.423 396.128 121.325C396.241 121.216 396.376 121.113 396.535 121.028C396.69 120.934 396.861 120.826 397.048 120.735C397.241 120.665 397.448 120.595 397.665 120.532C397.883 120.479 398.117 120.465 398.353 120.445C398.591 120.444 398.834 120.479 399.075 120.515C399.311 120.596 399.556 120.635 399.775 120.766C400.002 120.87 400.213 121.002 400.403 121.16C400.603 121.295 400.761 121.495 400.919 121.654C401.067 121.834 401.202 122.006 401.304 122.189C401.417 122.358 401.497 122.537 401.567 122.691C401.637 122.846 401.685 122.99 401.721 123.11C401.795 123.348 401.809 123.496 401.809 123.496Z" fill="#352C38"/>
<path d="M389.086 135.598C389.086 135.598 389.208 135.671 389.421 135.772C389.528 135.822 389.658 135.878 389.807 135.938C389.954 136.002 390.128 136.051 390.309 136.117C390.496 136.17 390.694 136.23 390.907 136.279C391.117 136.34 391.346 136.36 391.575 136.413C391.808 136.449 392.05 136.47 392.294 136.499C392.541 136.509 392.789 136.549 393.041 136.533C393.291 136.537 393.543 136.557 393.791 136.531C394.038 136.506 394.284 136.532 394.521 136.494C394.758 136.464 394.99 136.46 395.21 136.439C395.428 136.405 395.637 136.385 395.831 136.367C396.221 136.338 396.543 136.271 396.776 136.259C397.007 136.239 397.143 136.235 397.143 136.235C397.143 136.235 397.028 136.318 396.819 136.449C396.608 136.569 396.311 136.778 395.929 136.924C395.552 137.095 395.101 137.257 394.604 137.363C394.357 137.428 394.097 137.462 393.832 137.489C393.568 137.527 393.296 137.52 393.025 137.526C392.754 137.53 392.483 137.476 392.217 137.452C391.951 137.416 391.692 137.336 391.443 137.27C390.948 137.11 390.499 136.892 390.141 136.645C389.782 136.4 389.51 136.142 389.337 135.939C389.164 135.734 389.086 135.598 389.086 135.598Z" fill="#D8866C"/>
<path d="M394.019 113.916C394.019 113.916 394.596 120.673 398.604 124.463L397.915 117.691C397.915 117.691 399.796 125.186 402.896 127.578L403.572 123.543C403.572 123.543 402.297 136.174 403.67 140.191C403.67 140.191 405.608 133.776 406.956 126.193C406.956 126.193 408.977 126.945 409.062 128.662C409.062 128.662 415.245 124.06 412.13 114.983C409.016 105.906 394.579 103.04 394.019 113.916Z" fill="#FDDEC0"/>
<path d="M407.551 113.963C407.551 113.963 406.311 102.854 412.587 101.25L411.193 104.34C411.193 104.34 413.402 99.6497 419.269 102.969C419.269 102.969 418.872 107.752 415.48 108.876L419.179 106.796C419.179 106.796 417.322 118.215 407.551 113.963Z" fill="#FDDEC0"/>
<path d="M376.904 283.111C378.012 283.107 379.121 283.141 380.229 283.23C383.501 283.492 386.685 284.126 389.894 284.777C389.459 277.997 389.116 272.001 389.222 269.343C389.523 261.798 390.428 235.553 390.428 235.553L371.738 231.288C371.738 231.288 375.109 256.877 377.465 268.359C377.465 268.359 376.125 274.537 376.904 283.111Z" fill="#352C38"/>
<path d="M390.025 247.124C390.25 240.718 390.428 235.553 390.428 235.553L371.738 231.288C371.738 231.288 372.53 237.307 373.616 244.815C379.089 245.552 384.559 246.324 390.025 247.124Z" fill="#211B23"/>
<path d="M376.662 277.333C376.651 279.081 376.715 281.024 376.904 283.111C378.012 283.107 379.121 283.141 380.229 283.23C383.501 283.492 386.685 284.126 389.894 284.777C389.75 282.538 389.617 280.385 389.506 278.409C385.24 277.848 380.962 277.454 376.662 277.333Z" fill="#211B23"/>
<path d="M376.494 278.742C376.633 283.333 377.31 288.904 379.184 294.749C383.887 309.42 385.141 313.855 385.141 313.855C385.141 313.855 376.931 319.243 379.125 319.243C381.32 319.243 390.157 317.949 391.411 314.879C392.331 312.627 390.722 292.763 389.921 279.234C385.449 278.969 380.973 278.802 376.494 278.742Z" fill="#FFA65B"/>
<path d="M407.685 282.897C406.577 282.941 405.471 283.024 404.367 283.162C401.108 283.567 397.95 284.34 394.767 285.132C394.951 278.338 395.071 272.333 394.867 269.681C394.286 262.155 392.409 235.971 392.409 235.971L410.925 230.889C410.925 230.889 408.506 256.605 406.577 268.182C406.577 268.182 408.145 274.295 407.685 282.897Z" fill="#352C38"/>
<path d="M393.24 247.515C392.778 241.124 392.408 235.971 392.408 235.971L410.925 230.889C410.925 230.889 410.356 236.937 409.55 244.487C404.108 245.463 398.671 246.475 393.24 247.515Z" fill="#211B23"/>
<path d="M407.712 277.112C407.788 278.859 407.797 280.803 407.685 282.897C406.578 282.941 405.471 283.024 404.367 283.162C401.108 283.567 397.95 284.34 394.768 285.132C394.828 282.888 394.882 280.732 394.919 278.752C399.16 278.004 403.42 277.422 407.712 277.112Z" fill="#211B23"/>
<path d="M407.932 278.513C407.964 283.107 407.493 288.703 405.838 294.625C401.683 309.491 400.595 313.978 400.595 313.978C400.595 313.978 409.394 319.148 407.202 319.244C405.009 319.34 395.735 318.289 394.367 315.276C393.365 313.066 394.236 293.148 394.534 279.594C398.993 279.133 403.459 278.77 407.932 278.513Z" fill="#FFA65B"/>
<path d="M376.676 240.5C376.676 240.5 392.665 246.983 405.833 242.206L393.606 168.51L389.844 168.851L376.676 240.5Z" fill="#FDEDEE"/>
<path d="M361 256.195C361 256.195 372.913 265.066 383.573 263.701L392.351 172.945L395.8 265.066C395.8 265.066 412.103 264.724 416.806 256.194L409.282 182.157L415.002 150.787C415.002 150.787 392.665 142.579 373.228 150.427L377.931 179.427L361 256.195Z" fill="#765E69"/>
<path opacity="0.2" d="M392.627 180.328L395.8 265.066C395.8 265.066 412.102 264.724 416.805 256.194L409.701 186.282C403.969 184.439 398.271 182.47 392.627 180.328Z" fill="#211B23"/>
<path opacity="0.2" d="M390.677 179.586C386.102 177.813 381.369 175.991 376.977 173.552L377.93 179.428L361 256.195C361 256.195 372.913 265.066 383.573 263.701L391.672 179.965C391.341 179.838 391.008 179.715 390.677 179.586Z" fill="#211B23"/>
<path d="M398.532 200.98C398.552 201.859 398.035 202.585 397.379 202.602C396.722 202.619 396.175 201.92 396.156 201.041C396.137 200.162 396.653 199.436 397.31 199.418C397.966 199.402 398.513 200.101 398.532 200.98Z" fill="#352C38"/>
<path d="M400.855 251.274C400.874 252.153 400.358 252.879 399.701 252.897C399.045 252.913 398.497 252.215 398.479 251.335C398.459 250.456 398.976 249.73 399.632 249.713C400.288 249.696 400.836 250.395 400.855 251.274Z" fill="#352C38"/>
<path d="M399.25 233.952C399.269 234.831 398.752 235.557 398.096 235.575C397.44 235.592 396.892 234.893 396.873 234.013C396.854 233.134 397.37 232.408 398.027 232.391C398.683 232.374 399.231 233.073 399.25 233.952Z" fill="#352C38"/>
<path d="M398.908 218.262C398.928 219.141 398.411 219.867 397.755 219.885C397.098 219.902 396.551 219.203 396.532 218.323C396.513 217.444 397.029 216.718 397.686 216.701C398.342 216.684 398.889 217.383 398.908 218.262Z" fill="#352C38"/>
<path d="M411.205 219.492C411.205 219.492 404.935 227.68 411.205 221.766C411.205 221.766 410.314 236.765 412.195 225.619C412.195 225.619 411.623 238.144 413.296 226.543C413.296 226.543 412.84 238.609 414.488 226.137C414.488 226.137 415.137 237.956 416.222 219.492C417.356 200.185 411.205 219.492 411.205 219.492Z" fill="#FFAC9D"/>
<path d="M415.001 150.788C415.001 150.788 421.822 179.428 417.746 220.029L408.968 220.371L409.281 182.158C409.281 182.158 408.417 157.271 415.001 150.788Z" fill="#765E69"/>
<path d="M373.854 198.022C373.854 198.022 370.876 196.999 368.995 202.97C367.114 208.941 364.135 219.859 368.211 222.417C372.286 224.976 382.476 229.753 384.984 225.659C387.492 221.565 388.276 200.582 388.276 200.582L373.854 198.022Z" fill="#352C38"/>
<path opacity="0.7" d="M383.177 199.677C382.92 204.868 382.023 219.572 379.967 222.929C378.176 225.853 372.469 224.252 367.867 222.166C367.976 222.256 368.089 222.341 368.211 222.417C372.286 224.976 382.475 229.752 384.983 225.658C387.491 221.564 388.275 200.581 388.275 200.581L383.177 199.677Z" fill="#1F1A21"/>
<path d="M378.975 148.267C378.975 148.267 385.872 173.514 384.2 206.723L387.962 207.178C387.962 207.178 390.052 169.647 382.737 147.584L378.975 148.267Z" fill="#352C38"/>
<path d="M384.513 199.728C384.513 199.728 372.286 196.999 370.875 198.022C369.465 199.046 366.172 207.917 365.859 211.329C365.546 214.741 381.691 217.47 381.691 217.47C381.691 217.47 382.632 201.605 384.513 199.728Z" fill="#3E3542"/>
<path d="M381.901 181.93C381.901 181.93 388.798 179.2 389.007 181.248C389.007 181.248 391.515 181.93 389.425 183.295C389.425 183.295 390.888 184.887 389.425 185.342C389.425 185.342 390.679 186.934 389.216 187.617C387.753 188.299 380.02 188.526 380.02 188.526L381.901 181.93Z" fill="#FFAC9D"/>
<path d="M373.227 150.427C373.227 150.427 361 186.592 362.881 191.369C364.762 196.145 382.737 189.436 382.737 189.436V180.565L375.108 180.792C375.108 180.792 377.687 176.832 377.929 169.533C378.116 163.907 376.639 155.477 373.227 150.427Z" fill="#765E69"/>
<path d="M380.558 147.766C380.558 147.766 385.177 156.464 391.927 156.464C398.678 156.464 402.053 146.772 407.915 149.009C407.915 149.009 410.225 143.293 408.093 140.311C405.961 137.329 398.322 143.293 391.75 141.056C385.177 138.819 378.959 134.097 380.558 147.766Z" fill="#FFA65B"/>
<path opacity="0.1" d="M380.558 147.766C380.558 147.766 385.177 156.464 391.927 156.464C398.678 156.464 402.053 146.772 407.915 149.009C407.915 149.009 410.225 143.293 408.093 140.311C405.961 137.329 398.322 143.293 391.75 141.056C385.177 138.819 378.959 134.097 380.558 147.766Z" fill="#352C38"/>
<path opacity="0.1" d="M393.348 152.985C386.598 152.985 381.979 144.287 381.979 144.287C381.716 142.037 381.666 140.289 381.793 138.942C380.495 139.928 379.937 142.461 380.558 147.766C380.558 147.766 385.177 156.464 391.927 156.464C398.678 156.464 402.053 146.771 407.915 149.008C407.915 149.008 408.579 147.363 408.866 145.377C403.29 143.814 399.916 152.985 393.348 152.985Z" fill="#352C38"/>
<path d="M408.654 181.748C407.818 170.375 405.645 156.829 404.056 148.273C402.175 138.144 391.449 137.879 392.77 143.148C393.083 144.399 394.442 153.423 394.442 153.423C394.442 153.423 397.368 175.311 396.323 185.825C395.772 191.363 395.918 193.21 397.034 193.718C396.921 194.626 396.82 195.919 397.159 195.919C397.463 195.919 397.624 194.807 397.707 193.874C397.909 193.89 398.131 193.888 398.373 193.874C398.256 194.915 398.188 196.374 398.726 196.374C399.285 196.374 399.517 194.799 399.609 193.755C399.724 193.742 399.841 193.728 399.963 193.715C399.819 194.855 399.65 196.715 400.085 196.715C400.545 196.715 400.836 194.695 400.959 193.619C400.989 193.617 401.02 193.614 401.051 193.612C401.102 194.703 401.239 196.769 401.548 196.601C401.893 196.414 401.953 194.302 401.964 193.561C401.968 193.561 401.972 193.561 401.977 193.56C402.016 194.394 402.189 196.927 402.802 196.259C403.31 195.707 403.314 194.336 403.269 193.546C403.282 193.546 403.295 193.546 403.308 193.546C403.565 195.202 404.299 199.435 404.271 193.522C404.486 193.514 404.691 193.501 404.889 193.486C404.885 194.332 404.937 196.694 405.624 196.6C406.278 196.511 406.229 194.266 406.176 193.291C406.189 193.288 406.2 193.284 406.213 193.281C406.369 194.258 406.781 196.527 407.192 196.259C407.541 196.031 407.145 194.236 406.843 193.064C406.884 193.047 406.923 193.028 406.962 193.009C407.605 194.509 408.706 196.813 407.708 192.472C408.994 191.155 409.131 188.23 408.654 181.748Z" fill="#FFA65B"/>
<path opacity="0.15" d="M311.288 309.475C327.215 309.475 340.127 306.24 340.127 302.251C340.127 298.261 327.215 295.027 311.288 295.027C295.361 295.027 282.45 298.261 282.45 302.251C282.45 306.24 295.361 309.475 311.288 309.475Z" fill="#352C38"/>
<path d="M293.965 289.786C293.965 289.786 293.628 304.893 293.44 306.945C293.251 308.996 276.286 310.686 277.364 308.89C278.442 307.093 287.35 302.394 287.35 302.394L287.427 287.679L293.965 289.786Z" fill="#F19C7C"/>
<path opacity="0.2" d="M293.778 297.413C293.883 293.45 293.965 289.786 293.965 289.786L287.427 287.68L287.374 297.868C289.509 297.723 291.645 297.595 293.778 297.413Z" fill="#211B23"/>
<path d="M286.662 301.286L290.109 304.049L289.394 305.928L293.788 304.871L293.647 307.996C293.647 307.996 276.34 311.764 276.18 309.942C276.02 308.121 286.662 301.286 286.662 301.286Z" fill="#352C38"/>
<path d="M276.521 309.123C276.283 309.461 276.151 309.752 276.171 309.971C276.342 311.857 293.664 308.101 293.664 308.101L293.702 307.101C291.848 307.496 277.843 310.426 276.521 309.123Z" fill="#FFFDF6"/>
<path d="M301.228 289.336C301.228 289.336 301.564 304.444 301.753 306.494C301.942 308.546 318.906 310.236 317.828 308.44C316.751 306.643 307.843 301.943 307.843 301.943L307.765 287.229L301.228 289.336Z" fill="#F19C7C"/>
<path opacity="0.2" d="M301.415 296.963C301.309 293 301.228 289.336 301.228 289.336L307.765 287.229L307.819 297.418C305.684 297.273 303.548 297.145 301.415 296.963Z" fill="#211B23"/>
<path d="M308.531 300.836L305.084 303.599L305.8 305.478L301.405 304.421L301.546 307.546C301.546 307.546 318.853 311.314 319.013 309.492C319.173 307.671 308.531 300.836 308.531 300.836Z" fill="#352C38"/>
<path d="M318.672 308.673C318.91 309.011 319.042 309.302 319.022 309.521C318.851 311.407 301.529 307.651 301.529 307.651L301.491 306.651C303.345 307.046 317.349 309.976 318.672 308.673Z" fill="#FFFDF6"/>
<path d="M285.097 197.292L279.194 211.894L284.31 293.2C284.31 293.2 289.243 297.082 295.473 294.389L297.644 225.277L299.474 293.656C299.474 293.656 305.314 295.808 310.62 293.656L315.736 210.98L312.307 198.157L285.097 197.292Z" fill="#765E69"/>
<path opacity="0.2" d="M287.797 223.416C285.17 223.171 282.445 223.014 279.848 222.299L284.309 293.2C284.309 293.2 289.242 297.082 295.473 294.389L297.64 225.368C294.38 224.469 291.082 223.723 287.797 223.416Z" fill="#211C23"/>
<path d="M305.802 204.402L311.96 204.921L310.848 200.324L305.723 200.091C305.764 201.528 305.793 202.965 305.802 204.402Z" fill="#352C38"/>
<path d="M303.41 199.986L292.358 199.483C292.098 200.734 291.759 201.963 291.395 203.188L303.493 204.207C303.48 202.8 303.451 201.393 303.41 199.986Z" fill="#352C38"/>
<path d="M290.062 199.379L284.667 199.134L283.881 202.554L289.082 202.993C289.452 201.798 289.798 200.597 290.062 199.379Z" fill="#352C38"/>
<path d="M292.243 133.089L292.765 151.584L304.428 153.325L303.732 138.528L292.243 133.089Z" fill="#DD856B"/>
<path d="M290.298 141.472C290.298 141.472 290.936 152.062 300.464 151.717C309.992 151.372 308.642 143.678 308.642 143.678L311.351 198.419C311.351 198.419 292.847 199.134 285.098 197.292L290.298 141.472Z" fill="#352C38"/>
<path d="M308.05 184.517C300.926 182.672 293.691 180.303 287.036 176.488L285.098 197.292C292.848 199.134 311.351 198.42 311.351 198.42L310.695 185.179C309.813 184.963 308.93 184.745 308.05 184.517Z" fill="#211C23"/>
<path d="M271.703 206.412C271.703 206.412 273.604 223.482 278.281 215.548C287.596 199.744 292.142 161.32 292.142 161.32L290.298 141.471C290.298 141.471 277.648 146.682 274.243 159.863C270.837 173.045 271.575 189.653 271.703 206.412Z" fill="#668DAD"/>
<path d="M281.559 147.644C281.559 147.644 273.535 154.377 272.394 170.526C271.252 186.675 270.073 198.505 272.105 204.253C274.136 210.001 279.194 215.319 279.194 215.319L285.041 201.388L281.559 147.644Z" fill="#6F96BD"/>
<path d="M283.579 205.271L283.761 207.783L279.377 216.69L279.194 215.32L283.579 205.271Z" fill="#F19C7C"/>
<path d="M287.781 186.771C287.781 186.771 293.445 167.815 293.628 157.766C293.811 147.717 292.349 139.266 289.791 139.723C287.233 140.18 287.781 145.204 288.877 153.198C289.974 161.192 289.243 179.006 287.781 186.771Z" fill="#7DA8CC"/>
<path d="M322.496 210.067C322.496 210.067 317.621 222.764 315.427 215.715C310.255 199.104 305.36 163.768 305.36 163.768L307.286 141.888C307.286 141.888 319.668 148.019 322.449 161.428C325.229 174.836 321.583 189.284 322.496 210.067Z" fill="#668DAD"/>
<path d="M315.656 148.301C315.656 148.301 323.455 155.437 324.07 171.63C324.685 187.824 325.809 196.433 323.592 202.073C321.376 207.713 315.427 215.715 315.427 215.715L310.438 199.561L315.656 148.301Z" fill="#6F96BD"/>
<path d="M311.96 204.921L311.412 207.433L315.188 217.603L315.427 215.715L311.96 204.921Z" fill="#F19C7C"/>
<path d="M309.173 187.685C309.173 187.685 303.51 168.729 303.327 158.68C303.144 148.631 304.606 140.18 307.164 140.637C309.722 141.094 309.173 146.118 308.077 154.112C306.981 162.105 307.712 179.92 309.173 187.685Z" fill="#7DA8CC"/>
<path d="M292.075 136.836C292.075 136.836 294.243 143.218 301.706 142.396C306.961 141.816 307.98 132.713 307.868 123.586C307.695 109.375 304.058 108.406 298.476 108.868C285.835 109.916 292.075 136.836 292.075 136.836Z" fill="#F19C7C"/>
<path d="M290.239 107.496C291.992 109.812 292.223 110.136 293.91 112.529C295.165 121.997 292.359 123.604 292.359 123.604L292.187 127.521L290.996 127.558L291.384 133.261C291.384 133.261 290.302 129.335 288.305 119.833C285.82 108.008 289.277 107.834 290.239 107.496Z" fill="#352C38"/>
<path d="M291.444 131.275L290.997 122.596C290.997 122.596 288.496 121.537 288.149 124.383C287.802 127.23 289.274 130.871 291.444 131.275Z" fill="#F19C7C"/>
<path d="M290.927 121.924C290.927 121.924 289.56 138.268 293.972 141.742C298.382 145.215 309.126 147.078 307.528 131.976C307.528 131.976 307.2 136.731 305.894 136.377C304.588 136.023 306.55 131.879 303.959 131.638C301.368 131.397 296.613 129.873 296.435 133.528C296.257 137.183 294.857 137.373 293.687 134.92C292.518 132.467 292.763 121.852 292.763 121.852L290.927 121.924Z" fill="#352C38"/>
<path d="M293.526 112.612C293.526 112.612 298.295 116.029 303.573 114.201L300.966 113.486C300.966 113.486 307.324 112.77 307.833 110.466L307.388 110.704C307.388 110.704 309.295 107.445 308.024 104.027C308.024 104.027 308.087 106.809 306.688 106.73C305.29 106.65 302.937 100.53 294.925 103.153C286.914 105.776 291.11 113.167 291.11 113.167L293.526 112.612Z" fill="#352C38"/>
<path d="M289.789 122.161L294.901 121.285L301.506 122.428C301.506 122.428 302.301 120.989 303.042 122.553C303.594 123.716 308.775 121.407 308.775 121.407L309.752 121.366" stroke="#965450" stroke-width="1.4663" stroke-miterlimit="10"/>
<path d="M295.021 120.282L301.602 120.401C301.602 120.401 302.078 126.72 298.263 126.839C294.448 126.958 295.021 120.282 295.021 120.282Z" fill="#AAC9E2" stroke="#965450" stroke-width="1.4663" stroke-miterlimit="10"/>
<path d="M302.934 120.401L308.852 120.521C308.852 120.521 309.281 126.839 305.85 126.959C302.419 127.078 302.934 120.401 302.934 120.401Z" fill="#AAC9E2" stroke="#965450" stroke-width="1.4663" stroke-miterlimit="10"/>
<path d="M296.901 121.391C296.901 121.391 296.921 121.508 296.969 121.704C297.015 121.899 297.086 122.174 297.199 122.475C297.313 122.773 297.474 123.1 297.702 123.327C297.926 123.561 298.219 123.669 298.538 123.67C298.575 123.668 298.625 123.668 298.652 123.665L298.791 123.65C298.864 123.639 298.938 123.627 299.016 123.604C299.167 123.558 299.306 123.49 299.43 123.403C299.676 123.221 299.86 122.944 299.983 122.661C300.106 122.378 300.178 122.105 300.225 121.91C300.27 121.715 300.289 121.595 300.289 121.595C300.289 121.595 300.322 121.709 300.345 121.92C300.367 122.13 300.379 122.442 300.305 122.813C300.236 123.18 300.056 123.625 299.719 123.936C299.556 124.095 299.357 124.206 299.154 124.275C299.054 124.309 298.947 124.334 298.836 124.354L298.697 124.367C298.631 124.371 298.588 124.367 298.532 124.368C298.32 124.36 298.1 124.317 297.897 124.213C297.696 124.108 297.514 123.951 297.372 123.768C297.091 123.39 296.966 122.954 296.907 122.594C296.849 122.23 296.852 121.926 296.864 121.717C296.878 121.507 296.901 121.391 296.901 121.391Z" fill="#211B23"/>
<path d="M304.372 121.871C304.372 121.871 304.389 121.979 304.426 122.163C304.462 122.345 304.516 122.605 304.601 122.896C304.688 123.182 304.807 123.514 304.994 123.75C305.176 123.994 305.42 124.096 305.703 124.063C305.852 124.04 305.991 124.009 306.117 123.943C306.243 123.875 306.36 123.788 306.461 123.677C306.662 123.453 306.807 123.156 306.909 122.879C307.008 122.601 307.074 122.347 307.116 122.166C307.157 121.986 307.177 121.877 307.177 121.877C307.177 121.877 307.204 121.983 307.223 122.177C307.24 122.37 307.253 122.652 307.203 122.991C307.155 123.326 307.044 123.736 306.788 124.086C306.665 124.263 306.501 124.414 306.318 124.515C306.134 124.618 305.934 124.685 305.741 124.696C305.54 124.713 305.324 124.682 305.127 124.577C304.93 124.471 304.77 124.292 304.655 124.104C304.428 123.717 304.358 123.309 304.325 122.975C304.294 122.638 304.31 122.36 304.329 122.168C304.349 121.977 304.372 121.871 304.372 121.871Z" fill="#211B23"/>
<g opacity="0.6">
<path d="M301.048 131.821C301.968 131.204 302.921 130.699 303.877 130.21L303.693 130.622C303.521 129.797 303.358 128.971 303.21 128.139C303.13 127.726 303.063 127.308 302.993 126.891C302.924 126.474 302.851 126.059 302.792 125.639C302.664 124.802 302.548 123.963 302.449 123.118C302.348 122.274 302.264 121.425 302.214 120.567C302.457 121.372 302.666 122.187 302.858 123.006C303.051 123.824 303.228 124.647 303.393 125.473C303.48 125.885 303.554 126.301 303.631 126.715C303.708 127.13 303.787 127.544 303.854 127.962C303.998 128.794 304.128 129.63 304.249 130.469L304.296 130.797L304.065 130.881C303.072 131.243 302.076 131.588 301.048 131.821Z" fill="#C15C38"/>
</g>
<path d="M301.054 117.352C301.054 117.352 300.944 117.349 300.774 117.343C300.601 117.342 300.369 117.333 300.104 117.337C299.838 117.34 299.546 117.332 299.239 117.344C298.937 117.352 298.615 117.36 298.293 117.369C298.133 117.382 297.972 117.388 297.811 117.392C297.652 117.412 297.492 117.409 297.335 117.415C297.179 117.431 297.025 117.435 296.875 117.434C296.725 117.438 296.583 117.45 296.446 117.448C296.17 117.433 295.935 117.448 295.758 117.428C295.583 117.414 295.474 117.39 295.474 117.39C295.474 117.39 295.531 117.278 295.649 117.111C295.768 116.947 295.941 116.704 296.188 116.497C296.311 116.392 296.446 116.276 296.597 116.177C296.75 116.085 296.916 115.993 297.091 115.909C297.268 115.834 297.457 115.774 297.651 115.723C297.845 115.675 298.048 115.662 298.249 115.638C298.452 115.646 298.655 115.64 298.854 115.678C299.052 115.714 299.247 115.754 299.429 115.83C299.797 115.959 300.118 116.174 300.368 116.393C300.494 116.505 300.6 116.622 300.689 116.734C300.781 116.836 300.849 116.954 300.904 117.041C301.014 117.225 301.054 117.352 301.054 117.352Z" fill="#352C38"/>
<path d="M307.634 117.788C307.634 117.788 307.543 117.783 307.384 117.775C307.229 117.772 307.023 117.762 306.788 117.765C306.553 117.769 306.297 117.763 306.028 117.778C305.895 117.775 305.757 117.796 305.62 117.794C305.482 117.803 305.342 117.812 305.202 117.821C305.061 117.837 304.921 117.842 304.78 117.854C304.641 117.878 304.499 117.875 304.361 117.889C304.224 117.908 304.087 117.916 303.955 117.92C303.823 117.932 303.696 117.945 303.574 117.947C303.327 117.942 303.118 117.966 302.959 117.953C302.802 117.947 302.703 117.928 302.703 117.928C302.703 117.928 302.749 117.824 302.848 117.666C302.948 117.513 303.092 117.282 303.306 117.083C303.412 116.982 303.529 116.873 303.66 116.773C303.795 116.684 303.941 116.593 304.096 116.51C304.251 116.432 304.421 116.374 304.594 116.32C304.767 116.266 304.95 116.252 305.131 116.224C305.497 116.209 305.867 116.25 306.199 116.38C306.532 116.495 306.821 116.696 307.043 116.899C307.154 117.003 307.247 117.112 307.325 117.216C307.405 117.311 307.463 117.42 307.511 117.5C307.603 117.672 307.634 117.788 307.634 117.788Z" fill="#352C38"/>
<path d="M297.615 133.644L304.546 134.232C304.546 134.232 300.787 137.168 297.615 133.644Z" fill="#FFFDF6"/>
<g opacity="0.7">
<path d="M290.171 129.15C289.987 129.003 289.827 128.816 289.679 128.608C289.604 128.503 289.541 128.386 289.483 128.26C289.43 128.131 289.382 127.992 289.361 127.836C289.351 127.759 289.355 127.675 289.353 127.594C289.358 127.513 289.38 127.431 289.396 127.349C289.418 127.27 289.457 127.201 289.492 127.129C289.524 127.052 289.578 127.011 289.622 126.951C289.711 126.827 289.822 126.776 289.924 126.688C290.031 126.626 290.14 126.58 290.249 126.527L290.12 126.707C290.159 126.373 290.186 126.022 290.197 125.681C290.202 125.338 290.202 124.995 290.154 124.669L290.11 124.431C290.092 124.354 290.064 124.285 290.042 124.21C290.018 124.135 289.976 124.084 289.946 124.015C289.914 123.947 289.858 123.916 289.816 123.86C289.77 123.809 289.706 123.798 289.649 123.759C289.592 123.715 289.521 123.733 289.456 123.715C289.388 123.699 289.319 123.704 289.25 123.721L289.036 123.748L289.237 123.642C289.305 123.604 289.375 123.578 289.452 123.574C289.527 123.57 289.604 123.532 289.682 123.56C289.757 123.583 289.845 123.582 289.915 123.635C289.982 123.69 290.067 123.731 290.12 123.807C290.172 123.882 290.24 123.953 290.277 124.04C290.315 124.127 290.359 124.213 290.389 124.303L290.468 124.577C290.543 124.948 290.573 125.322 290.569 125.691C290.568 126.062 290.54 126.422 290.485 126.792L290.466 126.923L290.356 126.972L290.08 127.096C290.004 127.156 289.902 127.191 289.845 127.27C289.816 127.306 289.769 127.332 289.751 127.377C289.732 127.419 289.699 127.455 289.682 127.5C289.671 127.547 289.65 127.591 289.642 127.642C289.64 127.694 289.63 127.745 289.632 127.801C289.638 127.912 289.655 128.029 289.687 128.146C289.722 128.263 289.764 128.377 289.812 128.493C289.909 128.724 290.037 128.937 290.171 129.15Z" fill="#C15C38"/>
</g>
<path d="M369 70H368.5V320H369V70Z" fill="#595959"/>
<path fill-rule="evenodd" clip-rule="evenodd" d="M299 70H344V95H299V70ZM344 217.5V320H299V217.5H344Z" fill="#F8F8F8"/>
<path d="M269 295C269 308.807 277.954 320 289 320H269V295Z" fill="#F8F8F8"/>
<path d="M289 70C277.954 70 269 81.1929 269 95V70H289Z" fill="#F8F8F8"/>
<path fill-rule="evenodd" clip-rule="evenodd" d="M269 95C269 81.1929 277.954 70 289 70H344V95H299H294C291.239 95 289 97.7982 289 101.25V211.25C289 214.702 291.239 217.5 294 217.5H299H344V320H289C277.954 320 269 308.807 269 295V95ZM368.5 320V70H369V320H368.5Z" fill="#F8F8F8"/>
<path d="M368.5 320H344V217.5C346.761 217.5 349 214.702 349 211.25V101.25C349 97.7982 346.761 95 344 95V70H368.5V320Z" fill="#64B5F6"/>
<path d="M403.478 67.6111L403.974 67.6753L371.847 315.602L371.351 315.538L403.478 67.6111Z" fill="#595959"/>
<path fill-rule="evenodd" clip-rule="evenodd" d="M472.898 76.6066L428.271 70.8238L425.058 95.6165L469.685 101.399L472.898 76.6066ZM409.316 217.101L396.144 318.751L440.771 324.534L453.943 222.884L409.316 217.101Z" fill="#F8F8F8"/>
<path d="M473.735 303.596C471.96 317.289 461.642 327.238 450.688 325.819L470.522 328.389L473.735 303.596Z" fill="#F8F8F8"/>
<path d="M482.815 77.8916C493.769 79.3111 501.211 91.5619 499.436 105.255L502.649 80.4618L482.815 77.8916Z" fill="#F8F8F8"/>
<path fill-rule="evenodd" clip-rule="evenodd" d="M499.436 105.255C501.211 91.5619 493.769 79.3111 482.815 77.8916L428.271 70.8238L425.058 95.6165L469.685 101.399L474.643 102.042C477.382 102.397 479.242 105.459 478.799 108.883L464.663 217.97C464.22 221.394 461.64 223.881 458.901 223.526L453.943 222.884L409.316 217.101L396.144 318.751L450.688 325.819C461.642 327.238 471.96 317.289 473.735 303.596L499.436 105.255ZM371.847 315.602L403.974 67.6753L403.478 67.6111L371.351 315.538L371.847 315.602Z" fill="#F8F8F8"/>
<path d="M371.847 315.602L396.144 318.751L409.316 217.101C406.577 216.746 404.717 213.683 405.161 210.26L419.296 101.172C419.74 97.749 422.32 95.2616 425.058 95.6165L428.271 70.8238L403.974 67.6753L371.847 315.602Z" fill="#64B5F6"/>
<rect width="1" height="250" transform="translate(368.5 70)" fill="#575353"/>
<path d="M269 70C260.163 70 253 77.1634 253 86V220H269V70Z" fill="#25303B"/>
<rect x="17" y="183" width="154" height="79" rx="17" fill="#2E2E2E"/>
<rect x="17" y="183" width="154" height="79" rx="17" stroke="#AAAAAA" stroke-width="6"/>
<rect x="154" y="113" width="73" height="17" rx="4" fill="#2E2E2E"/>
<rect x="154" y="113" width="73" height="17" rx="4" stroke="#AAAAAA" stroke-width="2"/>
<path d="M180 126V118H181.245L182.047 120.586C182.124 120.82 182.194 121.054 182.258 121.288C182.321 121.514 182.367 121.689 182.395 121.814C182.43 121.689 182.476 121.514 182.532 121.288C182.588 121.054 182.652 120.816 182.722 120.575L183.481 118H184.726V126H183.798V123.096C183.798 122.774 183.809 122.409 183.83 122C183.851 121.591 183.879 121.174 183.914 120.751C183.949 120.32 183.984 119.911 184.02 119.523C184.062 119.129 184.097 118.785 184.125 118.493L182.88 122.493H181.878L180.622 118.493C180.658 118.778 180.693 119.111 180.728 119.49C180.763 119.863 180.795 120.261 180.823 120.685C180.851 121.101 180.876 121.518 180.897 121.934C180.918 122.351 180.928 122.738 180.928 123.096V126H180Z" fill="#F9B700"/>
<path d="M185.392 126L187.397 118H188.673L190.667 126H189.707L189.201 123.874H186.869L186.363 126H185.392ZM187.059 123.041H189L188.409 120.575C188.297 120.108 188.209 119.717 188.146 119.403C188.082 119.089 188.044 118.884 188.03 118.789C188.016 118.884 187.977 119.089 187.914 119.403C187.85 119.717 187.762 120.104 187.65 120.564L187.059 123.041Z" fill="#F9B700"/>
<path d="M191.744 126V118H192.694V125.101H196.175V126H191.744Z" fill="#F9B700"/>
<path d="M196.725 126L198.73 118H200.006L202 126H201.04L200.534 123.874H198.202L197.696 126H196.725ZM198.392 123.041H200.333L199.742 120.575C199.63 120.108 199.542 119.717 199.479 119.403C199.415 119.089 199.377 118.884 199.363 118.789C199.348 118.884 199.31 119.089 199.246 119.403C199.183 119.717 199.095 120.104 198.983 120.564L198.392 123.041Z" fill="#F9B700"/>
<rect x="497" y="112" width="172" height="98" rx="17" fill="#2E2E2E"/>
<rect x="497" y="112" width="172" height="98" rx="17" stroke="#AAAAAA" stroke-width="6"/>
</g>
<rect x="-5" y="24" width="750" height="25" fill="url(#paint0_linear_130_6926)"/>
</g>
<defs>
<linearGradient id="paint0_linear_130_6926" x1="370" y1="49" x2="370" y2="24" gradientUnits="userSpaceOnUse">
<stop stop-color="white"/>
<stop offset="1" stop-color="#EEEEEE"/>
</linearGradient>
<clipPath id="clip0_130_6926">
<rect width="745" height="419" fill="white"/>
</clipPath>
<clipPath id="clip1_130_6926">
<rect width="745" height="271" fill="white" transform="translate(0 49)"/>
</clipPath>
</defs>
</svg>
